<svg width="32" height="32" viewBox="0 0 32 32" fill="none" xmlns="http://www.w3.org/2000/svg">
<g id="Search results for Back music - Flaticon-12 1">
<g id="Group">
<path id="Vector" d="M6.03982 2.00287C5.77182 1.99904 5.50578 2.04904 5.25745 2.1499C5.00912 2.25076 4.78356 2.40043 4.59412 2.59004C4.40468 2.77966 4.25522 3.00536 4.15459 3.25378C4.05397 3.5022 4.00421 3.76829 4.00829 4.03629V28.0424C4.00829 30.7146 8.01467 30.7146 8.01467 28.0424V16.0611C8.02411 16.6507 8.29058 17.2366 8.81405 17.6296L24.8396 29.6488C25.1374 29.8722 25.4917 30.0081 25.8625 30.0414C26.2334 30.0747 26.6061 30.0039 26.939 29.8371C27.2719 29.6702 27.5517 29.4139 27.747 29.0969C27.9423 28.7799 28.0454 28.4148 28.0447 28.0424V4.00606C28.045 3.63388 27.9417 3.26896 27.7462 2.95223C27.5508 2.6355 27.271 2.37948 26.9382 2.21288C26.6054 2.04628 26.2327 1.97569 25.862 2.00903C25.4914 2.04237 25.1373 2.17831 24.8396 2.40162L8.81405 14.4245C8.56942 14.6071 8.37008 14.8436 8.23147 15.1156C8.09285 15.3876 8.01867 15.6878 8.01467 15.9931V4.03629C8.01867 3.77307 7.97074 3.51163 7.87363 3.26694C7.77652 3.02225 7.63214 2.79909 7.44873 2.61024C7.26531 2.42139 7.04648 2.27054 6.80473 2.16633C6.56298 2.06211 6.30306 2.00656 6.03982 2.00287Z" fill="url(#paint0_linear_1_2671)"/>
</g>
</g>
<defs>
<linearGradient id="paint0_linear_1_2671" x1="4.00806" y1="16.2073" x2="28.0447" y2="16.2073" gradientUnits="userSpaceOnUse">
<stop stop-color="#FC1B7C"/>
<stop offset="0.5" stop-color="#714CF4"/>
<stop offset="1" stop-color="#0084F3"/>
</linearGradient>
</defs>
</svg>
