<svg xmlns="http://www.w3.org/2000/svg" width="330" height="251" fill="none" viewBox="0 0 330 251">
  <g clip-path="url(#a)">
    <path fill="#3F3D56" d="M132.15 52.511h-1.201V19.673a18.99 18.99 0 0 0-5.573-13.44A19.03 19.03 0 0 0 111.92.668H42.26a19.042 19.042 0 0 0-13.456 5.567 18.994 18.994 0 0 0-5.573 13.439v180.153a18.99 18.99 0 0 0 5.573 13.44 19.043 19.043 0 0 0 13.456 5.566h69.66c5.047 0 9.887-2.002 13.456-5.566a18.998 18.998 0 0 0 5.573-13.439V75.887h1.201V52.51Z"/>
    <path fill="#CBCBCB" d="M154.477 218.863H.903a.401.401 0 0 1-.285-.687.406.406 0 0 1 .285-.118h153.574a.406.406 0 0 1 .403.403.404.404 0 0 1-.403.402Z"/>
    <path fill="#F1F1F1" d="M280.336 222.205c.414-.669.902-1.289 1.454-1.85.227-.236.467-.458.715-.674a11.36 11.36 0 0 1 11.241-2.247 11.337 11.337 0 0 1 7.462 8.691c1.663-6.14-2.665-12.188-7.016-16.834-4.353-4.644-9.328-9.739-9.303-16.102.012-3.541 1.746-6.7 4.365-9.042.081-.071.161-.142.244-.21a16.566 16.566 0 0 1 11.402-3.969c7.739.414 14.496 5.609 19.189 11.77 7.553 9.915 10.863 23.832 5.575 35.118-4.651 9.926-14.571 15.82-24.695 20.559a209.893 209.893 0 0 1-4.233 1.925l-.028.012c-.068.03-.136.059-.199.09l-.87.383.134.087.416.269-.431-.259c-.043-.027-.089-.052-.132-.078-4.972-2.98-10.013-6.132-13.449-10.784-3.562-4.83-4.995-11.749-1.841-16.855Z"/>
    <path fill="#fff" d="M313.511 210.988a28.05 28.05 0 0 1 2.166 7.862 24.363 24.363 0 0 1-.294 7.251 31.258 31.258 0 0 1-6.279 13.415 45.037 45.037 0 0 1-8.135 7.899 209.893 209.893 0 0 1-4.233 1.925l-.028.012c-.068.03-.136.059-.199.09l-.87.383.134.087.416.269-.432-.259c-.042-.027-.088-.052-.131-.078a24.857 24.857 0 0 0-4.517-22.402 25.117 25.117 0 0 0-9.319-7.087c.227-.236.467-.458.714-.674a25.98 25.98 0 0 1 3.992 2.277 25.495 25.495 0 0 1 9.658 12.777 26.036 26.036 0 0 1 .566 14.569c.249-.163.5-.33.744-.497 4.632-3.12 8.901-6.866 12.117-11.461a29.079 29.079 0 0 0 5.168-13.118c.616-5.167-.678-10.247-2.988-14.857a60.889 60.889 0 0 0-9.551-13.555 69.257 69.257 0 0 0-12.809-10.999.5.5 0 0 1-.147-.67.422.422 0 0 1 .244-.21.364.364 0 0 1 .314.063c.581.387 1.156.777 1.725 1.179a70.063 70.063 0 0 1 12.804 11.682c3.64 4.249 6.953 8.97 9.17 14.127Z"/>
    <path fill="#CBCBCB" d="M175.524 250.667h153.573a.4.4 0 0 0 .403-.403.4.4 0 0 0-.403-.402H175.524a.4.4 0 0 0-.403.402.4.4 0 0 0 .403.403Z"/>
    <path fill="#FFB7B7" d="m212.459 218.546-7.447-.117.896 25.349h6.549l.002-25.232Z"/>
    <path fill="#2F2E41" d="M214.128 241.642h-12.899a8.228 8.228 0 0 0-5.813 2.404 8.208 8.208 0 0 0-2.408 5.805v.267l21.12.001v-8.477Z"/>
    <path fill="#FFB7B7" d="m261.762 211.823-8.134 5.216 16.271 19.551 5.512-3.535-13.649-21.232Z"/>
    <path fill="#2F2E41" d="m275.662 230.356-10.855 6.96v.001a8.202 8.202 0 0 0-2.476 11.344l.144.224 17.772-11.395-4.585-7.134Z"/>
    <path fill="#FFB7B7" d="M196.146 151.119a5.915 5.915 0 0 1-4.178-.386 5.898 5.898 0 0 1-2.976-7.249 5.898 5.898 0 0 1 2.704-3.204l12.536-14.205 10.603 2.288-14.913 14.589a5.858 5.858 0 0 1-1.521 6.986 5.867 5.867 0 0 1-2.255 1.181Z"/>
    <path fill="#F1F1F1" d="M173.035 125.148a4.405 4.405 0 0 0 4.408-4.402 4.405 4.405 0 0 0-4.408-4.402 4.405 4.405 0 0 0-4.407 4.402 4.405 4.405 0 0 0 4.407 4.402Zm128.986-12.077a4.405 4.405 0 0 0 4.407-4.402 4.405 4.405 0 0 0-4.407-4.402 4.405 4.405 0 0 0-4.408 4.402 4.405 4.405 0 0 0 4.408 4.402Z"/>
    <path fill="#fff" d="M112.687 5.612h-9.093a6.737 6.737 0 0 1-3.076 8.498 6.762 6.762 0 0 1-3.175.792H57.436a6.758 6.758 0 0 1-5.603-2.982 6.739 6.739 0 0 1-.648-6.308h-8.493a14.226 14.226 0 0 0-10.049 4.157 14.193 14.193 0 0 0-4.162 10.036v179.889a14.18 14.18 0 0 0 4.162 10.037 14.214 14.214 0 0 0 10.049 4.157h69.995c1.866 0 3.714-.367 5.438-1.081a14.203 14.203 0 0 0 7.691-7.681 14.165 14.165 0 0 0 1.082-5.432V19.805a14.197 14.197 0 0 0-8.773-13.113 14.225 14.225 0 0 0-5.438-1.08Z"/>
    <path fill="url(#b)" d="M77.69 139.83c18.799 0 34.039-15.221 34.039-33.997 0-18.775-15.24-33.996-34.04-33.996-18.798 0-34.038 15.221-34.038 33.996 0 18.776 15.24 33.997 34.039 33.997Z"/>
    <path fill="#fff" d="M74.317 118.802a3.534 3.534 0 0 1-2.124-.705l-.038-.028-8-6.112a3.564 3.564 0 0 1-1.361-2.353 3.545 3.545 0 0 1 1.745-3.539 3.563 3.563 0 0 1 3.942.256l5.181 3.969 12.244-15.954a3.552 3.552 0 0 1 3.739-1.27c.45.121.873.33 1.243.613h.002l-.076.106.078-.105a3.552 3.552 0 0 1 .657 4.976l-14.402 18.757a3.555 3.555 0 0 1-2.827 1.385l-.003.004Z"/>
    <path fill="#3F3D56" d="m237.389 100.266-31.244 39.171-9.524-4.367 36.724-57.104 4.044 22.3Z"/>
    <path fill="#FFB7B7" d="M312.149 39.57a5.891 5.891 0 0 0-.929-4.087 5.905 5.905 0 0 0-7.585-2 5.9 5.9 0 0 0-2.827 3.097l-12.462 14.27 3.656 10.2 12.533-16.673a5.88 5.88 0 0 0 6.737-2.42 5.867 5.867 0 0 0 .877-2.387Z"/>
    <path fill="#3F3D56" d="m260.492 95.09 41.368-44.093-5.58-8.86-51.886 43.826 16.098 9.128Z"/>
    <path fill="#2F2E41" d="M251.259 68.3c8.014 0 14.511-6.489 14.511-14.493 0-8.004-6.497-14.492-14.511-14.492s-14.511 6.488-14.511 14.492c0 8.004 6.497 14.493 14.511 14.493Z"/>
    <path fill="#2F2E41" d="M252.426 45.62a30.424 30.424 0 0 1 11.07-7.15c2.676-.99 5.588-1.602 8.386-1.04 2.797.563 5.443 2.496 6.223 5.237.639 2.242-.02 4.656-1.011 6.766-.99 2.11-2.313 4.067-3.113 6.256a14.268 14.268 0 0 0 7.468 17.88 14.31 14.31 0 0 0 6.917 1.267c-2.749.368-5.282 1.659-7.969 2.345-2.687.687-5.858.64-7.855-1.282-2.112-2.034-2.154-5.341-2.052-8.27l.455-13.062c.078-2.22.144-4.511-.658-6.584-.802-2.072-2.707-3.887-4.932-3.868-1.685.014-3.178 1.034-4.53 2.04-1.352 1.006-2.783 2.08-4.462 2.229-1.679.15-3.597-1.092-3.471-2.77l-.466.006Z"/>
    <path fill="#3F3D56" d="M264.66 134.419s-18.074-59.954-23.882-60.765c-5.809-.81-15.167 15.384-15.167 15.384-12.134 15.462-24.646 65.548-24.646 65.548s20.858 1.304 36.105 9.406c15.247 8.101 33.241-.411 33.241-.411l-5.651-29.162Z"/>
    <path fill="#000" d="M264.66 134.419s-18.074-59.955-23.882-60.765c-5.809-.81-12.79 15.548-12.79 15.548-6.046 24.96-27.023 65.384-27.023 65.384s20.858 1.303 36.105 9.405c15.247 8.102 33.241-.41 33.241-.41l-5.651-29.162Z" opacity=".1"/>
    <path fill="#2F2E41" d="M249.832 116.481v30.127l3.55 43.641 17.735 33.011-8.464 6.038-24.185-31.401-9.566-31.179-15.022 69.022-11.286-.805 7.838-95.697 14.874-26.937 24.526 4.18Z"/>
    <path fill="url(#c)" d="M231.609 87.341c-5.643 5.637-.403 11.675-.403 11.675l-6.45 14.493 25.394 6.844 8.875-39.605-6.047-6.441c-12.092-.403-12.098-.653-12.098-.653-2.119 2.07-9.271 13.687-9.271 13.687Z"/>
    <path fill="#3F3D56" d="M260.047 76.645a10.839 10.839 0 0 0-8.111-1.985 10.85 10.85 0 0 0-7.116 4.366c-6.384 8.877-12.287 23.213-4.154 41.091 13.06 28.708 24.424 43.404 29.044 43.402.202.002.403-.03.594-.093 2.844-.963 6.956-5.77 7.7-10.005.267-1.516.203-3.627-1.612-5.077-5.214-4.166-14.574-17.135-17.494-34.205-1.614-9.432 1.515-18.024 4.425-23.57a10.812 10.812 0 0 0-3.135-13.82l-.141-.104Z"/>
    <path fill="#FFB7B7" d="M252.006 66.876c5.176-2.826 7.078-9.308 4.249-14.478-2.83-5.17-9.32-7.07-14.497-4.244-5.176 2.826-7.078 9.308-4.249 14.478 2.83 5.17 9.32 7.07 14.497 4.244Z"/>
    <path fill="#2F2E41" d="M231.86 56.709h15.424l.158-2.212.791 2.212h2.375l.313-4.384 1.568 4.384h4.595v-.218a11.517 11.517 0 0 0-3.379-8.135 11.546 11.546 0 0 0-8.146-3.375h-2.174a11.546 11.546 0 0 0-8.146 3.375 11.517 11.517 0 0 0-3.379 8.136v.217Z"/>
    <path fill="#2F2E41" d="m254.754 64.658 6.582-2.133V46.56h-12.433l.308.307c4.283 4.272 9.046 19.428 5.543 17.791Z"/>
    <path fill="#F1F1F1" d="M212.134 16.452c3.992 0 7.228-3.232 7.228-7.22 0-3.987-3.236-7.22-7.228-7.22-3.993 0-7.229 3.233-7.229 7.22 0 3.988 3.236 7.22 7.229 7.22Z"/>
  </g>
  <defs>
    <linearGradient id="b" x1="43.651" x2="111.729" y1="106.275" y2="106.275" gradientUnits="userSpaceOnUse">
      <stop stop-color="#FC1B7C"/>
      <stop offset=".5" stop-color="#714CF4"/>
      <stop offset="1" stop-color="#0084F3"/>
    </linearGradient>
    <linearGradient id="c" x1="224.756" x2="259.025" y1="97.306" y2="97.306" gradientUnits="userSpaceOnUse">
      <stop stop-color="#FC1B7C"/>
      <stop offset=".5" stop-color="#714CF4"/>
      <stop offset="1" stop-color="#0084F3"/>
    </linearGradient>
    <clipPath id="a">
      <path fill="#fff" d="M.5.667h329v250H.5z"/>
    </clipPath>
  </defs>
</svg>
