<svg width="185" height="142" viewBox="0 0 185 142" fill="none" xmlns="http://www.w3.org/2000/svg">
<g id="Group 259">
<g id="Group 258">
<path id="Vector" d="M95.5417 0H89.5075V140.138H95.5417V0Z" fill="url(#paint0_linear_428_4946)"/>
<path id="Vector_2" d="M153.298 24.1275L132.339 38.5767L132.195 38.6755H43.1044V9.57812H132.195L143.83 17.5995L153.298 24.1275Z" fill="url(#paint1_linear_428_4946)"/>
<path id="Vector_3" d="M50.5594 74.4211H139.65V45.3232H50.5594L29.4565 59.8722L50.5594 74.4211Z" fill="url(#paint2_linear_428_4946)"/>
<path id="Vector_4" d="M119.163 45.2979C119.163 45.2979 108.979 72.4769 44.2471 70.0696L50.5575 74.4213H139.65V45.3235L119.163 45.2979Z" fill="url(#paint3_linear_428_4946)"/>
<path id="Vector_5" d="M139.65 48.4209C139.65 48.4209 132.342 73.2631 105.091 74.2584L139.65 74.4208V48.4209Z" fill="url(#paint4_linear_428_4946)"/>
<path id="Vector_6" d="M136.021 48.9527V70.7907H51.6884L35.8501 59.8712L51.6884 48.9527H136.021ZM137.214 47.7598H51.3175L33.7489 59.8721L51.3175 71.9845H137.214V47.7598Z" fill="#FCFCFC"/>
<path id="Vector_7" d="M122.997 9.57812C122.997 9.57812 107.836 36.9013 43.1044 34.4935V38.676H132.195L153.298 24.1271L132.195 9.57812H122.997Z" fill="url(#paint5_linear_428_4946)"/>
<path id="Vector_8" d="M153.298 24.1266L132.339 38.5763L111.344 38.5127C130.831 37.801 140.12 24.8941 143.83 17.5986L153.298 24.1266Z" fill="url(#paint6_linear_428_4946)"/>
<path id="Vector_9" d="M131.066 13.2071L146.904 24.1266L131.066 35.046H46.7329V13.2071H131.066ZM131.437 12.0146H45.5403V36.2394H131.437L149.006 24.127L131.437 12.0146Z" fill="#FCFCFC"/>
<path id="Vector_10" d="M95.5417 38.6758H89.5075V41.2875H95.5417V38.6758Z" fill="url(#paint7_linear_428_4946)"/>
<path id="Vector_11" d="M95.5417 74.3955H89.5075V77.0072H95.5417V74.3955Z" fill="url(#paint8_linear_428_4946)"/>
<path id="Vector_12" d="M95.5417 74.3955H93.1918V140.138H95.5417V74.3955Z" fill="url(#paint9_linear_428_4946)"/>
<path id="Vector_13" d="M86.7222 61.5937C86.4478 61.4702 86.0843 61.4076 85.6375 61.4076H85.3535V54.9029C85.3535 53.866 84.8912 53.34 83.9785 53.34C83.703 53.3357 83.4369 53.44 83.2377 53.6304C83.0452 53.8134 82.7974 54.1057 82.5006 54.505L77.9923 60.5381C77.867 60.7027 77.7637 60.8418 77.6768 60.9552C77.5899 61.0686 77.5067 61.1908 77.4271 61.3129C77.3509 61.4273 77.2882 61.5501 77.2401 61.6788C77.1983 61.7927 77.1765 61.9129 77.1756 62.0342C77.1756 62.4761 77.3206 62.8315 77.6068 63.0903C77.8931 63.3492 78.3165 63.4778 78.8739 63.4778H83.063V64.9785C83.063 65.4231 83.1687 65.7661 83.3776 65.9989C83.5866 66.2318 83.8678 66.3539 84.2085 66.3539C84.5492 66.3539 84.835 66.2377 85.043 66.0081C85.2511 65.7785 85.3535 65.434 85.3535 64.9785V63.4778H85.7907C86.237 63.4778 86.579 63.3968 86.8077 63.2372C87.0455 63.0716 87.1657 62.8072 87.1657 62.4509C87.1657 62.015 87.0166 61.7264 86.7222 61.5937ZM83.0639 56.791V61.4053H79.6499L83.0639 56.791Z" fill="#FCFCFC"/>
<path id="Vector_14" d="M95.4246 54.553C95.0609 54.1826 94.6239 53.8922 94.1415 53.7004C93.6245 53.5013 93.0744 53.4026 92.5205 53.4095C91.6233 53.4095 90.8395 53.6304 90.1884 54.0659C89.5372 54.5013 89.0383 55.1426 88.6986 55.9723C88.5042 56.4695 88.3593 57.0701 88.2683 57.7612C88.1721 58.5325 88.1263 59.3093 88.1311 60.0866C88.1282 60.7096 88.1696 61.332 88.255 61.9491C88.3292 62.4885 88.4607 63.0184 88.6473 63.5299C88.9972 64.4026 89.5267 65.0965 90.2199 65.5914C90.8667 66.043 91.6288 66.3007 92.4168 66.3345C93.2048 66.3683 93.9862 66.1767 94.6692 65.7822C95.2911 65.4162 95.8046 64.8829 96.1961 64.2032C96.5144 63.6288 96.7309 63.0036 96.8363 62.3553C96.9497 61.6848 97.0073 60.8724 97.0073 59.9421C97.0073 58.225 96.7873 56.8775 96.3534 55.9334C96.1252 55.4235 95.811 54.9565 95.4246 54.553ZM90.8226 62.4463C90.6996 61.7735 90.637 60.8967 90.637 59.8392C90.637 58.284 90.7824 57.1209 91.0695 56.3794C91.3508 55.6531 91.8364 55.2999 92.5543 55.2999C93.0491 55.2999 93.4405 55.461 93.7176 55.7784C94.0016 56.1031 94.2069 56.5944 94.3286 57.2375C94.452 57.8906 94.5142 58.7432 94.5142 59.771C94.5142 60.856 94.4548 61.7447 94.3368 62.412C94.2211 63.0698 94.0167 63.5812 93.7332 63.9315C93.4497 64.2819 93.072 64.4461 92.5712 64.4461C92.0874 64.4461 91.7157 64.2846 91.4344 63.9516C91.1532 63.6187 90.9442 63.1064 90.8226 62.4445V62.4463Z" fill="#FCFCFC"/>
</g>
<path id="Vector_15" d="M107.43 61.5937C107.156 61.4702 106.792 61.4076 106.346 61.4076H106.062V54.9029C106.062 53.866 105.599 53.34 104.687 53.34C104.412 53.3356 104.145 53.4399 103.946 53.6304C103.754 53.8134 103.506 54.1057 103.209 54.505L98.7005 60.5381C98.5758 60.7027 98.4707 60.8418 98.3854 60.9552C98.2994 61.0705 98.2153 61.1908 98.1357 61.3129C98.0594 61.4272 97.9966 61.55 97.9487 61.6788C97.9067 61.7926 97.8849 61.9129 97.8842 62.0342C97.8842 62.4761 98.0292 62.8315 98.3154 63.0903C98.6017 63.3492 99.0251 63.4778 99.5825 63.4778H103.772V64.9785C103.772 65.4231 103.878 65.7661 104.086 65.9989C104.295 66.2318 104.577 66.3539 104.917 66.3539C105.257 66.3539 105.544 66.2377 105.752 66.0081C105.96 65.7785 106.063 65.4341 106.063 64.9785V63.4778H106.5C106.946 63.4778 107.288 63.3968 107.516 63.2372C107.754 63.0716 107.875 62.8072 107.875 62.4509C107.873 62.015 107.724 61.7264 107.43 61.5937ZM103.772 56.7911V61.4053H100.358L103.772 56.7911Z" fill="#FCFCFC"/>
<path id="Vector_16" d="M74.4675 21.2081H70.032V23.5957H74.1168C74.4174 23.5957 74.6418 23.6631 74.7899 23.7979C74.8635 23.8654 74.9215 23.9482 74.9599 24.0405C74.9983 24.1328 75.0161 24.2323 75.0122 24.3321C75.0157 24.4326 74.998 24.5326 74.9603 24.6258C74.9225 24.719 74.8656 24.8031 74.7931 24.8728C74.6474 25.0118 74.422 25.0815 74.1168 25.0818H70.032V27.8477H74.6207C74.9305 27.8477 75.1637 27.9195 75.3204 28.0631C75.4771 28.2067 75.5556 28.3979 75.5559 28.6367C75.5595 28.7416 75.5404 28.8461 75.4997 28.943C75.459 29.0398 75.3979 29.1266 75.3204 29.1975C75.1637 29.3411 74.9305 29.4129 74.6207 29.4129H69.2706C68.8417 29.4129 68.5333 29.3179 68.3455 29.1279C68.1577 28.938 68.0638 28.6306 68.0638 28.2058V20.8975C68.0638 20.6142 68.1058 20.3832 68.1896 20.2045C68.2689 20.0302 68.4093 19.8909 68.5842 19.813C68.7635 19.7313 68.9921 19.6904 69.2701 19.6904H74.4689C74.7829 19.6904 75.0163 19.76 75.169 19.899C75.2415 19.9712 75.2989 20.0571 75.3382 20.1516C75.3774 20.2461 75.3976 20.3474 75.3976 20.4497C75.3976 20.552 75.3774 20.6533 75.3382 20.7479C75.2989 20.8424 75.2415 20.9282 75.169 21.0004C75.0154 21.1389 74.7815 21.2081 74.4675 21.2081Z" fill="#FCFCFC"/>
<path id="Vector_17" d="M79.7651 25.256H79.0755V28.38C79.0755 28.7914 78.9841 29.0943 78.8012 29.2888C78.6183 29.4834 78.3818 29.5807 78.0919 29.5807C77.7779 29.5807 77.5348 29.479 77.3626 29.2756C77.1903 29.0722 77.1041 28.7737 77.1038 28.38V20.8979C77.1038 20.4734 77.1989 20.166 77.3891 19.9758C77.5793 19.7855 77.8865 19.6905 78.3105 19.6908H81.5114C81.8901 19.6875 82.2686 19.7063 82.645 19.7471C82.9382 19.7789 83.2247 19.8561 83.4942 19.9758C83.7978 20.1029 84.0728 20.2895 84.3031 20.5246C84.5365 20.7623 84.7182 21.0458 84.8368 21.3571C84.9596 21.6783 85.0216 22.0195 85.0197 22.3634C85.0197 23.0888 84.8153 23.6682 84.4065 24.1015C83.9977 24.5348 83.3776 24.8422 82.5463 25.0236C82.8953 25.2093 83.2291 25.4837 83.5477 25.8469C83.8644 26.2076 84.1494 26.5949 84.3996 27.0046C84.6209 27.359 84.8159 27.7291 84.9831 28.112C85.1227 28.4416 85.1924 28.6683 85.1921 28.7921C85.1896 28.9286 85.147 29.0612 85.0695 29.1736C84.9862 29.3009 84.8705 29.4038 84.7343 29.4718C84.5821 29.5475 84.4137 29.5852 84.2437 29.5816C84.0464 29.5883 83.8519 29.5338 83.6867 29.4256C83.5342 29.3192 83.4027 29.1853 83.2989 29.0309C83.1907 28.8717 83.0438 28.6374 82.8581 28.3279L82.0689 27.0142C81.786 26.5327 81.5329 26.1657 81.3098 25.9132C81.0866 25.6608 80.8614 25.488 80.6339 25.395C80.4044 25.3023 80.1148 25.256 79.7651 25.256ZM80.8923 21.17H79.0755V23.8431H80.8393C81.3124 23.8431 81.7104 23.802 82.0332 23.72C82.356 23.638 82.6025 23.4988 82.7726 23.3024C82.9427 23.1057 83.0278 22.8348 83.0278 22.4896C83.0326 22.2368 82.961 21.9885 82.8225 21.777C82.683 21.5693 82.4841 21.4086 82.2518 21.3159C82.0228 21.2187 81.57 21.17 80.8932 21.17H80.8923Z" fill="#FCFCFC"/>
<path id="Vector_18" d="M89.5339 25.256H88.8443V28.38C88.8443 28.7914 88.7529 29.0943 88.57 29.2888C88.387 29.4834 88.1506 29.5807 87.8607 29.5807C87.5464 29.5807 87.3025 29.479 87.1291 29.2756C86.9556 29.0722 86.8693 28.7737 86.8702 28.38V20.8979C86.8702 20.4734 86.9654 20.166 87.1556 19.9758C87.3458 19.7855 87.653 19.6905 88.077 19.6908H91.2802C91.6589 19.6875 92.0374 19.7063 92.4138 19.7471C92.707 19.7789 92.9934 19.8561 93.263 19.9758C93.5665 20.1029 93.8416 20.2895 94.0719 20.5246C94.3053 20.7623 94.487 21.0458 94.6055 21.3571C94.7283 21.6783 94.7904 22.0195 94.7885 22.3634C94.7885 23.0888 94.5841 23.6682 94.1752 24.1015C93.7664 24.5348 93.1464 24.8422 92.315 25.0236C92.6641 25.2093 92.9979 25.4837 93.3165 25.8469C93.6332 26.2076 93.9182 26.5949 94.1684 27.0046C94.3897 27.359 94.5847 27.7291 94.7519 28.112C94.8915 28.4416 94.9612 28.6683 94.9609 28.7921C94.9584 28.9286 94.9158 29.0612 94.8383 29.1736C94.7549 29.3009 94.6393 29.4038 94.5031 29.4718C94.3508 29.5475 94.1825 29.5852 94.0125 29.5816C93.8152 29.5883 93.6206 29.5338 93.4555 29.4256C93.3042 29.3186 93.1741 29.1845 93.0718 29.03C92.9636 28.8708 92.8165 28.6364 92.6306 28.3269L91.8418 27.0133C91.5586 26.5318 91.3054 26.1648 91.0822 25.9123C90.8591 25.6598 90.6326 25.4874 90.4027 25.395C90.1729 25.3023 89.8832 25.256 89.5339 25.256ZM90.6611 21.17H88.8443V23.8431H90.608C91.0812 23.8431 91.4791 23.802 91.802 23.72C92.1248 23.638 92.3713 23.4988 92.5414 23.3024C92.7121 23.1057 92.7975 22.8347 92.7975 22.4892C92.8023 22.2364 92.7307 21.988 92.5922 21.7765C92.4523 21.5688 92.2529 21.4083 92.0201 21.3159C91.7906 21.2187 91.3375 21.17 90.6611 21.17Z" fill="#FCFCFC"/>
<path id="Vector_19" d="M100.933 19.5254C101.941 19.5254 102.807 19.73 103.529 20.1392C104.243 20.5381 104.816 21.1473 105.17 21.8837C105.542 22.6375 105.727 23.5229 105.727 24.5399C105.727 25.2918 105.626 25.975 105.422 26.5895C105.233 27.1804 104.921 27.725 104.508 28.1881C104.094 28.6438 103.582 28.998 103.009 29.2232C102.417 29.4619 101.738 29.5813 100.973 29.5813C100.208 29.5813 99.5275 29.4593 98.9309 29.2154C98.3566 28.9885 97.8417 28.6334 97.4256 28.1771C97.0116 27.71 96.7009 27.1607 96.5138 26.5652C96.3037 25.9071 96.1996 25.2197 96.2056 24.5289C96.2056 23.7821 96.3123 23.0968 96.5257 22.4729C96.7207 21.8824 97.0383 21.3398 97.4576 20.8807C97.8708 20.4379 98.3785 20.094 98.9428 19.8744C99.5269 19.642 100.19 19.5257 100.933 19.5254ZM103.731 24.5266C103.731 23.8149 103.616 23.198 103.387 22.676C103.157 22.1539 102.828 21.7593 102.4 21.4922C101.973 21.2245 101.484 21.0908 100.931 21.0911C100.556 21.0874 100.184 21.163 99.8405 21.3129C99.5078 21.4603 99.213 21.6814 98.9785 21.9597C98.7377 22.2429 98.5476 22.6044 98.4083 23.0442C98.263 23.5247 98.1925 24.0246 98.1993 24.5266C98.1927 25.0341 98.2632 25.5396 98.4083 26.0259C98.5473 26.4724 98.7439 26.8427 98.9982 27.137C99.237 27.4195 99.5361 27.645 99.8734 27.797C100.27 27.9646 100.7 28.0375 101.129 28.0099C101.559 27.9823 101.976 27.8549 102.347 27.6378C102.769 27.3859 103.105 26.9967 103.353 26.4701C103.602 25.9435 103.728 25.2956 103.731 24.5266Z" fill="#FCFCFC"/>
<path id="Vector_20" d="M110.058 25.256H109.368V28.38C109.368 28.7914 109.277 29.0943 109.094 29.2888C108.911 29.4834 108.674 29.5807 108.384 29.5807C108.071 29.5807 107.827 29.479 107.655 29.2756C107.482 29.0722 107.396 28.7737 107.396 28.38V20.8979C107.396 20.4734 107.491 20.166 107.681 19.9758C107.872 19.7855 108.179 19.6905 108.603 19.6908H111.804C112.183 19.6875 112.562 19.7063 112.938 19.7471C113.231 19.779 113.518 19.8561 113.787 19.9758C114.091 20.1028 114.366 20.2894 114.596 20.5246C114.83 20.7622 115.011 21.0456 115.13 21.3571C115.253 21.6783 115.315 22.0195 115.313 22.3634C115.313 23.0888 115.109 23.6682 114.7 24.1015C114.291 24.5348 113.671 24.8422 112.84 25.0236C113.189 25.2093 113.523 25.4837 113.841 25.8469C114.158 26.2077 114.443 26.595 114.693 27.0046C114.914 27.3591 115.109 27.7292 115.277 28.112C115.416 28.4416 115.485 28.6683 115.486 28.7921C115.483 28.9286 115.44 29.0613 115.363 29.1736C115.279 29.3008 115.164 29.4037 115.028 29.4718C114.876 29.5475 114.707 29.5851 114.537 29.5816C114.34 29.5884 114.145 29.5339 113.98 29.4256C113.828 29.3193 113.696 29.1854 113.592 29.0309C113.484 28.8717 113.337 28.6374 113.151 28.3279L112.362 27.0142C112.079 26.5327 111.826 26.1657 111.603 25.9132C111.38 25.6608 111.153 25.4883 110.923 25.3959C110.696 25.3026 110.407 25.256 110.058 25.256ZM111.185 21.17H109.368V23.8431H111.134C111.607 23.8431 112.005 23.802 112.328 23.72C112.651 23.638 112.897 23.4988 113.067 23.3024C113.237 23.1057 113.323 22.8348 113.323 22.4896C113.327 22.2368 113.256 21.9884 113.117 21.777C112.978 21.5694 112.779 21.4087 112.547 21.3159C112.315 21.2187 111.862 21.17 111.185 21.17Z" fill="#FCFCFC"/>
<path id="Vector_21" d="M144.01 138.864H39.8485C39.7013 138.864 39.5819 138.984 39.5819 139.131V141.146C39.5819 141.293 39.7013 141.413 39.8485 141.413H144.01C144.157 141.413 144.276 141.293 144.276 141.146V139.131C144.276 138.984 144.157 138.864 144.01 138.864Z" fill="url(#paint10_linear_428_4946)"/>
<path id="Vector_22" d="M43.7637 138.864H25.2385C25.0913 138.864 24.9719 138.984 24.9719 139.131V141.146C24.9719 141.293 25.0913 141.413 25.2385 141.413H43.7637C43.9109 141.413 44.0303 141.293 44.0303 141.146V139.131C44.0303 138.984 43.9109 138.864 43.7637 138.864Z" fill="url(#paint11_linear_428_4946)"/>
<path id="Vector_23" d="M19.6295 138.864H0.26659C0.119355 138.864 0 138.984 0 139.131V141.146C0 141.293 0.119355 141.413 0.26659 141.413H19.6295C19.7768 141.413 19.8961 141.293 19.8961 141.146V139.131C19.8961 138.984 19.7768 138.864 19.6295 138.864Z" fill="url(#paint12_linear_428_4946)"/>
<path id="Vector_24" d="M166.07 138.864H149.821C149.674 138.864 149.554 138.984 149.554 139.131V141.146C149.554 141.293 149.674 141.413 149.821 141.413H166.07C166.217 141.413 166.337 141.293 166.337 141.146V139.131C166.337 138.984 166.217 138.864 166.07 138.864Z" fill="url(#paint13_linear_428_4946)"/>
<path id="Vector_25" d="M184.725 138.864H171.892C171.745 138.864 171.626 138.984 171.626 139.131V141.146C171.626 141.293 171.745 141.413 171.892 141.413H184.725C184.872 141.413 184.991 141.293 184.991 141.146V139.131C184.991 138.984 184.872 138.864 184.725 138.864Z" fill="url(#paint14_linear_428_4946)"/>
<path id="Vector_26" d="M136.779 127.599H133.102V138.852H136.779V127.599Z" fill="url(#paint15_linear_428_4946)"/>
<path id="Vector_27" d="M136.779 127.613H133.087V128.893H136.779V127.613Z" fill="url(#paint16_linear_428_4946)"/>
<path id="Vector_28" d="M156.47 97.6632V115.303L144.001 127.776H126.366L113.896 115.303V97.6632L126.366 85.1904H144.001L156.47 97.6632Z" fill="url(#paint17_linear_428_4946)"/>
<path id="Vector_29" d="M156.47 97.6637V115.303L144.001 127.776H126.366L118.023 119.43C149.38 124.053 149.705 90.8965 149.705 90.8965L156.47 97.6637Z" fill="url(#paint18_linear_428_4946)"/>
<path id="Vector_30" d="M156.47 106.483C156.47 106.483 150.476 128.748 126.366 127.776H144.001L156.47 115.303V106.483Z" fill="url(#paint19_linear_428_4946)"/>
<path id="Vector_31" d="M154.401 98.5214V114.446L143.144 125.707H127.223L115.965 114.446V98.5214L127.223 87.2607H143.144L154.401 98.5214Z" stroke="#FCFCFC" stroke-width="7" stroke-miterlimit="10"/>
<path id="Vector_32" d="M136.779 127.599H135.303V138.852H136.779V127.599Z" fill="url(#paint20_linear_428_4946)"/>
<path id="Vector_33" d="M130.477 107.9C130.255 107.8 129.959 107.75 129.597 107.75H129.369V102.472C129.369 101.631 128.993 101.204 128.253 101.204C128.03 101.201 127.814 101.285 127.652 101.44C127.496 101.587 127.295 101.825 127.054 102.149L123.396 107.043C123.295 107.177 123.21 107.29 123.141 107.382C123.071 107.476 123.003 107.573 122.938 107.672C122.876 107.765 122.825 107.865 122.786 107.969C122.752 108.061 122.735 108.159 122.734 108.257C122.734 108.616 122.852 108.904 123.084 109.114C123.316 109.325 123.66 109.428 124.112 109.428H127.51V110.646C127.51 111.007 127.596 111.286 127.765 111.474C127.85 111.568 127.954 111.643 128.071 111.693C128.187 111.742 128.313 111.766 128.439 111.762C128.72 111.762 128.948 111.668 129.117 111.481C129.285 111.294 129.369 111.016 129.369 110.646V109.428H129.723C130.085 109.428 130.364 109.363 130.547 109.233C130.74 109.099 130.837 108.884 130.837 108.595C130.836 108.242 130.714 108.008 130.477 107.9ZM127.508 104.006V107.749H124.739L127.508 104.006Z" fill="#FCFCFC"/>
<path id="Vector_34" d="M137.536 102.187C137.241 101.886 136.887 101.651 136.495 101.495C136.076 101.334 135.629 101.254 135.18 101.259C134.452 101.259 133.816 101.438 133.289 101.791C132.763 102.145 132.357 102.665 132.081 103.338C131.923 103.742 131.806 104.23 131.732 104.79C131.654 105.415 131.617 106.046 131.621 106.676C131.618 107.181 131.652 107.685 131.722 108.185C131.783 108.623 131.89 109.052 132.042 109.466C132.326 110.175 132.755 110.737 133.318 111.139C133.842 111.505 134.461 111.714 135.1 111.742C135.739 111.769 136.373 111.614 136.927 111.294C137.445 110.982 137.872 110.541 138.167 110.013C138.424 109.547 138.6 109.04 138.685 108.514C138.776 107.97 138.822 107.311 138.822 106.556C138.822 105.163 138.644 104.069 138.291 103.304C138.105 102.891 137.85 102.513 137.536 102.187ZM133.802 108.59C133.703 108.045 133.652 107.333 133.652 106.476C133.652 105.215 133.77 104.271 134.003 103.669C134.231 103.08 134.625 102.794 135.207 102.794C135.609 102.794 135.926 102.924 136.151 103.182C136.377 103.439 136.548 103.843 136.647 104.365C136.747 104.895 136.798 105.587 136.798 106.421C136.798 107.301 136.749 108.022 136.654 108.563C136.559 109.097 136.394 109.512 136.163 109.798C135.932 110.085 135.627 110.215 135.221 110.215C134.829 110.215 134.527 110.084 134.299 109.814C134.07 109.544 133.901 109.129 133.802 108.59Z" fill="#FCFCFC"/>
<path id="Vector_35" d="M147.276 107.9C147.054 107.8 146.758 107.75 146.396 107.75H146.167V102.472C146.167 101.631 145.792 101.204 145.052 101.204C144.828 101.201 144.612 101.285 144.451 101.44C144.294 101.587 144.093 101.825 143.853 102.149L140.195 107.043C140.094 107.177 140.009 107.29 139.939 107.382C139.869 107.476 139.802 107.573 139.737 107.672C139.675 107.765 139.624 107.865 139.585 107.969C139.551 108.061 139.533 108.159 139.533 108.257C139.533 108.616 139.65 108.904 139.882 109.114C140.115 109.325 140.458 109.428 140.91 109.428H144.309V110.646C144.309 111.007 144.395 111.286 144.564 111.474C144.649 111.568 144.753 111.643 144.869 111.693C144.986 111.742 145.112 111.766 145.238 111.762C145.519 111.762 145.747 111.668 145.915 111.481C146.084 111.294 146.167 111.016 146.167 110.646V109.428H146.522C146.884 109.428 147.162 109.363 147.345 109.233C147.538 109.099 147.636 108.884 147.636 108.595C147.636 108.242 147.514 108.008 147.276 107.9ZM144.307 104.006V107.749H141.537L144.307 104.006Z" fill="#FCFCFC"/>
<path id="Vector_36" d="M64.1829 135.76H40.9578L41.3803 134.23L42.2057 131.242L42.7055 129.433L43.4422 126.765L44.8625 121.623L45.5996 118.955L50.7792 100.202H54.362L56.2601 107.075L59.5415 118.955L60.2782 121.623L61.6985 126.765L62.4356 129.433L63.7604 134.23L64.1829 135.76Z" fill="url(#paint21_linear_428_4946)"/>
<path id="Vector_37" d="M64.1829 135.76H40.9578L41.3803 134.23L42.2057 131.242C58.3901 130.286 56.2601 107.075 56.2601 107.075L63.7604 134.231L64.1829 135.76Z" fill="url(#paint22_linear_428_4946)"/>
<path id="Vector_38" d="M68.9349 135.761H36.2058V138.873H68.9349V135.761Z" fill="url(#paint23_linear_428_4946)"/>
<path id="Vector_39" d="M64.1829 135.761H40.9578L41.3803 134.23H63.7604L64.1829 135.761Z" fill="url(#paint24_linear_428_4946)"/>
<path id="Vector_40" d="M60.2783 121.623C60.2783 121.623 59.7917 131.89 47.999 134.239L63.7604 134.231L60.2783 121.623Z" fill="url(#paint25_linear_428_4946)"/>
<path id="Vector_41" d="M60.2782 121.624H44.8625L45.5996 118.956H59.5416L60.2782 121.624Z" fill="#FCFCFC"/>
<path id="Vector_42" d="M62.4356 129.433H42.7055L43.4422 126.766H61.6985L62.4356 129.433Z" fill="#FCFCFC"/>
<path id="Vector_43" d="M61.3647 135.761C61.3647 135.761 57.0265 139.037 40.9578 138.873H68.9349V135.761H61.3647Z" fill="url(#paint26_linear_428_4946)"/>
</g>
<defs>
<linearGradient id="paint0_linear_428_4946" x1="89.5075" y1="70.9791" x2="95.5417" y2="70.9791" gradientUnits="userSpaceOnUse">
<stop stop-color="#FC1B7C"/>
<stop offset="0.5" stop-color="#714CF4"/>
<stop offset="1" stop-color="#0084F3"/>
</linearGradient>
<linearGradient id="paint1_linear_428_4946" x1="43.1044" y1="24.3158" x2="153.298" y2="24.3158" gradientUnits="userSpaceOnUse">
<stop stop-color="#FC1B7C"/>
<stop offset="0.5" stop-color="#714CF4"/>
<stop offset="1" stop-color="#0084F3"/>
</linearGradient>
<linearGradient id="paint2_linear_428_4946" x1="29.4565" y1="60.0611" x2="139.65" y2="60.0611" gradientUnits="userSpaceOnUse">
<stop stop-color="#FC1B7C"/>
<stop offset="0.5" stop-color="#714CF4"/>
<stop offset="1" stop-color="#0084F3"/>
</linearGradient>
<linearGradient id="paint3_linear_428_4946" x1="44.2471" y1="60.0487" x2="139.65" y2="60.0487" gradientUnits="userSpaceOnUse">
<stop stop-color="#FC1B7C"/>
<stop offset="0.5" stop-color="#714CF4"/>
<stop offset="1" stop-color="#0084F3"/>
</linearGradient>
<linearGradient id="paint4_linear_428_4946" x1="105.091" y1="61.5897" x2="139.65" y2="61.5897" gradientUnits="userSpaceOnUse">
<stop stop-color="#FC1B7C"/>
<stop offset="0.5" stop-color="#714CF4"/>
<stop offset="1" stop-color="#0084F3"/>
</linearGradient>
<linearGradient id="paint5_linear_428_4946" x1="43.1044" y1="24.316" x2="153.298" y2="24.316" gradientUnits="userSpaceOnUse">
<stop stop-color="#FC1B7C"/>
<stop offset="0.5" stop-color="#714CF4"/>
<stop offset="1" stop-color="#0084F3"/>
</linearGradient>
<linearGradient id="paint6_linear_428_4946" x1="111.344" y1="28.2237" x2="153.298" y2="28.2237" gradientUnits="userSpaceOnUse">
<stop stop-color="#FC1B7C"/>
<stop offset="0.5" stop-color="#714CF4"/>
<stop offset="1" stop-color="#0084F3"/>
</linearGradient>
<linearGradient id="paint7_linear_428_4946" x1="89.5075" y1="39.9986" x2="95.5417" y2="39.9986" gradientUnits="userSpaceOnUse">
<stop stop-color="#FC1B7C"/>
<stop offset="0.5" stop-color="#714CF4"/>
<stop offset="1" stop-color="#0084F3"/>
</linearGradient>
<linearGradient id="paint8_linear_428_4946" x1="89.5075" y1="75.7183" x2="95.5417" y2="75.7183" gradientUnits="userSpaceOnUse">
<stop stop-color="#FC1B7C"/>
<stop offset="0.5" stop-color="#714CF4"/>
<stop offset="1" stop-color="#0084F3"/>
</linearGradient>
<linearGradient id="paint9_linear_428_4946" x1="93.1918" y1="107.694" x2="95.5417" y2="107.694" gradientUnits="userSpaceOnUse">
<stop stop-color="#FC1B7C"/>
<stop offset="0.5" stop-color="#714CF4"/>
<stop offset="1" stop-color="#0084F3"/>
</linearGradient>
<linearGradient id="paint10_linear_428_4946" x1="39.5819" y1="140.155" x2="144.276" y2="140.155" gradientUnits="userSpaceOnUse">
<stop stop-color="#FC1B7C"/>
<stop offset="0.5" stop-color="#714CF4"/>
<stop offset="1" stop-color="#0084F3"/>
</linearGradient>
<linearGradient id="paint11_linear_428_4946" x1="24.9719" y1="140.155" x2="44.0303" y2="140.155" gradientUnits="userSpaceOnUse">
<stop stop-color="#FC1B7C"/>
<stop offset="0.5" stop-color="#714CF4"/>
<stop offset="1" stop-color="#0084F3"/>
</linearGradient>
<linearGradient id="paint12_linear_428_4946" x1="3.65031e-09" y1="140.155" x2="19.8961" y2="140.155" gradientUnits="userSpaceOnUse">
<stop stop-color="#FC1B7C"/>
<stop offset="0.5" stop-color="#714CF4"/>
<stop offset="1" stop-color="#0084F3"/>
</linearGradient>
<linearGradient id="paint13_linear_428_4946" x1="149.554" y1="140.155" x2="166.337" y2="140.155" gradientUnits="userSpaceOnUse">
<stop stop-color="#FC1B7C"/>
<stop offset="0.5" stop-color="#714CF4"/>
<stop offset="1" stop-color="#0084F3"/>
</linearGradient>
<linearGradient id="paint14_linear_428_4946" x1="171.626" y1="140.155" x2="184.991" y2="140.155" gradientUnits="userSpaceOnUse">
<stop stop-color="#FC1B7C"/>
<stop offset="0.5" stop-color="#714CF4"/>
<stop offset="1" stop-color="#0084F3"/>
</linearGradient>
<linearGradient id="paint15_linear_428_4946" x1="133.102" y1="133.298" x2="136.779" y2="133.298" gradientUnits="userSpaceOnUse">
<stop stop-color="#FC1B7C"/>
<stop offset="0.5" stop-color="#714CF4"/>
<stop offset="1" stop-color="#0084F3"/>
</linearGradient>
<linearGradient id="paint16_linear_428_4946" x1="133.087" y1="128.261" x2="136.779" y2="128.261" gradientUnits="userSpaceOnUse">
<stop stop-color="#FC1B7C"/>
<stop offset="0.5" stop-color="#714CF4"/>
<stop offset="1" stop-color="#0084F3"/>
</linearGradient>
<linearGradient id="paint17_linear_428_4946" x1="113.896" y1="106.76" x2="156.47" y2="106.76" gradientUnits="userSpaceOnUse">
<stop stop-color="#FC1B7C"/>
<stop offset="0.5" stop-color="#714CF4"/>
<stop offset="1" stop-color="#0084F3"/>
</linearGradient>
<linearGradient id="paint18_linear_428_4946" x1="118.023" y1="109.576" x2="156.47" y2="109.576" gradientUnits="userSpaceOnUse">
<stop stop-color="#FC1B7C"/>
<stop offset="0.5" stop-color="#714CF4"/>
<stop offset="1" stop-color="#0084F3"/>
</linearGradient>
<linearGradient id="paint19_linear_428_4946" x1="126.366" y1="117.284" x2="156.47" y2="117.284" gradientUnits="userSpaceOnUse">
<stop stop-color="#FC1B7C"/>
<stop offset="0.5" stop-color="#714CF4"/>
<stop offset="1" stop-color="#0084F3"/>
</linearGradient>
<linearGradient id="paint20_linear_428_4946" x1="135.303" y1="133.298" x2="136.779" y2="133.298" gradientUnits="userSpaceOnUse">
<stop stop-color="#FC1B7C"/>
<stop offset="0.5" stop-color="#714CF4"/>
<stop offset="1" stop-color="#0084F3"/>
</linearGradient>
<linearGradient id="paint21_linear_428_4946" x1="40.9578" y1="118.212" x2="64.1829" y2="118.212" gradientUnits="userSpaceOnUse">
<stop stop-color="#FC1B7C"/>
<stop offset="0.5" stop-color="#714CF4"/>
<stop offset="1" stop-color="#0084F3"/>
</linearGradient>
<linearGradient id="paint22_linear_428_4946" x1="40.9578" y1="121.604" x2="64.1829" y2="121.604" gradientUnits="userSpaceOnUse">
<stop stop-color="#FC1B7C"/>
<stop offset="0.5" stop-color="#714CF4"/>
<stop offset="1" stop-color="#0084F3"/>
</linearGradient>
<linearGradient id="paint23_linear_428_4946" x1="36.2058" y1="137.337" x2="68.9349" y2="137.337" gradientUnits="userSpaceOnUse">
<stop stop-color="#FC1B7C"/>
<stop offset="0.5" stop-color="#714CF4"/>
<stop offset="1" stop-color="#0084F3"/>
</linearGradient>
<linearGradient id="paint24_linear_428_4946" x1="40.9578" y1="135.006" x2="64.1829" y2="135.006" gradientUnits="userSpaceOnUse">
<stop stop-color="#FC1B7C"/>
<stop offset="0.5" stop-color="#714CF4"/>
<stop offset="1" stop-color="#0084F3"/>
</linearGradient>
<linearGradient id="paint25_linear_428_4946" x1="47.999" y1="128.013" x2="63.7604" y2="128.013" gradientUnits="userSpaceOnUse">
<stop stop-color="#FC1B7C"/>
<stop offset="0.5" stop-color="#714CF4"/>
<stop offset="1" stop-color="#0084F3"/>
</linearGradient>
<linearGradient id="paint26_linear_428_4946" x1="40.9578" y1="137.34" x2="68.9349" y2="137.34" gradientUnits="userSpaceOnUse">
<stop stop-color="#FC1B7C"/>
<stop offset="0.5" stop-color="#714CF4"/>
<stop offset="1" stop-color="#0084F3"/>
</linearGradient>
</defs>
</svg>
