<svg xmlns="http://www.w3.org/2000/svg" width="48" height="48" viewBox="0 0 32 24" fill="none">
    <path d="M9.99994 13.0804C11.7004 13.0804 13.079 11.7019 13.079 10.0014C13.079 8.3009 11.7004 6.92236 9.99994 6.92236C8.29943 6.92236 6.9209 8.3009 6.9209 10.0014C6.9209 11.7019 8.29943 13.0804 9.99994 13.0804Z" fill="#9E9E9E"/>
    <path d="M19.6932 9.14873C17.3265 6.28869 13.7438 3.53564 10 3.53564C6.25554 3.53564 2.67205 6.29061 0.306845 9.14873C-0.102282 9.64291 -0.102282 10.3603 0.306845 10.8545C0.901484 11.5731 2.14811 12.9602 3.8131 14.1722C8.00632 17.2247 11.9845 17.2315 16.187 14.1722C17.852 12.9602 19.0986 11.5731 19.6932 10.8545C20.1012 10.3613 20.1033 9.64453 19.6932 9.14873ZM10 5.69097C12.3771 5.69097 14.3107 7.62461 14.3107 10.0016C14.3107 12.3786 12.3771 14.3123 10 14.3123C7.62302 14.3123 5.68939 12.3786 5.68939 10.0016C5.68939 7.62461 7.62302 5.69097 10 5.69097Z" fill="#9E9E9E"/>
</svg>