<svg width="23" height="22" viewBox="0 0 23 22" fill="none" xmlns="http://www.w3.org/2000/svg">
<g id="Group">
<path id="Exclude" d="M17.3765 1.79071L17.1379 2.50178L17.1446 2.50396L17.3765 1.79071ZM15.5165 1.50071L15.5111 2.25071H15.5165V1.50071ZM21.2865 10.5807L21.9947 10.8274L21.9986 10.8164L22.002 10.8053L21.2865 10.5807ZM18.2775 15.3897L18.7993 15.9285L18.8078 15.92L18.2775 15.3897ZM11.9465 20.3497L12.3343 20.9918L12.3448 20.9852L11.9465 20.3497ZM11.6965 20.5007L11.3016 21.1384L11.6916 21.3798L12.0842 21.1427L11.6965 20.5007ZM11.4365 20.3397L11.0411 20.977L11.0416 20.9774L11.4365 20.3397ZM5.06746 15.3797L4.53536 15.9083L4.541 15.9139L4.54677 15.9195L5.06746 15.3797ZM2.05646 10.5807L1.34198 10.8088L1.34552 10.8199L1.3494 10.8309L2.05646 10.5807ZM5.98746 1.76971L6.22076 2.4826L6.23195 2.47874L5.98746 1.76971ZM6.87646 1.56071V0.810709H6.82791L6.77977 0.816967L6.87646 1.56071ZM6.99646 1.56071V2.31071H7.05089L7.10474 2.30285L6.99646 1.56071ZM7.94646 1.50071L7.96907 0.75105L7.95777 0.750709H7.94646V1.50071ZM9.77746 1.83071L9.53597 2.54077L9.65341 2.58071H9.77746V1.83071ZM9.83646 1.83071L10.1583 1.15325L10.0055 1.08071H9.83646V1.83071ZM9.92646 1.88971L9.4099 2.43346L9.53404 2.55139L9.69706 2.60376L9.92646 1.88971ZM10.5565 2.15071L10.195 2.80787L10.222 2.82273L10.2502 2.83532L10.5565 2.15071ZM10.9365 2.32071L11.2894 1.65894L11.2665 1.64671L11.2427 1.6361L10.9365 2.32071ZM11.2204 2.50918L10.7798 3.11609L10.7798 3.11609L11.2204 2.50918ZM11.3665 2.61071L10.9759 3.25106L10.9854 3.25666L11.3665 2.61071ZM11.4161 2.63978L11.038 3.28749L11.038 3.2875L11.4161 2.63978ZM11.6665 2.79971L11.2101 3.39491L11.6657 3.74419L12.1218 3.39563L11.6665 2.79971ZM18.9665 7.93971L19.7146 7.99302L19.7165 7.9664V7.93971H18.9665ZM18.1765 8.70071L18.1052 9.44732L18.1508 9.45167L18.1966 9.45044L18.1765 8.70071ZM18.9665 7.82071L18.2166 7.80465L18.2165 7.81268V7.82071H18.9665ZM16.8565 4.66071L17.1226 3.95952L17.1115 3.95532L17.1004 3.95148L16.8565 4.66071ZM15.8465 5.16071L15.1402 4.90846L15.1375 4.91597L15.1349 4.92354L15.8465 5.16071ZM16.3465 6.18971L16.6095 5.48722L16.5972 5.48287L16.3465 6.18971ZM17.4165 7.79071L18.1639 7.85272L18.1665 7.82177V7.79071H17.4165ZM17.6151 1.07967C16.9291 0.849494 16.2172 0.750709 15.5165 0.750709V2.25071C16.0777 2.25071 16.6258 2.32992 17.1379 2.50175L17.6151 1.07967ZM22.002 10.8053C23.1972 6.9972 21.8036 2.44141 17.6083 1.07746L17.1446 2.50396C20.3313 3.54 21.5977 7.08422 20.5709 10.3561L22.002 10.8053ZM18.8078 15.92C20.2378 14.49 21.3281 12.7417 21.9947 10.8274L20.5782 10.334C19.9849 12.0377 19.0151 13.5914 17.7471 14.8594L18.8078 15.92ZM12.3448 20.9852C14.6701 19.5274 16.8305 17.835 18.7992 15.9285L17.7557 14.8509C15.8624 16.6844 13.7848 18.312 11.5481 19.7143L12.3448 20.9852ZM12.0842 21.1427L12.3342 20.9917L11.5587 19.7077L11.3087 19.8587L12.0842 21.1427ZM11.0416 20.9774L11.3016 21.1384L12.0913 19.8631L11.8313 19.7021L11.0416 20.9774ZM4.54677 15.9195C6.5337 17.8361 8.70666 19.5289 11.0411 20.977L11.8318 19.7024C9.58826 18.3106 7.49922 16.6833 5.58815 14.8399L4.54677 15.9195ZM1.3494 10.8309C2.02622 12.7439 3.11677 14.4801 4.53536 15.9083L5.59956 14.8512C4.33815 13.5813 3.3667 12.0355 2.76351 10.3306L1.3494 10.8309ZM5.75419 1.05691C1.52337 2.44148 0.124358 6.99429 1.34198 10.8088L2.77094 10.3526C1.72856 7.08713 2.98955 3.53994 6.22073 2.48251L5.75419 1.05691ZM6.77977 0.816967C6.42946 0.862509 6.08093 0.944139 5.74297 1.06068L6.23195 2.47874C6.47399 2.39528 6.72346 2.33691 6.97315 2.30445L6.77977 0.816967ZM6.99646 0.810709H6.87646V2.31071H6.99646V0.810709ZM7.83646 0.750709C7.52221 0.750709 7.20695 0.772055 6.88818 0.818567L7.10474 2.30285C7.34797 2.26736 7.5907 2.25071 7.83646 2.25071V0.750709ZM7.94646 0.750709H7.83646V2.25071H7.94646V0.750709ZM10.019 1.12065C9.35674 0.895433 8.67293 0.772278 7.96907 0.75105L7.92385 2.25037C8.47999 2.26714 9.01618 2.36398 9.53597 2.54077L10.019 1.12065ZM9.83646 1.08071H9.77746V2.58071H9.83646V1.08071ZM10.443 1.34595C10.356 1.2633 10.2569 1.20009 10.1583 1.15325L9.51467 2.50817C9.49606 2.49933 9.45691 2.47812 9.4099 2.43346L10.443 1.34595ZM10.9179 1.49355C10.6595 1.35141 10.4005 1.25426 10.1559 1.17565L9.69706 2.60376C9.89437 2.66716 10.0534 2.73 10.195 2.80787L10.9179 1.49355ZM11.2427 1.6361L10.8627 1.4661L10.2502 2.83532L10.6302 3.00532L11.2427 1.6361ZM11.6611 1.90227C11.5839 1.84623 11.4362 1.73724 11.2894 1.65894L10.5835 2.98247C10.6203 3.00212 10.6788 3.04279 10.7798 3.11609L11.6611 1.90227ZM11.757 1.97043C11.7584 1.97124 11.7515 1.96701 11.7315 1.95293C11.7124 1.93952 11.6904 1.92359 11.6611 1.90227L10.7798 3.11609C10.8259 3.14958 10.9053 3.20791 10.9759 3.25099L11.757 1.97043ZM11.7942 1.99206C11.7772 1.98214 11.7621 1.97334 11.7476 1.96475L10.9854 3.25666C11.0034 3.26733 11.0215 3.2779 11.038 3.28749L11.7942 1.99206ZM12.1228 2.2045C12.0031 2.11276 11.8709 2.03682 11.7942 1.99206L11.038 3.2875C11.1328 3.34284 11.1792 3.37118 11.2101 3.39491L12.1228 2.2045ZM15.5219 0.750728C13.9617 0.739504 12.4513 1.25604 11.2111 2.20379L12.1218 3.39563C13.1036 2.64538 14.2913 2.24191 15.5111 2.25069L15.5219 0.750728ZM18.2184 7.8864C18.2173 7.90133 18.2108 7.91744 18.1957 7.93187C18.1799 7.94695 18.1647 7.95075 18.1563 7.95098L18.1966 9.45044C18.9919 9.4291 19.6571 8.79919 19.7146 7.99302L18.2184 7.8864ZM18.2165 7.82071V7.93971H19.7165V7.82071H18.2165ZM16.5903 5.3619C17.5796 5.73739 18.24 6.71569 18.2166 7.80465L19.7163 7.83677C19.753 6.12372 18.7153 4.56403 17.1226 3.95952L16.5903 5.3619ZM16.5528 5.41296C16.5607 5.39065 16.5739 5.3788 16.586 5.3728C16.598 5.36688 16.606 5.36767 16.6126 5.36994L17.1004 3.95148C16.2881 3.67215 15.4233 4.11551 15.1402 4.90846L16.5528 5.41296ZM16.5972 5.48287C16.5672 5.4722 16.5456 5.43512 16.558 5.39788L15.1349 4.92354C14.8674 5.7263 15.2858 6.60921 16.0957 6.89655L16.5972 5.48287ZM18.1665 7.75971C18.1665 6.75818 17.5528 5.84055 16.6094 5.48733L16.0835 6.89209C16.4221 7.01887 16.6665 7.36323 16.6665 7.75971H18.1665ZM18.1665 7.79071V7.75971H16.6665V7.79071H18.1665ZM18.1854 7.93393C18.1725 7.91831 18.1607 7.89171 18.1639 7.85272L16.669 7.72869C16.6343 8.14771 16.7604 8.56311 17.0275 8.88749L18.1854 7.93393ZM18.2477 7.9541C18.2253 7.95196 18.2076 7.9461 18.1962 7.94042C18.1853 7.935 18.1834 7.93149 18.1854 7.93393L17.0275 8.88749C17.3114 9.23226 17.7156 9.41013 18.1052 9.44732L18.2477 7.9541Z" fill="#9E9E9E"/>
</g>
</svg>
