<svg width="28" height="28" viewBox="0 0 28 28" fill="none" xmlns="http://www.w3.org/2000/svg">
<g id="twemoji:flag-vietnam" clip-path="url(#clip0_510_3839)">
<path id="Vector" d="M24.8889 3.88867H3.11111C2.28599 3.88867 1.49467 4.21645 0.911223 4.7999C0.327777 5.38334 0 6.17466 0 6.99978L0 20.9998C0 21.8249 0.327777 22.6162 0.911223 23.1997C1.49467 23.7831 2.28599 24.1109 3.11111 24.1109H24.8889C25.714 24.1109 26.5053 23.7831 27.0888 23.1997C27.6722 22.6162 28 21.8249 28 20.9998V6.99978C28 6.17466 27.6722 5.38334 27.0888 4.7999C26.5053 4.21645 25.714 3.88867 24.8889 3.88867Z" fill="#DA251D"/>
<path id="Vector_2" d="M15.3634 12.4735L14 8.27734L12.6365 12.4735H8.22498L11.7942 15.0658L10.4308 19.2619L14 16.6688L17.5692 19.2619L16.2058 15.0658L19.775 12.4735H15.3634Z" fill="#FFFF00"/>
</g>
<defs>
<clipPath id="clip0_510_3839">
<rect width="28" height="28" fill="white"/>
</clipPath>
</defs>
</svg>
