<svg xmlns="http://www.w3.org/2000/svg" width="276" height="250" fill="none" viewBox="0 0 276 250">
  <g clip-path="url(#a)">
    <path fill="#3F3D56" d="M190.727 249.37h-78.314c-11.746 0-21.302-9.546-21.302-21.28V21.28C91.11 9.546 100.667 0 112.413 0h78.314c11.746 0 21.302 9.546 21.302 21.28 1.458 83.049 3.944 176.05 0 206.81 0 11.734-9.556 21.28-21.302 21.28Z"/>
    <path fill="#3F3D56" d="M213.121 76.071a.901.901 0 0 0-.901.9v28.809a.902.902 0 0 0 1.802 0V76.972a.9.9 0 0 0-.901-.9Z"/>
    <path fill="#fff" d="M210.002 21.28v206.807c0 10.213-7.958 18.567-18.02 19.215h-.004a16.19 16.19 0 0 1-.451.023c-.266.013-.532.018-.802.018 0 0-.991-.072-2.803-.207a1354.18 1354.18 0 0 1-7.813-.603 1326.245 1326.245 0 0 1-10.386-.856c-1.037-.085-2.109-.18-3.204-.274a1756.178 1756.178 0 0 1-18.475-1.684 466.33 466.33 0 0 1-3.379-.324c-.297-.031-51.527-12.896-51.527-15.308V21.28c0-10.636 8.629-19.256 19.277-19.256h11.508c1.839 0 3.317 1.431 3.474 3.263.014.122.027.243.05.365.333 1.841 2.023 3.124 3.898 3.124h40.45c1.875 0 3.565-1.283 3.898-3.124.023-.122.036-.243.05-.365.157-1.832 1.635-3.263 3.474-3.263h11.508c10.648 0 19.277 8.62 19.277 19.256Z"/>
    <path fill="#3F3D56" d="M90.66 54.465a.902.902 0 0 0-.901.9v7.203a.902.902 0 0 0 1.802 0v-7.202a.9.9 0 0 0-.901-.9Zm0 21.606a.902.902 0 0 0-.901.9v13.954a.902.902 0 0 0 1.802 0V76.972a.9.9 0 0 0-.901-.9Zm0 19.806a.902.902 0 0 0-.901.9v13.954a.901.901 0 0 0 1.802 0V96.777c0-.496-.404-.9-.901-.9Z"/>
    <path fill="#E6E6E6" d="M123.627 5.177h-17.27a.15.15 0 0 0-.151.151v1.948a.15.15 0 0 0 .151.151h17.27a.152.152 0 0 0 .152-.151V5.328a.152.152 0 0 0-.152-.151Zm58.437 2.25a1.802 1.802 0 1 0 .003-3.603 1.802 1.802 0 0 0-.003 3.603Zm4.957 0a1.801 1.801 0 1 0 .001-3.603 1.801 1.801 0 0 0-.001 3.603Zm4.956 0a1.802 1.802 0 1 0 .003-3.603 1.802 1.802 0 0 0-.003 3.603Z"/>
    <path fill="#CCC" d="M6.993 249.419a.58.58 0 0 0 .581.581h267.845a.58.58 0 0 0 .581-.581.58.58 0 0 0-.581-.581H7.574a.58.58 0 0 0-.581.581Z"/>
    <path fill="#FFB6B6" d="M92.393 245.605h-5.492l-2.613-21.165 8.106.001v21.164Z"/>
    <path fill="#2F2E41" d="M73.575 245.481c-.171.287-.261 1.216-.261 1.551 0 1.028.834 1.862 1.864 1.862h17.01c.702 0 1.272-.569 1.272-1.271v-.707s.841-2.126-.891-4.747c0 0-2.154 2.052-5.371-1.162l-.949-1.717-6.868 5.018-3.806.468c-.833.102-1.572-.016-2 .705Z"/>
    <path fill="#FFB6B6" d="m62.018 216.209-5.493-.018-2.545-21.172 8.106.026-.068 21.164Z"/>
    <path fill="#2F2E41" d="M43.2 216.025c-.172.287-.265 1.215-.266 1.55a1.863 1.863 0 0 0 1.858 1.868l17.01.054a1.271 1.271 0 0 0 1.276-1.266l.002-.708s.849-2.123-.876-4.749c0 0-2.16 2.045-5.367-1.179l-.943-1.72-6.884 4.995-3.808.456c-.833.1-1.571-.02-2.002.699Z"/>
    <path fill="#2F2E41" d="m84.382 117.12-6.839.488s-23.153 13.15-25.107 16.078c-1.954 2.928-4.64 7.076-2.198 11.468 2.442 4.392.583 57.57.583 57.57l11.672-2.637 7.479-55.639 15.632-2.196s5.373 11.581 3.42 21.162c-1.955 9.582-2.932 15.437-2.932 15.437l-2.442 56.608 9.526-.244 8.549-52.46 14.655-41.479-19.052-22.448-12.946-1.708Z"/>
    <path fill="#FFB6B6" d="M52.847 112.413c-2.781 1.516-4.253 4.178-3.287 5.946.966 1.769 4.004 1.973 6.785.456 1.217-.664 2.184-1.547 2.805-2.479l11.704-6.573-3.205-5.421-11.198 7.055c-1.12.018-2.387.352-3.604 1.016Z"/>
    <path fill="#E6E6E6" d="m118.09 57.096-14.167 1.464-1.466 4.88-13.678 7.32 4.397 30.744-3.42 5.368 1.466 5.368s-3.909.488-3.42 3.416l-8.793 1.464s11.662 2.378 14.136 14.121c2.473 11.743 22.99 13.207 22.99 13.207l16.121-50.264 1.466-29.768-11.236-2.928-4.396-4.392Z"/>
    <path fill="#E6E6E6" d="M92.318 70.988s-4.589-1.745-6.17.355c-1.58 2.1-12.023 27.59-12.023 27.59l-15.322 7.993 4.309 7.495 19.73-6.562 13.017-23.782-3.541-13.09Z"/>
    <path fill="#fff" d="M237 154.694v51.728c0 4.575-3.726 8.296-8.305 8.296H100.706c-4.58 0-8.305-3.721-8.305-8.296v-51.728c0-4.574 3.725-8.296 8.305-8.296h127.989c4.579 0 8.305 3.722 8.305 8.296Z"/>
    <path fill="#3F3D56" d="M237 154.694v51.728c0 4.575-3.726 8.296-8.305 8.296H100.706c-4.58 0-8.305-3.721-8.305-8.296v-51.728c0-4.574 3.725-8.296 8.305-8.296h127.989c4.579 0 8.305 3.722 8.305 8.296Zm-8.305 59.048c4.047 0 7.328-3.277 7.328-7.32v-26.079c0-18.208-14.776-32.969-33.003-32.969H100.706c-4.047 0-7.328 3.278-7.328 7.32v51.728c0 4.043 3.28 7.32 7.328 7.32h127.989Z"/>
    <path fill="url(#b)" fill-opacity=".7" d="M149.855 177.651h-16.717a.764.764 0 1 0 0 1.527h16.717a.764.764 0 0 0 0-1.527Z"/>
    <path fill="url(#c)" fill-opacity=".7" d="M175.258 177.651H158.54a.764.764 0 0 0 0 1.527h16.718a.764.764 0 0 0 0-1.527Z"/>
    <path fill="url(#d)" fill-opacity=".7" d="M149.855 185.999h-16.717a.764.764 0 1 0 0 1.527h16.717a.764.764 0 0 0 0-1.527Z"/>
    <path fill="url(#e)" fill-opacity=".7" d="M175.258 185.999H158.54a.764.764 0 0 0 0 1.527h16.718a.764.764 0 0 0 0-1.527Z"/>
    <path fill="url(#f)" fill-opacity=".7" d="M201.424 186.762a.764.764 0 0 0-.764-.763h-16.717a.765.765 0 1 0 0 1.527h16.717a.765.765 0 0 0 .764-.764Z"/>
    <path fill="url(#g)" fill-opacity=".7" d="M140.085 170.985a.764.764 0 0 0 0-1.527h-16.717a.765.765 0 1 0 0 1.527h16.717Z"/>
    <path fill="url(#h)" fill-opacity=".7" d="M189.316 170.675h16.717a.765.765 0 1 0 0-1.527h-16.717a.764.764 0 0 0 0 1.527Z"/>
    <path fill="url(#i)" fill-opacity=".7" d="M147.127 170.836h34.658a.765.765 0 1 0 0-1.527h-34.658a.764.764 0 0 0 0 1.527Z"/>
    <path fill="url(#j)" fill-opacity=".7" d="M160.763 193.583h-16.717a.764.764 0 0 0 0 1.527h16.717a.765.765 0 1 0 0-1.527Z"/>
    <path fill="#fff" d="M214.754 154.305v51.728c0 4.574-3.725 8.296-8.305 8.296h-51.782c-4.579 0-8.304-3.722-8.304-8.296v-51.728c0-4.575 3.725-8.296 8.304-8.296h51.782c4.58 0 8.305 3.721 8.305 8.296Z"/>
    <path fill="#3F3D56" d="M214.754 154.305v51.728c0 4.574-3.725 8.296-8.305 8.296h-51.782c-4.579 0-8.304-3.722-8.304-8.296v-51.728c0-4.575 3.725-8.296 8.304-8.296h51.782c4.58 0 8.305 3.721 8.305 8.296Zm-11.517 59.048c5.821 0 10.54-4.714 10.54-10.529v-22.87c0-18.209-14.776-32.969-33.003-32.969h-26.107c-4.046 0-7.327 3.277-7.327 7.32v44.51c0 8.029 6.515 14.538 14.552 14.538h41.345Z"/>
    <path fill="url(#k)" fill-opacity=".7" d="M187.451 167.135h-16.717a.764.764 0 0 1 0-1.527h16.717a.765.765 0 1 1 0 1.527Z"/>
    <path fill="url(#l)" fill-opacity=".7" d="M187.451 183.417h-16.717a.764.764 0 0 1 0-1.527h16.717a.765.765 0 1 1 0 1.527Z"/>
    <path fill="url(#m)" fill-opacity=".7" d="M179.147 205.865H162.43a.765.765 0 0 1 0-1.527h16.717a.764.764 0 0 1 0 1.527Z"/>
    <path fill="url(#n)" fill-opacity=".7" d="M196.422 175.281h-34.658a.764.764 0 1 1 0-1.527h34.658a.765.765 0 0 1 0 1.527Z"/>
    <path fill="url(#o)" fill-opacity=".7" d="M205.011 125.641c0-16.137-13.653-25.014-29.249-29.218-19.995-5.39-34.639 5.517-29.249 29.218 1.222 5.371 4.144 11.645 7.761 17.012h28.702c9.587-6.236 22.035-4.487 22.035-17.012Z"/>
    <path fill="url(#p)" fill-opacity=".7" d="M175.333 156.146c1.633-3.109 3.702-5.353 5.983-7.06h-26.883c6.919 9.873 16.095 16.21 20.9 7.06Z"/>
    <path fill="#fff" d="M172.231 108.366a3.124 3.124 0 0 1 3.125 3.122v6.243h-6.25v-6.243a3.124 3.124 0 0 1 3.125-3.122Zm4.687 9.365v-6.243a4.686 4.686 0 0 0-4.687-4.683 4.686 4.686 0 0 0-4.688 4.683v6.243a3.124 3.124 0 0 0-3.125 3.122v7.804c0 1.724 1.4 3.121 3.125 3.121h9.375a3.123 3.123 0 0 0 3.125-3.121v-7.804a3.123 3.123 0 0 0-3.125-3.122Zm-9.375 1.561h9.375a1.56 1.56 0 0 1 1.562 1.561v7.804a1.56 1.56 0 0 1-1.562 1.56h-9.375a1.56 1.56 0 0 1-1.562-1.56v-7.804a1.56 1.56 0 0 1 1.562-1.561Z"/>
    <path fill="#FFB6B6" d="M127.574 144.713c-.376 3.143.941 5.884 2.943 6.124 2.002.239 3.93-2.114 4.307-5.257.165-1.376.005-2.674-.394-3.72l1.429-13.337-6.279-.537-.743 13.205c-.635.922-1.098 2.146-1.263 3.522Z"/>
    <path fill="url(#q)" fill-opacity=".7" d="M28.578 158.765c15.783 0 28.578-12.781 28.578-28.548 0-15.766-12.795-28.548-28.578-28.548S0 114.451 0 130.217c0 15.767 12.795 28.548 28.578 28.548Z"/>
    <path fill="#fff" d="M28.578 117.437a3.654 3.654 0 0 1 3.655 3.652v7.303h-7.31v-7.303a3.654 3.654 0 0 1 3.655-3.652Zm5.483 10.955v-7.303a5.48 5.48 0 0 0-5.483-5.478 5.48 5.48 0 0 0-5.483 5.478v7.303a3.653 3.653 0 0 0-3.655 3.651v9.129a3.653 3.653 0 0 0 3.655 3.651H34.06a3.653 3.653 0 0 0 3.655-3.651v-9.129a3.653 3.653 0 0 0-3.655-3.651Zm-10.966 1.825H34.06c1.009 0 1.827.818 1.827 1.826v9.129a1.826 1.826 0 0 1-1.827 1.825H23.095a1.826 1.826 0 0 1-1.828-1.825v-9.129c0-1.008.818-1.826 1.828-1.826Z"/>
    <path fill="#E6E6E6" d="M129.081 65.148s6.839-1.952 8.305.976c1.465 2.928 4.885 41.48 4.885 41.48l-6.595 30.772-7.572-1.981 3.908-31.231-5.374-23.424 2.443-16.592Z"/>
    <path fill="#FFB6B6" d="M110.623 55.244c6.083 0 11.013-4.925 11.013-11.001s-4.93-11.002-11.013-11.002c-6.082 0-11.013 4.926-11.013 11.002 0 6.076 4.931 11.001 11.013 11.001Z"/>
    <path fill="#2F2E41" d="M104.9 54.168s-9.77-.488-8.794-8.296c-2.418-8.315-.277-13.713 7.328-15.616 0 0 1.954-.488 2.443-.488 6.425 0 9.77 1.952 9.77 1.952s-.489-1.933 0-1.454c.488.478.977 1.454.977 1.454s4.885 2.44 4.885 7.32v2.928s-.977 0-1.954-2.928-7.303-.976-7.303-.976l.464.976-1.466-.488-1.465 1.464-.977-.488h-3.42c.489 0 .148 3.316.148 3.316l-3.567 4.004 3.908 7.32h-.977Z"/>
  </g>
  <defs>
    <linearGradient id="b" x1="132.374" x2="150.619" y1="178.424" y2="178.424" gradientUnits="userSpaceOnUse">
      <stop stop-color="#FC1B7C"/>
      <stop offset=".5" stop-color="#714CF4"/>
      <stop offset="1" stop-color="#0084F3"/>
    </linearGradient>
    <linearGradient id="c" x1="157.776" x2="176.022" y1="178.424" y2="178.424" gradientUnits="userSpaceOnUse">
      <stop stop-color="#FC1B7C"/>
      <stop offset=".5" stop-color="#714CF4"/>
      <stop offset="1" stop-color="#0084F3"/>
    </linearGradient>
    <linearGradient id="d" x1="132.374" x2="150.619" y1="186.772" y2="186.772" gradientUnits="userSpaceOnUse">
      <stop stop-color="#FC1B7C"/>
      <stop offset=".5" stop-color="#714CF4"/>
      <stop offset="1" stop-color="#0084F3"/>
    </linearGradient>
    <linearGradient id="e" x1="157.776" x2="176.022" y1="186.772" y2="186.772" gradientUnits="userSpaceOnUse">
      <stop stop-color="#FC1B7C"/>
      <stop offset=".5" stop-color="#714CF4"/>
      <stop offset="1" stop-color="#0084F3"/>
    </linearGradient>
    <linearGradient id="f" x1="183.178" x2="201.424" y1="186.772" y2="186.772" gradientUnits="userSpaceOnUse">
      <stop stop-color="#FC1B7C"/>
      <stop offset=".5" stop-color="#714CF4"/>
      <stop offset="1" stop-color="#0084F3"/>
    </linearGradient>
    <linearGradient id="g" x1="122.603" x2="140.849" y1="170.232" y2="170.232" gradientUnits="userSpaceOnUse">
      <stop stop-color="#FC1B7C"/>
      <stop offset=".5" stop-color="#714CF4"/>
      <stop offset="1" stop-color="#0084F3"/>
    </linearGradient>
    <linearGradient id="h" x1="188.552" x2="206.798" y1="169.921" y2="169.921" gradientUnits="userSpaceOnUse">
      <stop stop-color="#FC1B7C"/>
      <stop offset=".5" stop-color="#714CF4"/>
      <stop offset="1" stop-color="#0084F3"/>
    </linearGradient>
    <linearGradient id="i" x1="146.363" x2="182.55" y1="170.082" y2="170.082" gradientUnits="userSpaceOnUse">
      <stop stop-color="#FC1B7C"/>
      <stop offset=".5" stop-color="#714CF4"/>
      <stop offset="1" stop-color="#0084F3"/>
    </linearGradient>
    <linearGradient id="j" x1="143.282" x2="161.528" y1="194.356" y2="194.356" gradientUnits="userSpaceOnUse">
      <stop stop-color="#FC1B7C"/>
      <stop offset=".5" stop-color="#714CF4"/>
      <stop offset="1" stop-color="#0084F3"/>
    </linearGradient>
    <linearGradient id="k" x1="169.97" x2="188.216" y1="166.382" y2="166.382" gradientUnits="userSpaceOnUse">
      <stop stop-color="#FC1B7C"/>
      <stop offset=".5" stop-color="#714CF4"/>
      <stop offset="1" stop-color="#0084F3"/>
    </linearGradient>
    <linearGradient id="l" x1="169.97" x2="188.216" y1="182.663" y2="182.663" gradientUnits="userSpaceOnUse">
      <stop stop-color="#FC1B7C"/>
      <stop offset=".5" stop-color="#714CF4"/>
      <stop offset="1" stop-color="#0084F3"/>
    </linearGradient>
    <linearGradient id="m" x1="161.666" x2="179.911" y1="205.111" y2="205.111" gradientUnits="userSpaceOnUse">
      <stop stop-color="#FC1B7C"/>
      <stop offset=".5" stop-color="#714CF4"/>
      <stop offset="1" stop-color="#0084F3"/>
    </linearGradient>
    <linearGradient id="n" x1="161" x2="197.186" y1="174.528" y2="174.528" gradientUnits="userSpaceOnUse">
      <stop stop-color="#FC1B7C"/>
      <stop offset=".5" stop-color="#714CF4"/>
      <stop offset="1" stop-color="#0084F3"/>
    </linearGradient>
    <linearGradient id="o" x1="145.387" x2="205.011" y1="119.17" y2="119.17" gradientUnits="userSpaceOnUse">
      <stop stop-color="#FC1B7C"/>
      <stop offset=".5" stop-color="#714CF4"/>
      <stop offset="1" stop-color="#0084F3"/>
    </linearGradient>
    <linearGradient id="p" x1="154.433" x2="181.316" y1="154.906" y2="154.906" gradientUnits="userSpaceOnUse">
      <stop stop-color="#FC1B7C"/>
      <stop offset=".5" stop-color="#714CF4"/>
      <stop offset="1" stop-color="#0084F3"/>
    </linearGradient>
    <linearGradient id="q" x1="0" x2="57.156" y1="130.588" y2="130.588" gradientUnits="userSpaceOnUse">
      <stop stop-color="#FC1B7C"/>
      <stop offset=".5" stop-color="#714CF4"/>
      <stop offset="1" stop-color="#0084F3"/>
    </linearGradient>
    <clipPath id="a">
      <path fill="#fff" d="M0 0h276v250H0z"/>
    </clipPath>
  </defs>
</svg>
