<svg width="30" height="28" viewBox="0 0 30 28" fill="none" xmlns="http://www.w3.org/2000/svg">
<g id="Group">
<g id="Exclude">
<path fill-rule="evenodd" clip-rule="evenodd" d="M20.1331 1.33432C20.9744 1.33432 21.8144 1.45299 22.6131 1.72099C27.5344 3.32099 29.3077 8.72099 27.8264 13.441C26.9864 15.853 25.6131 18.0543 23.8144 19.853C21.2397 22.3463 18.4144 24.5597 15.3731 26.4663L15.0397 26.6677L14.6931 26.453C11.6411 24.5597 8.79974 22.3463 6.20107 19.8397C4.4144 18.041 3.03974 15.853 2.1864 13.441C0.679737 8.72099 2.45307 3.32099 7.42774 1.69299C7.8144 1.55965 8.21307 1.46632 8.61307 1.41432H8.77307C9.14774 1.35965 9.51974 1.33432 9.89307 1.33432H10.0397C10.8797 1.35965 11.6931 1.50632 12.4811 1.77432H12.5597C12.6131 1.79965 12.6531 1.82765 12.6797 1.85299C12.9744 1.94765 13.2531 2.05432 13.5197 2.20099L14.0264 2.42765C14.1488 2.49295 14.2863 2.59272 14.405 2.67895C14.4803 2.73358 14.548 2.78277 14.5997 2.81432C14.6215 2.82716 14.6436 2.84007 14.6659 2.85308C14.7802 2.91982 14.8993 2.98933 14.9997 3.06632C16.4811 1.93432 18.2797 1.32099 20.1331 1.33432ZM23.6797 10.9343C24.2264 10.9197 24.6931 10.481 24.7331 9.91965V9.76099C24.7731 7.89299 23.6411 6.20099 21.9197 5.54765C21.3731 5.35965 20.7731 5.65432 20.5731 6.21432C20.3864 6.77432 20.6797 7.38765 21.2397 7.58632C22.0944 7.90632 22.6664 8.74765 22.6664 9.67965V9.72099C22.6411 10.0263 22.7331 10.321 22.9197 10.5477C23.1064 10.7743 23.3864 10.9063 23.6797 10.9343Z" fill="url(#paint0_linear_132_512)"/>
<path d="M22.6131 1.72099L22.3745 2.43205L22.3812 2.43424L22.6131 1.72099ZM20.1331 1.33432L20.1277 2.08432H20.1331V1.33432ZM27.8264 13.441L28.5347 13.6876L28.5385 13.6767L28.542 13.6656L27.8264 13.441ZM23.8144 19.853L24.3362 20.3918L24.3447 20.3833L23.8144 19.853ZM15.3731 26.4663L15.7609 27.1084L15.7714 27.1018L15.3731 26.4663ZM15.0397 26.6677L14.6449 27.3053L15.0349 27.5468L15.4275 27.3096L15.0397 26.6677ZM14.6931 26.453L14.2977 27.0903L14.2982 27.0906L14.6931 26.453ZM6.20107 19.8397L5.66897 20.3682L5.67461 20.3739L5.68038 20.3795L6.20107 19.8397ZM2.1864 13.441L1.47192 13.6691L1.47546 13.6802L1.47935 13.6911L2.1864 13.441ZM7.42774 1.69299L7.66104 2.40588L7.67223 2.40202L7.42774 1.69299ZM8.61307 1.41432V0.664319H8.56452L8.51638 0.670578L8.61307 1.41432ZM8.77307 1.41432V2.16432H8.8275L8.88135 2.15646L8.77307 1.41432ZM10.0397 1.33432L10.0623 0.58466L10.051 0.584319H10.0397V1.33432ZM12.4811 1.77432L12.2396 2.48438L12.357 2.52432H12.4811V1.77432ZM12.5597 1.77432L12.8815 1.09686L12.7288 1.02432H12.5597V1.77432ZM12.6797 1.85299L12.1632 2.39674L12.2873 2.51467L12.4503 2.56704L12.6797 1.85299ZM13.5197 2.20099L13.1583 2.85815L13.1853 2.87301L13.2135 2.8856L13.5197 2.20099ZM14.0264 2.42765L14.3793 1.76589L14.3564 1.75365L14.3327 1.74304L14.0264 2.42765ZM14.405 2.67895L13.9644 3.28586L13.9644 3.28586L14.405 2.67895ZM14.5997 2.81432L14.2091 3.45467L14.2186 3.46027L14.5997 2.81432ZM14.6659 2.85308L14.2878 3.5008V3.5008L14.6659 2.85308ZM14.9997 3.06632L14.5434 3.66152L14.999 4.0108L15.4551 3.66224L14.9997 3.06632ZM24.7331 9.91965L25.4812 9.97296L25.4831 9.94634V9.91965H24.7331ZM23.6797 10.9343L23.6085 11.6809L23.6541 11.6853L23.6999 11.684L23.6797 10.9343ZM24.7331 9.76099L23.9832 9.74493L23.9831 9.75296V9.76099H24.7331ZM21.9197 5.54765L22.1859 4.84646L22.1748 4.84227L22.1636 4.83842L21.9197 5.54765ZM20.5731 6.21432L19.8668 5.96207L19.8641 5.96958L19.8616 5.97715L20.5731 6.21432ZM21.2397 7.58632L21.5028 6.88383L21.4905 6.87948L21.2397 7.58632ZM22.6664 9.72099L23.4138 9.783L23.4164 9.75204V9.72099H22.6664ZM22.9197 10.5477L23.4987 10.0709L23.4987 10.0709L22.9197 10.5477ZM22.8517 1.00995C21.966 0.712771 21.0442 0.584319 20.1331 0.584319V2.08432C20.9046 2.08432 21.6628 2.1932 22.3745 2.43202L22.8517 1.00995ZM28.542 13.6656C30.1075 8.67748 28.2706 2.77169 22.845 1.00773L22.3812 2.43424C26.7982 3.87028 28.508 8.76449 27.1108 13.2164L28.542 13.6656ZM24.3447 20.3833C26.2244 18.5036 27.658 16.205 28.5347 13.6876L27.1181 13.1943C26.3148 15.501 25.0017 17.605 23.2841 19.3227L24.3447 20.3833ZM15.7714 27.1018C18.8571 25.1673 21.7238 22.9216 24.3362 20.3918L23.2927 19.3142C20.7557 21.771 17.9717 23.952 14.9747 25.8309L15.7714 27.1018ZM15.4275 27.3096L15.7608 27.1083L14.9853 25.8243L14.652 26.0257L15.4275 27.3096ZM14.2982 27.0906L14.6449 27.3053L15.4346 26.03L15.0879 25.8153L14.2982 27.0906ZM5.68038 20.3795C8.31698 22.9227 11.2003 25.1688 14.2977 27.0903L15.0884 25.8157C12.0819 23.9505 9.28249 21.7699 6.72176 19.2999L5.68038 20.3795ZM1.47935 13.6911C2.3695 16.2072 3.80371 18.4904 5.66897 20.3682L6.73317 19.3111C5.0251 17.5916 3.70997 15.4988 2.89346 13.1908L1.47935 13.6911ZM7.19447 0.980185C1.71998 2.77176 -0.122364 8.67457 1.47192 13.6691L2.90089 13.2129C1.48184 8.76741 3.18616 3.87022 7.66101 2.40579L7.19447 0.980185ZM8.51638 0.670578C8.06607 0.729119 7.61788 0.834083 7.18324 0.983956L7.67223 2.40202C8.01093 2.28522 8.36007 2.20352 8.70976 2.15806L8.51638 0.670578ZM8.77307 0.664319H8.61307V2.16432H8.77307V0.664319ZM9.89307 0.584319C9.48549 0.584319 9.07723 0.611999 8.66479 0.672177L8.88135 2.15646C9.21824 2.10731 9.55398 2.08432 9.89307 2.08432V0.584319ZM10.0397 0.584319H9.89307V2.08432H10.0397V0.584319ZM12.7226 1.06426C11.8634 0.772044 10.9762 0.612221 10.0623 0.58466L10.0171 2.08398C10.7833 2.10708 11.5228 2.24059 12.2396 2.48438L12.7226 1.06426ZM12.5597 1.02432H12.4811V2.52432H12.5597V1.02432ZM13.1963 1.30924C13.1026 1.22024 12.9935 1.15003 12.8815 1.09686L12.2379 2.45178C12.2338 2.4498 12.2254 2.4455 12.2137 2.43769C12.2025 2.43021 12.1847 2.41719 12.1632 2.39674L13.1963 1.30924ZM13.8812 1.54382C13.5561 1.36502 13.2275 1.24121 12.9091 1.13893L12.4503 2.56704C12.7213 2.6541 12.9501 2.74361 13.1583 2.85815L13.8812 1.54382ZM14.3327 1.74304L13.826 1.51637L13.2135 2.8856L13.7201 3.11227L14.3327 1.74304ZM14.8457 2.07204C14.7388 1.99444 14.5568 1.86051 14.3793 1.76589L13.6735 3.08942C13.7409 3.12539 13.8337 3.191 13.9644 3.28586L14.8457 2.07204ZM14.9903 2.17404C14.9704 2.16191 14.9312 2.13415 14.8457 2.07204L13.9644 3.28586C14.0293 3.33301 14.1256 3.40363 14.2092 3.4546L14.9903 2.17404ZM15.044 2.20536C15.0214 2.19219 15.0008 2.18017 14.9808 2.16837L14.2186 3.46027C14.2421 3.47415 14.2658 3.48794 14.2878 3.5008L15.044 2.20536ZM15.4561 2.47111C15.3113 2.36012 15.1493 2.2668 15.044 2.20536L14.2878 3.5008C14.4112 3.57283 14.4874 3.61855 14.5434 3.66152L15.4561 2.47111ZM20.1385 0.584339C18.1149 0.569781 16.1549 1.23965 14.5443 2.4704L15.4551 3.66224C16.8072 2.62899 18.4445 2.07219 20.1277 2.0843L20.1385 0.584339ZM23.985 9.86634C23.9724 10.0425 23.821 10.1803 23.6596 10.1846L23.6999 11.684C24.6318 11.659 25.4137 10.9195 25.4812 9.97296L23.985 9.86634ZM23.9831 9.76099V9.91965H25.4831V9.76099H23.9831ZM21.6536 6.24885C23.0732 6.78767 24.0166 8.18897 23.9832 9.74493L25.4829 9.77704C25.5296 7.597 24.2089 5.6143 22.1859 4.84646L21.6536 6.24885ZM21.2794 6.46657C21.3462 6.27952 21.5314 6.20721 21.6758 6.25688L22.1636 4.83842C21.2147 4.51209 20.2 5.02912 19.8668 5.96207L21.2794 6.46657ZM21.4905 6.87948C21.3204 6.81915 21.2255 6.62873 21.2846 6.45149L19.8616 5.97715C19.5473 6.91991 20.039 7.95616 20.989 8.29316L21.4905 6.87948ZM23.4164 9.67965C23.4164 8.44513 22.6598 7.31716 21.5027 6.88394L20.9768 8.2887C21.529 8.49548 21.9164 9.05018 21.9164 9.67965H23.4164ZM23.4164 9.72099V9.67965H21.9164V9.72099H23.4164ZM23.4987 10.0709C23.4392 9.99859 23.4043 9.89832 23.4138 9.783L21.919 9.65898C21.8779 10.1543 22.027 10.6434 22.3408 11.0244L23.4987 10.0709ZM23.751 10.1877C23.6272 10.1759 23.5414 10.1228 23.4987 10.0709L22.3408 11.0244C22.6714 11.4259 23.1456 11.6367 23.6085 11.6809L23.751 10.1877Z" fill="url(#paint1_linear_132_512)"/>
</g>
</g>
<defs>
<linearGradient id="paint0_linear_132_512" x1="1.66638" y1="14.1654" x2="28.3333" y2="14.1654" gradientUnits="userSpaceOnUse">
<stop stop-color="#FC1B7C"/>
<stop offset="0.5" stop-color="#714CF4"/>
<stop offset="1" stop-color="#0084F3"/>
</linearGradient>
<linearGradient id="paint1_linear_132_512" x1="1.66638" y1="14.1654" x2="28.3333" y2="14.1654" gradientUnits="userSpaceOnUse">
<stop stop-color="#FC1B7C"/>
<stop offset="0.5" stop-color="#714CF4"/>
<stop offset="1" stop-color="#0084F3"/>
</linearGradient>
</defs>
</svg>
