<svg width="21" height="23" viewBox="0 0 21 23" fill="none" xmlns="http://www.w3.org/2000/svg">
<g id="Group">
<g id="Vector">
<path fill-rule="evenodd" clip-rule="evenodd" d="M7.8239 20.2714V17.2047C7.82388 16.4246 8.4598 15.7908 9.2477 15.7856H12.1338C12.9254 15.7856 13.5672 16.4209 13.5672 17.2047V20.2809C13.567 20.9432 14.1009 21.4845 14.7697 21.5H16.6938C18.6118 21.5 20.1667 19.9607 20.1667 18.0618V9.33784C20.1564 8.59083 19.8022 7.88935 19.2047 7.43303L12.6244 2.1853C11.4716 1.27157 9.83289 1.27157 8.6801 2.1853L2.12871 7.44256C1.52895 7.89702 1.17407 8.59967 1.16669 9.34736V18.0618C1.16669 19.9607 2.72156 21.5 4.6396 21.5H6.56365C7.24904 21.5 7.80466 20.9499 7.80466 20.2714" fill="url(#paint0_linear_132_1983)"/>
<path d="M7.8239 20.2714V17.2047C7.82388 16.4246 8.4598 15.7908 9.2477 15.7856H12.1338C12.9254 15.7856 13.5672 16.4209 13.5672 17.2047V17.2047V20.2809C13.567 20.9432 14.1009 21.4845 14.7697 21.5H16.6938C18.6118 21.5 20.1667 19.9607 20.1667 18.0618V18.0618V9.33784C20.1564 8.59083 19.8022 7.88935 19.2047 7.43303L12.6244 2.1853C11.4716 1.27157 9.83289 1.27157 8.6801 2.1853L2.12871 7.44256C1.52895 7.89702 1.17407 8.59967 1.16669 9.34736V18.0618C1.16669 19.9607 2.72156 21.5 4.6396 21.5H6.56365C7.24904 21.5 7.80466 20.9499 7.80466 20.2714V20.2714" stroke="url(#paint1_linear_132_1983)" stroke-width="1.5" stroke-linecap="round" stroke-linejoin="round"/>
</g>
</g>
<defs>
<linearGradient id="paint0_linear_132_1983" x1="1.16669" y1="11.6299" x2="20.1667" y2="11.6299" gradientUnits="userSpaceOnUse">
<stop stop-color="#FC1B7C"/>
<stop offset="0.5" stop-color="#714CF4"/>
<stop offset="1" stop-color="#0084F3"/>
</linearGradient>
<linearGradient id="paint1_linear_132_1983" x1="1.16669" y1="11.6299" x2="20.1667" y2="11.6299" gradientUnits="userSpaceOnUse">
<stop stop-color="#FC1B7C"/>
<stop offset="0.5" stop-color="#714CF4"/>
<stop offset="1" stop-color="#0084F3"/>
</linearGradient>
</defs>
</svg>
