<svg width="23" height="22" viewBox="0 0 23 22" fill="none" xmlns="http://www.w3.org/2000/svg">
<g id="Group">
<g id="Exclude">
<path fill-rule="evenodd" clip-rule="evenodd" d="M15.5164 1.50071C16.1474 1.50071 16.7774 1.58971 17.3764 1.79071C21.0674 2.99071 22.3974 7.04071 21.2864 10.5807C20.6564 12.3897 19.6264 14.0407 18.2774 15.3897C16.3464 17.2597 14.2274 18.9197 11.9464 20.3497L11.6964 20.5007L11.4364 20.3397C9.1474 18.9197 7.0164 17.2597 5.0674 15.3797C3.7274 14.0307 2.6964 12.3897 2.0564 10.5807C0.926398 7.04071 2.2564 2.99071 5.9874 1.76971C6.2774 1.66971 6.5764 1.59971 6.8764 1.56071H6.9964C7.2774 1.51971 7.5564 1.50071 7.8364 1.50071H7.9464C8.5764 1.51971 9.1864 1.62971 9.7774 1.83071H9.8364C9.8764 1.84971 9.9064 1.87071 9.9264 1.88971C10.1474 1.96071 10.3564 2.04071 10.5564 2.15071L10.9364 2.32071C11.0282 2.36968 11.1313 2.44451 11.2204 2.50918C11.2768 2.55015 11.3276 2.58705 11.3664 2.61071C11.3827 2.62034 11.3993 2.63002 11.416 2.63978C11.5018 2.68983 11.5911 2.74197 11.6664 2.79971C12.7774 1.95071 14.1264 1.49071 15.5164 1.50071ZM18.1764 8.70071C18.5864 8.68971 18.9364 8.36071 18.9664 7.93971V7.82071C18.9964 6.41971 18.1474 5.15071 16.8564 4.66071C16.4464 4.51971 15.9964 4.74071 15.8464 5.16071C15.7064 5.58071 15.9264 6.04071 16.3464 6.18971C16.9874 6.42971 17.4164 7.06071 17.4164 7.75971V7.79071C17.3974 8.01971 17.4664 8.24071 17.6064 8.41071C17.7464 8.58071 17.9564 8.67971 18.1764 8.70071Z" fill="url(#paint0_linear_132_207)"/>
<path d="M17.3764 1.79071L17.1378 2.50178L17.1445 2.50396L17.3764 1.79071ZM15.5164 1.50071L15.511 2.25071H15.5164V1.50071ZM21.2864 10.5807L21.9947 10.8274L21.9985 10.8164L22.002 10.8053L21.2864 10.5807ZM18.2774 15.3897L18.7992 15.9285L18.8077 15.92L18.2774 15.3897ZM11.9464 20.3497L12.3342 20.9918L12.3448 20.9852L11.9464 20.3497ZM11.6964 20.5007L11.3015 21.1384L11.6915 21.3798L12.0842 21.1427L11.6964 20.5007ZM11.4364 20.3397L11.041 20.977L11.0415 20.9774L11.4364 20.3397ZM5.0674 15.3797L4.5353 15.9083L4.54094 15.9139L4.54671 15.9195L5.0674 15.3797ZM2.0564 10.5807L1.34192 10.8088L1.34546 10.8199L1.34934 10.8309L2.0564 10.5807ZM5.9874 1.76971L6.2207 2.4826L6.23189 2.47874L5.9874 1.76971ZM6.8764 1.56071V0.810709H6.82785L6.77971 0.816967L6.8764 1.56071ZM6.9964 1.56071V2.31071H7.05083L7.10468 2.30285L6.9964 1.56071ZM7.9464 1.50071L7.96901 0.75105L7.95771 0.750709H7.9464V1.50071ZM9.7774 1.83071L9.53591 2.54077L9.65335 2.58071H9.7774V1.83071ZM9.8364 1.83071L10.1582 1.15325L10.0055 1.08071H9.8364V1.83071ZM9.9264 1.88971L9.40984 2.43346L9.53398 2.55139L9.697 2.60376L9.9264 1.88971ZM10.5564 2.15071L10.195 2.80787L10.222 2.82273L10.2501 2.83532L10.5564 2.15071ZM10.9364 2.32071L11.2893 1.65894L11.2664 1.64671L11.2427 1.6361L10.9364 2.32071ZM11.2204 2.50918L10.7797 3.11609L10.7797 3.11609L11.2204 2.50918ZM11.3664 2.61071L10.9758 3.25106L10.9853 3.25666L11.3664 2.61071ZM11.416 2.63978L11.0379 3.28749L11.0379 3.2875L11.416 2.63978ZM11.6664 2.79971L11.2101 3.39491L11.6657 3.74419L12.1218 3.39563L11.6664 2.79971ZM18.9664 7.93971L19.7145 7.99302L19.7164 7.9664V7.93971H18.9664ZM18.1764 8.70071L18.1051 9.44732L18.1507 9.45167L18.1965 9.45044L18.1764 8.70071ZM18.9664 7.82071L18.2166 7.80465L18.2164 7.81268V7.82071H18.9664ZM16.8564 4.66071L17.1225 3.95952L17.1115 3.95532L17.1003 3.95148L16.8564 4.66071ZM15.8464 5.16071L15.1401 4.90846L15.1374 4.91597L15.1349 4.92354L15.8464 5.16071ZM16.3464 6.18971L16.6094 5.48722L16.5972 5.48287L16.3464 6.18971ZM17.4164 7.79071L18.1638 7.85272L18.1664 7.82177V7.79071H17.4164ZM17.615 1.07967C16.929 0.849494 16.2172 0.750709 15.5164 0.750709V2.25071C16.0776 2.25071 16.6258 2.32992 17.1378 2.50175L17.615 1.07967ZM22.002 10.8053C23.1971 6.9972 21.8036 2.44141 17.6083 1.07746L17.1445 2.50396C20.3312 3.54 21.5977 7.08422 20.5708 10.3561L22.002 10.8053ZM18.8077 15.92C20.2377 14.49 21.328 12.7417 21.9947 10.8274L20.5781 10.334C19.9848 12.0377 19.0151 13.5914 17.7471 14.8594L18.8077 15.92ZM12.3448 20.9852C14.6701 19.5274 16.8304 17.835 18.7992 15.9285L17.7556 14.8509C15.8624 16.6844 13.7847 18.312 11.548 19.7143L12.3448 20.9852ZM12.0842 21.1427L12.3342 20.9917L11.5586 19.7077L11.3086 19.8587L12.0842 21.1427ZM11.0415 20.9774L11.3015 21.1384L12.0913 19.8631L11.8313 19.7021L11.0415 20.9774ZM4.54671 15.9195C6.53364 17.8361 8.7066 19.5289 11.041 20.977L11.8318 19.7024C9.5882 18.3106 7.49916 16.6833 5.58809 14.8399L4.54671 15.9195ZM1.34934 10.8309C2.02616 12.7439 3.1167 14.4801 4.5353 15.9083L5.5995 14.8512C4.33809 13.5813 3.36664 12.0355 2.76345 10.3306L1.34934 10.8309ZM5.75413 1.05691C1.52331 2.44148 0.124297 6.99429 1.34192 10.8088L2.77088 10.3526C1.7285 7.08713 2.98949 3.53994 6.22067 2.48251L5.75413 1.05691ZM6.77971 0.816967C6.42939 0.862509 6.08087 0.944139 5.74291 1.06068L6.23189 2.47874C6.47393 2.39528 6.7234 2.33691 6.97308 2.30445L6.77971 0.816967ZM6.9964 0.810709H6.8764V2.31071H6.9964V0.810709ZM7.8364 0.750709C7.52215 0.750709 7.20689 0.772055 6.88811 0.818567L7.10468 2.30285C7.34791 2.26736 7.59064 2.25071 7.8364 2.25071V0.750709ZM7.9464 0.750709H7.8364V2.25071H7.9464V0.750709ZM10.0189 1.12065C9.35668 0.895433 8.67287 0.772278 7.96901 0.75105L7.92379 2.25037C8.47992 2.26714 9.01611 2.36398 9.53591 2.54077L10.0189 1.12065ZM9.8364 1.08071H9.7774V2.58071H9.8364V1.08071ZM10.443 1.34595C10.3559 1.2633 10.2568 1.20009 10.1582 1.15325L9.51461 2.50817C9.496 2.49933 9.45685 2.47812 9.40984 2.43346L10.443 1.34595ZM10.9178 1.49355C10.6594 1.35141 10.4005 1.25426 10.1558 1.17565L9.697 2.60376C9.89431 2.66716 10.0534 2.73 10.195 2.80787L10.9178 1.49355ZM11.2427 1.6361L10.8627 1.4661L10.2501 2.83532L10.6301 3.00532L11.2427 1.6361ZM11.661 1.90227C11.5838 1.84623 11.4362 1.73724 11.2893 1.65894L10.5835 2.98247C10.6203 3.00212 10.6788 3.04279 10.7797 3.11609L11.661 1.90227ZM11.757 1.97043C11.7583 1.97124 11.7514 1.96701 11.7314 1.95293C11.7123 1.93952 11.6904 1.92359 11.661 1.90227L10.7797 3.11609C10.8259 3.14958 10.9052 3.20791 10.9758 3.25099L11.757 1.97043ZM11.7941 1.99206C11.7771 1.98214 11.7621 1.97334 11.7475 1.96475L10.9853 3.25666C11.0034 3.26733 11.0215 3.2779 11.0379 3.28749L11.7941 1.99206ZM12.1227 2.2045C12.0031 2.11276 11.8708 2.03682 11.7941 1.99206L11.0379 3.2875C11.1327 3.34284 11.1791 3.37118 11.2101 3.39491L12.1227 2.2045ZM15.5218 0.750728C13.9616 0.739504 12.4512 1.25604 11.211 2.20379L12.1218 3.39563C13.1036 2.64538 14.2912 2.24191 15.511 2.25069L15.5218 0.750728ZM18.2183 7.8864C18.2172 7.90133 18.2107 7.91744 18.1956 7.93187C18.1798 7.94695 18.1647 7.95075 18.1563 7.95098L18.1965 9.45044C18.9918 9.4291 19.6571 8.79919 19.7145 7.99302L18.2183 7.8864ZM18.2164 7.82071V7.93971H19.7164V7.82071H18.2164ZM16.5903 5.3619C17.5796 5.73739 18.2399 6.71569 18.2166 7.80465L19.7162 7.83677C19.7529 6.12372 18.7152 4.56403 17.1225 3.95952L16.5903 5.3619ZM16.5527 5.41296C16.5607 5.39065 16.5738 5.3788 16.586 5.3728C16.598 5.36688 16.6059 5.36767 16.6125 5.36994L17.1003 3.95148C16.2881 3.67215 15.4233 4.11551 15.1401 4.90846L16.5527 5.41296ZM16.5972 5.48287C16.5671 5.4722 16.5455 5.43512 16.5579 5.39788L15.1349 4.92354C14.8673 5.7263 15.2857 6.60921 16.0956 6.89655L16.5972 5.48287ZM18.1664 7.75971C18.1664 6.75818 17.5528 5.84055 16.6094 5.48733L16.0834 6.89209C16.422 7.01887 16.6664 7.36323 16.6664 7.75971H18.1664ZM18.1664 7.79071V7.75971H16.6664V7.79071H18.1664ZM18.1853 7.93393C18.1725 7.91831 18.1606 7.89171 18.1638 7.85272L16.669 7.72869C16.6342 8.14771 16.7603 8.56311 17.0275 8.88749L18.1853 7.93393ZM18.2477 7.9541C18.2252 7.95196 18.2075 7.9461 18.1961 7.94042C18.1853 7.935 18.1833 7.93149 18.1853 7.93393L17.0275 8.88749C17.3114 9.23226 17.7156 9.41013 18.1051 9.44732L18.2477 7.9541Z" fill="url(#paint1_linear_132_207)"/>
</g>
</g>
<defs>
<linearGradient id="paint0_linear_132_207" x1="1.66638" y1="11.124" x2="21.6666" y2="11.124" gradientUnits="userSpaceOnUse">
<stop stop-color="#FC1B7C"/>
<stop offset="0.5" stop-color="#714CF4"/>
<stop offset="1" stop-color="#0084F3"/>
</linearGradient>
<linearGradient id="paint1_linear_132_207" x1="1.66638" y1="11.124" x2="21.6666" y2="11.124" gradientUnits="userSpaceOnUse">
<stop stop-color="#FC1B7C"/>
<stop offset="0.5" stop-color="#714CF4"/>
<stop offset="1" stop-color="#0084F3"/>
</linearGradient>
</defs>
</svg>
