<svg xmlns="http://www.w3.org/2000/svg" width="48" height="48" viewBox="0 0 48 48" fill="none">
    <path fill-rule="evenodd" clip-rule="evenodd" d="M7.16947 10.7103C7.68987 11.0631 8.3241 11.2764 8.99898 11.2764C10.7878 11.2764 12.2433 9.80785 12.2433 8.00291C12.2433 7.32196 12.0319 6.68203 11.6823 6.15696L10.796 7.05122C10.9423 7.33017 11.0236 7.65834 11.0236 8.00291C11.0236 9.12689 10.113 10.0458 8.99898 10.0458C8.65748 10.0458 8.33223 9.96373 8.05577 9.81605L7.16947 10.7103ZM14.3574 3.45777C15.5364 4.54073 16.5366 6.00108 17.2846 7.75679C17.3497 7.91267 17.3497 8.09316 17.2846 8.24084C15.5446 12.3265 12.4466 14.7714 8.99898 14.7714H8.99085C7.42154 14.7714 5.91728 14.2545 4.5919 13.3111L3.01446 14.9027C2.89249 15.0257 2.738 15.0832 2.5835 15.0832C2.42901 15.0832 2.26639 15.0257 2.15255 14.9027C1.94927 14.6976 1.91675 14.3694 2.07937 14.1315L2.10377 14.0987L14.1297 1.9646C14.146 1.94819 14.1623 1.93178 14.1704 1.91537L14.1704 1.91536C14.1867 1.89896 14.2029 1.88255 14.2111 1.86614L14.9754 1.09495C15.2193 0.857023 15.6015 0.857023 15.8373 1.09495C16.0812 1.33287 16.0812 1.72667 15.8373 1.9646L14.3574 3.45777ZM5.74872 8.00611C5.74872 8.21942 5.77311 8.43273 5.80564 8.62964L2.79711 11.6652C1.98399 10.7135 1.27658 9.56492 0.715535 8.24404C0.650486 8.09636 0.650486 7.91587 0.715535 7.75999C2.4556 3.67428 5.55357 1.23762 8.99305 1.23762H9.00118C10.1639 1.23762 11.2942 1.51656 12.335 2.04163L9.61915 4.78185C9.424 4.74903 9.21259 4.72442 9.00118 4.72442C7.20419 4.72442 5.74872 6.19298 5.74872 8.00611Z" fill="#9E9E9E"/>
</svg>