<svg width="17" height="20" viewBox="0 0 17 20" fill="none" xmlns="http://www.w3.org/2000/svg">
<g id="Group">
<path id="Vector" fill-rule="evenodd" clip-rule="evenodd" d="M8.31794 13.3462C4.45032 13.3462 1.14746 13.931 1.14746 16.2729C1.14746 18.6148 4.42937 19.2205 8.31794 19.2205C12.1856 19.2205 15.4875 18.6348 15.4875 16.2938C15.4875 13.9529 12.2065 13.3462 8.31794 13.3462Z" fill="url(#paint0_linear_132_1960)" stroke="url(#paint1_linear_132_1960)" stroke-width="1.5" stroke-linecap="round" stroke-linejoin="round"/>
<path id="Vector_2" fill-rule="evenodd" clip-rule="evenodd" d="M8.31796 10.0059C10.8561 10.0059 12.9132 7.94779 12.9132 5.40969C12.9132 2.8716 10.8561 0.814453 8.31796 0.814453C5.77986 0.814453 3.72177 2.8716 3.72177 5.40969C3.7132 7.93922 5.75701 9.99731 8.28558 10.0059H8.31796Z" fill="url(#paint2_linear_132_1960)" stroke="url(#paint3_linear_132_1960)" stroke-width="1.42857" stroke-linecap="round" stroke-linejoin="round"/>
</g>
<defs>
<linearGradient id="paint0_linear_132_1960" x1="1.14746" y1="16.3215" x2="15.4875" y2="16.3215" gradientUnits="userSpaceOnUse">
<stop stop-color="#FC1B7C"/>
<stop offset="0.5" stop-color="#714CF4"/>
<stop offset="1" stop-color="#0084F3"/>
</linearGradient>
<linearGradient id="paint1_linear_132_1960" x1="1.14746" y1="16.3215" x2="15.4875" y2="16.3215" gradientUnits="userSpaceOnUse">
<stop stop-color="#FC1B7C"/>
<stop offset="0.5" stop-color="#714CF4"/>
<stop offset="1" stop-color="#0084F3"/>
</linearGradient>
<linearGradient id="paint2_linear_132_1960" x1="3.72174" y1="5.46985" x2="12.9132" y2="5.46985" gradientUnits="userSpaceOnUse">
<stop stop-color="#FC1B7C"/>
<stop offset="0.5" stop-color="#714CF4"/>
<stop offset="1" stop-color="#0084F3"/>
</linearGradient>
<linearGradient id="paint3_linear_132_1960" x1="3.72174" y1="5.46985" x2="12.9132" y2="5.46985" gradientUnits="userSpaceOnUse">
<stop stop-color="#FC1B7C"/>
<stop offset="0.5" stop-color="#714CF4"/>
<stop offset="1" stop-color="#0084F3"/>
</linearGradient>
</defs>
</svg>
