<svg width="18" height="3" viewBox="0 0 18 3" fill="none" xmlns="http://www.w3.org/2000/svg">
<g id="Search results for Dot - Flaticon-12 1" clip-path="url(#clip0_1_3341)">
<g id="Group">
<path id="Vector" d="M1.5 3C2.32843 3 3 2.32843 3 1.5C3 0.671573 2.32843 0 1.5 0C0.671573 0 0 0.671573 0 1.5C0 2.32843 0.671573 3 1.5 3Z" fill="#111111" fill-opacity="0.5"/>
<path id="Vector_2" d="M9 3C9.82843 3 10.5 2.32843 10.5 1.5C10.5 0.671573 9.82843 0 9 0C8.17157 0 7.5 0.671573 7.5 1.5C7.5 2.32843 8.17157 3 9 3Z" fill="#111111" fill-opacity="0.5"/>
<path id="Vector_3" d="M16.5 3C17.3284 3 18 2.32843 18 1.5C18 0.671573 17.3284 0 16.5 0C15.6716 0 15 0.671573 15 1.5C15 2.32843 15.6716 3 16.5 3Z" fill="#111111" fill-opacity="0.5"/>
</g>
</g>
<defs>
<clipPath id="clip0_1_3341">
<rect width="18" height="3" fill="white"/>
</clipPath>
</defs>
</svg>
