<svg width="23" height="22" viewBox="0 0 23 22" fill="none" xmlns="http://www.w3.org/2000/svg">
<g id="Group">
<path id="Exclude" d="M17.3765 1.79069L17.1379 2.50176L17.1446 2.50395L17.3765 1.79069ZM15.5165 1.50069L15.5111 2.25069H15.5165V1.50069ZM21.2865 10.5807L21.9947 10.8274L21.9986 10.8164L22.002 10.8053L21.2865 10.5807ZM18.2775 15.3897L18.7993 15.9285L18.8078 15.92L18.2775 15.3897ZM11.9465 20.3497L12.3343 20.9918L12.3448 20.9851L11.9465 20.3497ZM11.6965 20.5007L11.3016 21.1383L11.6916 21.3798L12.0842 21.1427L11.6965 20.5007ZM11.4365 20.3397L11.0411 20.977L11.0416 20.9773L11.4365 20.3397ZM5.06746 15.3797L4.53536 15.9082L4.541 15.9139L4.54677 15.9195L5.06746 15.3797ZM2.05646 10.5807L1.34198 10.8088L1.34552 10.8199L1.3494 10.8308L2.05646 10.5807ZM5.98746 1.76969L6.22076 2.48258L6.23195 2.47872L5.98746 1.76969ZM6.87646 1.56069V0.810694H6.82791L6.77977 0.816952L6.87646 1.56069ZM6.99646 1.56069V2.31069H7.05089L7.10474 2.30284L6.99646 1.56069ZM7.94646 1.50069L7.96907 0.751035L7.95777 0.750694H7.94646V1.50069ZM9.77746 1.83069L9.53597 2.54075L9.65341 2.58069H9.77746V1.83069ZM9.83646 1.83069L10.1583 1.15324L10.0055 1.08069H9.83646V1.83069ZM9.92646 1.88969L9.4099 2.43345L9.53404 2.55138L9.69706 2.60375L9.92646 1.88969ZM10.5565 2.15069L10.195 2.80786L10.222 2.82272L10.2502 2.83531L10.5565 2.15069ZM10.9365 2.32069L11.2894 1.65893L11.2665 1.6467L11.2427 1.63608L10.9365 2.32069ZM11.2204 2.50916L10.7798 3.11607L10.7798 3.11607L11.2204 2.50916ZM11.3665 2.61069L10.9759 3.25104L10.9854 3.25665L11.3665 2.61069ZM11.4161 2.63976L11.038 3.28748L11.038 3.28748L11.4161 2.63976ZM11.6665 2.79969L11.2101 3.3949L11.6657 3.74418L12.1218 3.39561L11.6665 2.79969ZM18.9665 7.93969L19.7146 7.993L19.7165 7.96638V7.93969H18.9665ZM18.1765 8.70069L18.1052 9.4473L18.1508 9.45165L18.1966 9.45042L18.1765 8.70069ZM18.9665 7.82069L18.2166 7.80464L18.2165 7.81266V7.82069H18.9665ZM16.8565 4.66069L17.1226 3.9595L17.1115 3.95531L17.1004 3.95146L16.8565 4.66069ZM15.8465 5.16069L15.1402 4.90844L15.1375 4.91595L15.1349 4.92352L15.8465 5.16069ZM16.3465 6.18969L16.6095 5.48721L16.5972 5.48286L16.3465 6.18969ZM17.4165 7.79069L18.1639 7.85271L18.1665 7.82175V7.79069H17.4165ZM17.6151 1.07966C16.9291 0.849478 16.2172 0.750694 15.5165 0.750694V2.25069C16.0777 2.25069 16.6258 2.32991 17.1379 2.50173L17.6151 1.07966ZM22.002 10.8053C23.1972 6.99719 21.8036 2.4414 17.6083 1.07744L17.1446 2.50395C20.3313 3.53999 21.5977 7.0842 20.5709 10.3561L22.002 10.8053ZM18.8078 15.92C20.2378 14.49 21.3281 12.7417 21.9947 10.8274L20.5782 10.334C19.9849 12.0377 19.0151 13.5914 17.7471 14.8594L18.8078 15.92ZM12.3448 20.9851C14.6701 19.5274 16.8305 17.835 18.7992 15.9285L17.7557 14.8509C15.8624 16.6844 13.7848 18.312 11.5481 19.7142L12.3448 20.9851ZM12.0842 21.1427L12.3342 20.9917L11.5587 19.7077L11.3087 19.8587L12.0842 21.1427ZM11.0416 20.9773L11.3016 21.1383L12.0913 19.863L11.8313 19.702L11.0416 20.9773ZM4.54677 15.9195C6.5337 17.8361 8.70666 19.5288 11.0411 20.977L11.8318 19.7024C9.58826 18.3106 7.49922 16.6833 5.58815 14.8399L4.54677 15.9195ZM1.3494 10.8308C2.02622 12.7439 3.11677 14.4801 4.53536 15.9082L5.59956 14.8511C4.33815 13.5813 3.3667 12.0355 2.76351 10.3305L1.3494 10.8308ZM5.75419 1.05689C1.52337 2.44146 0.124358 6.99428 1.34198 10.8088L2.77094 10.3526C1.72856 7.08711 2.98955 3.53992 6.22073 2.48249L5.75419 1.05689ZM6.77977 0.816952C6.42946 0.862493 6.08093 0.944124 5.74297 1.06066L6.23195 2.47872C6.47399 2.39526 6.72346 2.33689 6.97315 2.30444L6.77977 0.816952ZM6.99646 0.810694H6.87646V2.31069H6.99646V0.810694ZM7.83646 0.750694C7.52221 0.750694 7.20695 0.77204 6.88818 0.818552L7.10474 2.30284C7.34797 2.26735 7.5907 2.25069 7.83646 2.25069V0.750694ZM7.94646 0.750694H7.83646V2.25069H7.94646V0.750694ZM10.019 1.12064C9.35674 0.895418 8.67293 0.772262 7.96907 0.751035L7.92385 2.25035C8.47999 2.26713 9.01618 2.36397 9.53597 2.54075L10.019 1.12064ZM9.83646 1.08069H9.77746V2.58069H9.83646V1.08069ZM10.443 1.34594C10.356 1.26328 10.2569 1.20008 10.1583 1.15324L9.51467 2.50815C9.49606 2.49931 9.45691 2.4781 9.4099 2.43345L10.443 1.34594ZM10.9179 1.49353C10.6595 1.3514 10.4005 1.25425 10.1559 1.17564L9.69706 2.60375C9.89437 2.66714 10.0534 2.72999 10.195 2.80786L10.9179 1.49353ZM11.2427 1.63608L10.8627 1.46608L10.2502 2.83531L10.6302 3.00531L11.2427 1.63608ZM11.6611 1.90225C11.5839 1.84621 11.4362 1.73723 11.2894 1.65893L10.5835 2.98246C10.6203 3.0021 10.6788 3.04278 10.7798 3.11607L11.6611 1.90225ZM11.757 1.97041C11.7584 1.97123 11.7515 1.96699 11.7315 1.95291C11.7124 1.93951 11.6904 1.92358 11.6611 1.90225L10.7798 3.11607C10.8259 3.14957 10.9053 3.2079 10.9759 3.25097L11.757 1.97041ZM11.7942 1.99205C11.7772 1.98212 11.7621 1.97333 11.7476 1.96474L10.9854 3.25665C11.0034 3.26731 11.0215 3.27788 11.038 3.28748L11.7942 1.99205ZM12.1228 2.20449C12.0031 2.11274 11.8709 2.0368 11.7942 1.99204L11.038 3.28748C11.1328 3.34283 11.1792 3.37117 11.2101 3.3949L12.1228 2.20449ZM15.5219 0.750713C13.9617 0.739489 12.4513 1.25603 11.2111 2.20377L12.1218 3.39561C13.1036 2.64536 14.2913 2.2419 15.5111 2.25067L15.5219 0.750713ZM18.2184 7.88638C18.2173 7.90132 18.2108 7.91742 18.1957 7.93186C18.1799 7.94693 18.1647 7.95074 18.1563 7.95096L18.1966 9.45042C18.9919 9.42909 19.6571 8.79918 19.7146 7.993L18.2184 7.88638ZM18.2165 7.82069V7.93969H19.7165V7.82069H18.2165ZM16.5903 5.36189C17.5796 5.73738 18.24 6.71568 18.2166 7.80464L19.7163 7.83675C19.753 6.12371 18.7153 4.56401 17.1226 3.9595L16.5903 5.36189ZM16.5528 5.41295C16.5607 5.39063 16.5739 5.37879 16.586 5.37279C16.598 5.36686 16.606 5.36766 16.6126 5.36993L17.1004 3.95146C16.2881 3.67213 15.4233 4.11549 15.1402 4.90844L16.5528 5.41295ZM16.5972 5.48286C16.5672 5.47219 16.5456 5.43511 16.558 5.39787L15.1349 4.92352C14.8674 5.72628 15.2858 6.6092 16.0957 6.89653L16.5972 5.48286ZM18.1665 7.75969C18.1665 6.75817 17.5528 5.84053 16.6094 5.48731L16.0835 6.89208C16.4221 7.01885 16.6665 7.36322 16.6665 7.75969H18.1665ZM18.1665 7.79069V7.75969H16.6665V7.79069H18.1665ZM18.1854 7.93391C18.1725 7.9183 18.1607 7.89169 18.1639 7.85271L16.669 7.72868C16.6343 8.14769 16.7604 8.56309 17.0275 8.88747L18.1854 7.93391ZM18.2477 7.95409C18.2253 7.95194 18.2076 7.94609 18.1962 7.9404C18.1853 7.93499 18.1834 7.93147 18.1854 7.93391L17.0275 8.88747C17.3114 9.23225 17.7156 9.41011 18.1052 9.4473L18.2477 7.95409Z" fill="#9E9E9E"/>
</g>
</svg>
