<svg width="32" height="32" viewBox="0 0 32 32" fill="none" xmlns="http://www.w3.org/2000/svg">
<g id="chinhsua">
<g id="Component 89 &#226;&#128;&#147; 4">
<g id="Group 6741">
<path id="Path 6095" d="M14.0288 0.970994C13.7215 0.663184 13.3565 0.418987 12.9548 0.252373C12.5531 0.0857599 12.1224 0 11.6875 0C11.2526 0 10.822 0.0857599 10.4203 0.252373C10.0185 0.418987 9.6536 0.663184 9.34633 0.970994L0.761538 9.55285C0.695392 9.61931 0.652801 9.70558 0.640264 9.79851L-2.40658e-05 14.5114C-0.00895856 14.5768 -0.00266211 14.6434 0.0183742 14.706C0.0394105 14.7686 0.0746179 14.8254 0.12125 14.8722C0.203114 14.9538 0.313986 14.9996 0.429575 14.9996C0.448727 15.0012 0.467977 15.0012 0.487129 14.9996L3.32474 14.6162C3.43827 14.601 3.54109 14.5412 3.61057 14.4501C3.68005 14.3591 3.71051 14.2441 3.69525 14.1306C3.67998 14.017 3.62025 13.9142 3.52918 13.8447C3.43811 13.7752 3.32316 13.7447 3.20964 13.76L0.9342 14.0684L1.37819 10.7791L4.83656 14.238C4.91756 14.3166 5.02585 14.3608 5.13872 14.3613C5.19607 14.3621 5.25296 14.3511 5.30596 14.3292C5.35896 14.3073 5.40696 14.2749 5.44705 14.2339L14.0318 5.65098C14.3398 5.3438 14.5842 4.97885 14.751 4.57705C14.9177 4.17524 15.0036 3.74448 15.0036 3.30944C15.0036 2.87441 14.9177 2.44364 14.751 2.04184C14.5842 1.64004 14.3398 1.27509 14.0318 0.967911L14.0288 0.970994ZM9.51282 2.02664L10.9517 3.46568L3.12022 11.3013L1.68137 9.86224L9.51282 2.02664ZM5.13872 13.3221L3.73379 11.9119L11.5673 4.08242L12.9763 5.49165L5.13872 13.3221ZM13.5735 4.87081L10.1295 1.42121C10.5997 1.03585 11.1964 0.839082 11.8035 0.869145C12.4107 0.899208 12.9851 1.15395 13.4149 1.58388C13.8448 2.01381 14.0995 2.58821 14.1296 3.19547C14.1596 3.80274 13.9629 4.39949 13.5776 4.86978L13.5735 4.87081Z" fill="#4D4C4C"/>
</g>
</g>
</g>
</svg>
