<svg xmlns="http://www.w3.org/2000/svg" width="332" height="217" fill="none" viewBox="0 0 332 217">
  <g clip-path="url(#a)">
    <path fill="#EBEBEB" d="M52.371 190.05c7.459-6.771 7.95-17.622 6.397-27.12-.259-1.585-.3-3.286-1.239-4.586-.939-1.299-2.831-2.027-4.173-1.173-1.113.709-1.452 2.151-1.968 3.374a9.39 9.39 0 0 1-3.28 4.047c-.948.657-2.162 1.14-3.236.717-1.473-.581-1.88-2.458-2.074-4.043l-1.086-8.863c-.194-1.584-.398-3.202-1.085-4.642-.687-1.44-1.957-2.696-3.52-2.924-1.563-.228-3.317.88-3.436 2.472-.05.662.169 1.314.21 1.977.04.663-.173 1.43-.775 1.693-.609.268-1.302-.1-1.835-.502-1.844-1.389-3.22-3.306-4.522-5.222-1.302-1.915-2.58-3.883-4.29-5.436s-3.943-2.671-6.23-2.508c-2.289.163-4.529 1.874-4.816 4.174-.287 2.307 1.309 4.405 2.961 6.03a35.721 35.721 0 0 0 8.276 6.069c.545.29 1.137.603 1.404 1.165.48 1.012-.387 2.189-1.386 2.67-1.131.546-2.43.588-3.648.892-1.218.304-2.488 1.021-2.805 2.249-.441 1.702 1.133 3.224 2.61 4.164a30.604 30.604 0 0 0 9.643 4.021c1.222.276 2.498.492 3.544 1.19 1.047.698 1.798 2.048 1.373 3.236-.424 1.19-1.837 1.735-3.089 1.665-1.25-.069-2.43-.591-3.652-.88-2.285-.541-5.08-.03-6.234 2.03-.759 1.354-.618 3.087.037 4.501.653 1.414 1.758 2.563 2.908 3.605 4.021 3.643 8.918 6.364 14.2 7.464 5.281 1.101 10.027.973 14.816-1.507"/>
    <path fill="#E0E0E0" d="M53.408 197.106c-.833-3.734-2.238-8.091-4.273-12.72-2.027-4.633-4.67-9.528-7.61-14.553l-2.192-3.713c-.722-1.217-1.438-2.424-2.21-3.561-1.538-2.282-3.19-4.358-4.819-6.28-1.63-1.924-3.246-3.69-4.769-5.33-1.527-1.637-2.98-3.137-4.362-4.448a56.872 56.872 0 0 0-6.977-5.692 52.665 52.665 0 0 0-2.58-1.685 1.305 1.305 0 0 0-.19-.105 1.08 1.08 0 0 0 .173.131l.525.359c.462.313 1.144.776 2.007 1.395a59.976 59.976 0 0 1 6.9 5.751c1.369 1.316 2.809 2.82 4.326 4.463 1.515 1.647 3.122 3.416 4.742 5.34 1.62 1.922 3.26 3.994 4.785 6.265.768 1.132 1.476 2.329 2.199 3.55l2.189 3.711c2.937 5.021 5.581 9.9 7.616 14.514 2.042 4.608 3.462 8.94 4.318 12.655"/>
    <path fill="#E0E0E0" d="M37.037 162.559c.02 0 .043-.247.068-.696.027-.448.045-1.098.055-1.901.02-1.606-.026-3.824-.087-6.27-.06-2.447-.076-4.659-.03-6.26.02-.801.043-1.448.065-1.896.02-.448.02-.697 0-.699-.02-.002-.06.243-.114.689a29.869 29.869 0 0 0-.158 1.896c-.1 1.605-.117 3.827-.056 6.276l.172 6.264.04 1.899c.01.448.025.697.046.698Z"/>
    <path fill="#E0E0E0" d="M16.155 161.374c.002.02.297.016.826-.008.53-.02 1.295-.054 2.242-.066 1.894-.039 4.511-.001 7.397.167 2.887.173 5.493.441 7.372.689.94.118 1.7.233 2.224.31.525.079.817.113.82.093.004-.021-.28-.093-.8-.207a39.687 39.687 0 0 0-2.216-.404c-1.877-.302-4.488-.604-7.384-.778-2.894-.168-5.522-.173-7.42-.081a34.26 34.26 0 0 0-2.244.162c-.528.059-.819.101-.817.122v.001Zm32.68 22.67c.01.003.047-.089.108-.267l.254-.781c.217-.68.506-1.671.847-2.901.683-2.459 1.52-5.885 2.392-9.679.873-3.794 1.676-7.224 2.307-9.694l.756-2.923.201-.796c.043-.183.061-.281.051-.284-.01-.003-.046.089-.107.267-.07.211-.153.468-.254.78-.218.68-.506 1.671-.848 2.901-.683 2.459-1.52 5.885-2.392 9.68-.872 3.794-1.676 7.223-2.307 9.693l-.756 2.923-.201.797c-.043.183-.06.281-.05.284Z"/>
    <path fill="#E0E0E0" d="M20.615 178.805c-.002.011.096.036.283.076l.82.163 3.023.566c2.553.479 6.07 1.18 9.955 1.961 3.887.781 7.415 1.45 9.977 1.876 1.282.214 2.32.375 3.04.473l.83.108c.19.021.291.027.292.016.002-.009-.096-.035-.283-.076l-.821-.162-3.022-.566a883.23 883.23 0 0 1-9.957-1.961c-3.886-.78-7.413-1.45-9.976-1.876a113.3 113.3 0 0 0-3.04-.473l-.83-.107c-.19-.022-.29-.028-.291-.017v-.001Z"/>
    <path fill="#EBEBEB" d="M85.917 67.658a1.997 1.997 0 0 1-1.275 2.522 1.997 1.997 0 1 1-1.25-3.795 2.001 2.001 0 0 1 2.525 1.273Z"/>
    <path fill="#EBEBEB" d="M85.433 67.117c-.069.101-1.824-1.066-3.68-2.854-1.845-1.787-3.318-3.234-3.25-3.32.085-.103 1.713 1.218 3.553 3 1.84 1.774 3.447 3.075 3.377 3.174Z"/>
    <path fill="#EBEBEB" d="M81.318 57.699c.115 0 .037 1.124-.807 2.157-.834 1.041-1.917 1.354-1.942 1.242-.055-.118.85-.575 1.6-1.519.766-.93 1.022-1.909 1.149-1.88Zm1.415 1.516c.117-.012.087 1.11-.809 2.06-.885.96-2.003 1.07-2 .953-.034-.125.904-.403 1.678-1.253.792-.831 1.004-1.785 1.13-1.76Zm228.68-27.865c-.64.9-1.889 1.11-2.789.471a1.996 1.996 0 0 1-.472-2.786 2.003 2.003 0 0 1 2.79-.47c.9.64 1.111 1.886.471 2.786Z"/>
    <path fill="#EBEBEB" d="M311.562 30.64c-.123.005-.223-2.098.118-4.65.347-2.544.639-4.586.749-4.582.134.006.034 2.1-.312 4.635-.338 2.532-.434 4.595-.555 4.597Z"/>
    <path fill="#EBEBEB" d="M316.714 21.746c.067.092-.884.696-2.218.63-1.334-.052-2.228-.738-2.153-.824.063-.114.967.343 2.173.385 1.204.063 2.146-.31 2.198-.191Zm-.383 2.036c.079.088-.843.73-2.14.573-1.3-.142-2.052-.976-1.954-1.043.08-.101.86.487 2.004.606 1.141.144 2.035-.252 2.09-.135Z"/>
    <path fill="#F5F5F5" d="M61.341 129.814a3.115 3.115 0 0 1-3.985 1.868 3.108 3.108 0 0 1-1.871-3.98 3.114 3.114 0 0 1 3.985-1.868 3.108 3.108 0 0 1 1.871 3.98Z"/>
    <path fill="#F5F5F5" d="M61.268 128.687c-.182.059-1.211-3.054-1.767-7.022-.544-3.958-.96-7.142-.793-7.182.203-.045.928 3.135 1.47 7.08.552 3.936 1.27 7.07 1.09 7.123v.001Z"/>
    <path fill="#F5F5F5" d="M65.274 113.204c.14.111-1.034 1.413-3.061 1.87-2.023.477-3.65-.177-3.573-.339.046-.197 1.593.11 3.418-.328 1.833-.407 3.087-1.361 3.216-1.204v.001Zm.276 3.214c.157.098-.959 1.443-2.97 1.749-2.007.329-3.483-.607-3.365-.749.077-.185 1.494.372 3.258.073 1.77-.259 2.946-1.226 3.077-1.073Z"/>
    <path fill="#E0E0E0" d="M97.874 43.227a3.653 3.653 0 0 1-5.078-.922 3.64 3.64 0 0 1 .924-5.07 3.652 3.652 0 0 1 5.077.922 3.64 3.64 0 0 1-.923 5.07Z"/>
    <path fill="#E0E0E0" d="M98.571 42.102c-.335-.107.712-3.832 2.888-8.009 2.178-4.153 4.037-7.415 4.34-7.29.344.143-1.043 3.73-3.21 7.862-2.149 4.124-3.687 7.547-4.018 7.437Z"/>
    <path fill="#E0E0E0" d="M115.071 34.127c-.009.295-3.057.256-6.143-1.767-1.525-.99-2.634-2.315-3.125-3.43-.519-1.12-.391-1.93-.24-1.934.195-.026.382.638 1.019 1.492.615.863 1.664 1.918 3.047 2.819 2.76 1.83 5.527 2.43 5.442 2.82Zm-7.926 16.424a3.652 3.652 0 0 1-5.077-.922 3.64 3.64 0 0 1 .923-5.07 3.652 3.652 0 0 1 5.077.923 3.64 3.64 0 0 1-.923 5.07Z"/>
    <path fill="#E0E0E0" d="M107.843 49.426c-.335-.107.712-3.833 2.888-8.01 2.178-4.152 4.037-7.414 4.34-7.29.344.144-1.044 3.732-3.211 7.863-2.149 4.123-3.686 7.547-4.017 7.437Z"/>
    <path fill="#E0E0E0" d="M114.027 36.386c.026.33-2.888.483-5.848-1.311-2.977-1.769-4.208-4.41-3.904-4.542.31-.204 1.876 1.88 4.556 3.458 2.652 1.622 5.231 2.026 5.195 2.395h.001Zm210.6 31.683a3.652 3.652 0 0 0 5.077-.923 3.64 3.64 0 0 0-.923-5.07 3.652 3.652 0 0 0-5.077.923 3.64 3.64 0 0 0 .923 5.07Z"/>
    <path fill="#E0E0E0" d="M323.93 66.943c.335-.107-.712-3.832-2.888-8.008-2.178-4.153-4.037-7.415-4.34-7.29-.344.142 1.043 3.73 3.21 7.861 2.149 4.124 3.687 7.548 4.018 7.437Z"/>
    <path fill="#E0E0E0" d="M307.43 58.968c.009.295 3.057.257 6.143-1.766 1.525-.99 2.634-2.315 3.125-3.431.519-1.12.391-1.93.24-1.933-.195-.027-.382.637-1.019 1.491-.615.863-1.664 1.918-3.047 2.82-2.76 1.828-5.527 2.429-5.442 2.819Zm7.926 16.424a3.653 3.653 0 0 0 5.077-.922 3.64 3.64 0 0 0-.924-5.07 3.652 3.652 0 0 0-5.077.922 3.64 3.64 0 0 0 .924 5.07Z"/>
    <path fill="#E0E0E0" d="M314.658 74.267c.335-.107-.712-3.833-2.888-8.009-2.178-4.153-4.037-7.415-4.34-7.29-.344.144 1.044 3.731 3.21 7.862 2.15 4.124 3.687 7.548 4.018 7.437Z"/>
    <path fill="#E0E0E0" d="M308.474 61.227c-.026.33 2.887.483 5.847-1.311 2.977-1.768 4.208-4.41 3.904-4.541-.31-.205-1.876 1.88-4.556 3.457-2.652 1.623-5.23 2.025-5.195 2.395ZM93.847 97.296a2.72 2.72 0 0 1-5.325-1.1 2.72 2.72 0 0 1 5.325 1.1Z"/>
    <path fill="#E0E0E0" d="M93.644 96.33c-.236.115-1.589-2.43-2.565-5.8-.964-3.358-1.64-6.071-1.413-6.16.26-.099 1.358 2.548 2.316 5.888.963 3.327 1.897 5.963 1.662 6.073Z"/>
    <path fill="#E0E0E0" d="M98.436 83.561c.147.164-1.516 1.708-4.222 2.201-1.332.248-2.612.103-3.451-.246-.857-.337-1.205-.84-1.125-.92.091-.115.534.148 1.318.282.776.15 1.884.18 3.094-.043 2.43-.43 4.231-1.527 4.386-1.274Zm4.181 12.926a2.719 2.719 0 0 1-5.325-1.1 2.719 2.719 0 0 1 5.325 1.1Z"/>
    <path fill="#E0E0E0" d="M102.414 95.522c-.236.114-1.589-2.432-2.565-5.802-.964-3.357-1.64-6.07-1.413-6.159.26-.099 1.358 2.548 2.316 5.888.964 3.327 1.898 5.963 1.662 6.073Z"/>
    <path fill="#E0E0E0" d="M99.036 85.315c.184.164-1.308 1.743-3.828 2.294-2.516.575-4.54-.218-4.443-.445.061-.27 1.98.05 4.236-.474 2.266-.486 3.864-1.593 4.035-1.376v.001ZM107.1 71.66a1.346 1.346 0 0 1-1.851-.435 1.345 1.345 0 0 1 2.287-1.412c.391.63.195 1.458-.436 1.848Z"/>
    <path fill="#E0E0E0" d="M107.378 71.26c-.121-.046.335-1.398 1.215-2.893.881-1.487 1.627-2.653 1.737-2.6.123.059-.456 1.353-1.332 2.832-.87 1.476-1.501 2.707-1.621 2.66h.001Z"/>
    <path fill="#E0E0E0" d="M113.603 68.639c-.009.108-1.13.036-2.228-.767-.542-.394-.925-.902-1.084-1.323-.17-.421-.107-.717-.052-.715.073-.006.129.242.347.568.21.33.576.737 1.067 1.096.981.725 1.988.999 1.95 1.14Zm-3.231 5.893c-.632.39-1.46.195-1.851-.436a1.342 1.342 0 0 1 .437-1.848 1.346 1.346 0 0 1 1.851.436c.39.631.195 1.459-.437 1.848Z"/>
    <path fill="#E0E0E0" d="M110.65 74.131c-.121-.045.335-1.397 1.216-2.892.88-1.487 1.627-2.652 1.736-2.6.124.059-.455 1.353-1.332 2.832-.869 1.477-1.501 2.707-1.62 2.66Z"/>
    <path fill="#E0E0E0" d="M113.175 69.45c.004.122-1.072.123-2.127-.594-1.062-.707-1.464-1.703-1.35-1.745.118-.07.655.727 1.611 1.359.945.648 1.886.845 1.866.98ZM65.074 97.736H17.253l.672-67.493 46.63-.298.519 67.791Z"/>
    <path fill="#fff" d="M60.64 30.243H14.007v67.493H60.64V30.243Z"/>
    <path fill="#E0E0E0" d="M61.018 98.114h-47.39v-68.25h47.39v68.25Zm-46.634-.755h45.878V30.62H14.384v66.738Z"/>
    <path fill="#fff" d="M54.846 37.553H19.8v52.874h35.046V37.553Z"/>
    <path fill="#E0E0E0" d="M54.846 90.427s-.007-.093-.01-.263l-.01-.753-.023-2.907-.048-10.899-.09-38.052.181.18-35.041.017H19.8l.197-.197c-.015 19.945-.03 38.333-.04 52.874l-.157-.157 25.491.082 7.054.04 1.856.018c.42.005.645.017.645.017s-.202.011-.612.016l-1.826.018-7.018.04-25.59.082h-.156v-.156l-.04-52.874v-.197h.201l35.042.017h.18v.18l-.089 38.171-.048 10.858-.022 2.87-.01.734a1.86 1.86 0 0 1-.012.24Z"/>
    <path fill="#E0E0E0" d="M60.77 30.243c.083.064-1.126 1.79-2.75 3.825-1.627 2.034-3.095 3.556-3.174 3.485-.083-.073 1.246-1.704 2.867-3.73 1.618-2.028 2.968-3.65 3.058-3.58Zm-.13 67.493c-.085.067-1.451-1.514-3.051-3.533s-2.828-3.71-2.743-3.777c.085-.068 1.451 1.514 3.051 3.533 1.6 2.018 2.828 3.71 2.743 3.777Z"/>
    <path fill="#fff" d="m14 97.683 6.108-7.526L14 97.683Z"/>
    <path fill="#E0E0E0" d="M20.108 90.157c.084.069-1.215 1.81-2.9 3.887-1.688 2.078-3.124 3.707-3.208 3.639-.085-.068 1.214-1.809 2.9-3.887 1.687-2.077 3.123-3.707 3.208-3.638Zm-6.101-59.914c.085-.067 1.437 1.497 3.02 3.495 1.582 1.999 2.796 3.673 2.71 3.74-.085.068-1.437-1.497-3.02-3.496-1.582-1.997-2.796-3.672-2.71-3.74Z"/>
    <path fill="#EBEBEB" d="M37.323 44.845c-7.169 0-12.98 5.803-12.98 12.962 0 7.158 5.811 12.962 12.98 12.962 7.17 0 12.98-5.804 12.98-12.962 0-7.159-5.81-12.962-12.98-12.962Zm0 16.37a3.41 3.41 0 0 1-3.412-3.408 3.41 3.41 0 0 1 3.412-3.407 3.41 3.41 0 0 1 3.412 3.407 3.41 3.41 0 0 1-3.412 3.407Zm6.501 15.513H30.822v2.184h13.002v-2.184Z"/>
    <path fill="#263238" d="M332 192.805c0 .071-74.327.13-165.992.13-91.665 0-166.008-.059-166.008-.13 0-.072 74.311-.13 166.008-.13s165.992.059 165.992.13Z"/>
    <path fill="#F5F5F5" d="m277.924 33.585-10.729-.006c-1.438 0-2.606 1.216-2.606 2.718l-.001 1.943c0 1.502-1.166 2.72-2.605 2.718l-20.913-.012c-1.439 0-2.605-1.22-2.605-2.721v-1.943c.001-1.502-1.166-2.72-2.604-2.721l-3.774-.003-9.39-.005c-4.663-.003-8.446 3.771-8.447 8.428l-.026 135.212c-.001 4.654 3.776 8.429 8.437 8.431l55.226.033c4.664.003 8.446-3.771 8.447-8.429l.027-135.212c0-4.654-3.776-8.428-8.437-8.43Z"/>
    <path fill="#263238" d="M277.924 33.585s.097 0 .289.008c.191.018.482-.004.855.066.749.088 1.888.33 3.168 1.091a8.486 8.486 0 0 1 3.536 4.076c.418 1.003.644 2.174.633 3.423l.005 3.974.031 47.563.014 70.54v12.634c-.009.856-.064 1.739-.323 2.574-.244.835-.59 1.65-1.08 2.379a9.112 9.112 0 0 1-1.76 1.95c-1.374 1.102-3.097 1.805-4.881 1.892-1.772.052-3.528.013-5.306.024l-10.752-.005-22.066-.011a1506837.984 1506837.984 0 0 0-16.986-.009c-1.913.098-3.903-.407-5.504-1.518-1.609-1.103-2.797-2.77-3.351-4.621-.298-.922-.353-1.908-.353-2.855l.001-2.842.002-11.273.006-22.039.016-41.662.02-37.7.011-17.086.001-2.045c.005-.34.03-.683.048-1.023.059-.335.085-.677.173-1.005a8.618 8.618 0 0 1 1.777-3.576 8.797 8.797 0 0 1 3.134-2.339c1.189-.536 2.496-.725 3.756-.71l7.359.01c1.196 0 2.376.002 3.54.004l1.735.002c.58-.029 1.188.13 1.665.465a2.79 2.79 0 0 1 1.035 1.358c.217.543.165 1.129.172 1.667.011.544-.028 1.106.025 1.623.067.521.288 1.02.629 1.408.335.395.794.677 1.287.798.491.124 1.023.058 1.537.076l3.047.005 11.133.017 4.908.009c.386-.007.782.017 1.149-.015.37-.042.724-.17 1.031-.362a2.663 2.663 0 0 0 1.182-1.696c.077-.336.064-.68.066-1.022l.002-1.008c.005-.329-.015-.66.045-.984a2.84 2.84 0 0 1 .319-.904c.305-.556.8-.976 1.35-1.191.555-.241 1.146-.168 1.678-.179l5.476.015 3.367.015c.759.005 1.148.014 1.148.014s-.389.009-1.148.013l-3.367.01-5.476.01c-.539.013-1.115-.056-1.647.179-.532.21-1.01.618-1.303 1.157a2.777 2.777 0 0 0-.306.876c-.058.31-.037.637-.04.969l.001 1.008c-.002.338.014.693-.066 1.044a2.765 2.765 0 0 1-1.223 1.765 2.58 2.58 0 0 1-1.076.38c-.392.035-.769.01-1.162.018l-4.908.003-11.132.004h-3.825a3.013 3.013 0 0 1-.796-.077 2.64 2.64 0 0 1-1.367-.845 2.82 2.82 0 0 1-.668-1.489c-.057-.558-.016-1.09-.029-1.644-.007-.55.041-1.104-.165-1.612a2.628 2.628 0 0 0-.975-1.276 2.546 2.546 0 0 0-1.572-.434h-12.634c-1.248-.013-2.515.172-3.681.698a8.615 8.615 0 0 0-3.062 2.29 8.438 8.438 0 0 0-1.733 3.496c-.085.32-.109.655-.168.982-.017.334-.041.665-.045 1.003v2.045l.004 17.085.005 37.7-.001 41.663-.002 22.039-.002 11.273v2.842c0 .945.053 1.882.342 2.781.538 1.794 1.689 3.412 3.25 4.482 1.561 1.077 3.461 1.566 5.356 1.472l5.7.003 11.286.007 22.066.015 10.752.008c1.771-.01 3.55.028 5.291-.022 1.733-.084 3.404-.766 4.74-1.835a8.903 8.903 0 0 0 1.71-1.895c.477-.708.813-1.498 1.049-2.309.253-.813.306-1.66.316-2.508l.001-2.557.005-10.077.041-70.54.05-47.563.007-3.974c.015-1.24-.205-2.398-.615-3.394a8.448 8.448 0 0 0-3.491-4.06 8.007 8.007 0 0 0-3.145-1.11c-.372-.075-.662-.056-.853-.079a9.158 9.158 0 0 1-.288-.021v.001Z"/>
    <path fill="url(#b)" fill-opacity=".7" d="M276.558 115.558h-1.161a2.275 2.275 0 0 0-2.276 2.273v.647a2.274 2.274 0 0 0 2.276 2.272h1.161a2.274 2.274 0 0 0 2.276-2.272v-.647a2.275 2.275 0 0 0-2.276-2.273Z"/>
    <path fill="url(#c)" fill-opacity=".7" d="M264.921 116.813c-.321-.046-.65.244-.683.602-.033-.358-.362-.648-.683-.602-.321.046-.573.419-.523.775.045.318.282.556.524.733.241.177.511.332.682.592.171-.259.441-.415.683-.592.241-.177.479-.415.524-.733.05-.356-.202-.729-.524-.775Z"/>
    <path fill="#263238" d="M268.657 117.86a.314.314 0 1 1-.628 0 .314.314 0 0 1 .628 0Zm1.015 0a.314.314 0 1 1-.628 0 .314.314 0 0 1 .628 0Zm1.015 0a.315.315 0 1 1-.63-.001.315.315 0 0 1 .63.001Zm-16.471 2.15c0 .072-4.507.13-10.066.13-5.559 0-10.067-.058-10.067-.13 0-.071 4.506-.129 10.067-.129s10.066.058 10.066.129Zm-11.326 1.648c0 .071-1.943.129-4.339.129-2.395 0-4.339-.058-4.339-.129 0-.071 1.943-.13 4.339-.13 2.397 0 4.339.059 4.339.13Z"/>
    <path fill="url(#d)" fill-opacity=".7" d="M226.594 114.142a4.196 4.196 0 0 0-4.199 4.193 4.196 4.196 0 0 0 4.199 4.192 4.196 4.196 0 0 0 4.199-4.192 4.196 4.196 0 0 0-4.199-4.193Zm0 5.295a1.103 1.103 0 1 1 0-2.206 1.103 1.103 0 0 1 0 2.206Z"/>
    <path fill="#263238" d="M278.175 82.166c0 .072-12.488.13-27.888.13-15.401 0-27.892-.059-27.892-.13 0-.071 12.486-.13 27.892-.13 15.406 0 27.888.059 27.888.13Zm0 14.806c0 .071-12.488.13-27.888.13-15.401 0-27.892-.06-27.892-.13 0-.072 12.486-.13 27.892-.13 15.406 0 27.888.058 27.888.13Zm0 14.806c0 .072-12.488.13-27.888.13-15.401 0-27.892-.058-27.892-.13 0-.071 12.486-.129 27.892-.129 15.406 0 27.888.058 27.888.129Zm0 14.806c0 .072-12.488.129-27.888.129-15.401 0-27.892-.058-27.892-.129 0-.071 12.486-.129 27.892-.129 15.406 0 27.888.058 27.888.129Zm0 14.806c0 .072-12.488.13-27.888.13-15.401 0-27.892-.059-27.892-.13 0-.071 12.486-.129 27.892-.129 15.406 0 27.888.058 27.888.129Z"/>
    <path fill="#E0E0E0" d="M278.175 156.196c0 .072-12.488.13-27.888.13-15.401 0-27.892-.058-27.892-.13 0-.071 12.486-.129 27.892-.129 15.406 0 27.888.058 27.888.129Z"/>
    <path fill="#263238" d="M260.297 70.82c0 .072-4.536.13-10.131.13-5.595 0-10.132-.058-10.132-.13 0-.07 4.536-.13 10.132-.13s10.131.06 10.131.13Z"/>
    <path fill="url(#e)" fill-opacity=".7" d="M249.802 117.307H234.01v.773h15.792v-.773Z"/>
    <path fill="#455A64" d="M276.558 87.016h-1.161a2.274 2.274 0 0 0-2.276 2.272v.647a2.274 2.274 0 0 0 2.276 2.273h1.161a2.274 2.274 0 0 0 2.276-2.273v-.647a2.274 2.274 0 0 0-2.276-2.272Zm-49.964-1.577a4.196 4.196 0 0 0-4.199 4.193 4.196 4.196 0 0 0 4.199 4.192 4.196 4.196 0 0 0 4.199-4.192 4.196 4.196 0 0 0-4.199-4.193Zm0 5.294a1.103 1.103 0 1 1 0-2.205 1.103 1.103 0 0 1 0 2.205Zm38.327-2.463c-.321-.046-.65.245-.683.602-.033-.358-.362-.648-.683-.602-.321.046-.573.42-.523.776.045.317.282.555.524.733.241.177.511.332.682.592.171-.26.441-.415.683-.592.241-.178.479-.416.524-.733.05-.356-.202-.73-.524-.776Z"/>
    <path fill="#263238" d="M268.657 89.318a.313.313 0 1 1-.627 0 .313.313 0 0 1 .627 0Zm1.015 0a.313.313 0 1 1-.627 0 .313.313 0 0 1 .627 0Zm1.015 0a.314.314 0 1 1-.628 0 .314.314 0 0 1 .628 0Z"/>
    <path fill="#fff" d="M275.498 88.754c-.002.417.003 1.036.007 1.453a.229.229 0 0 0 .366.18l.972-.72a.229.229 0 0 0 0-.368l-.978-.726a.228.228 0 0 0-.366.18h-.001Z"/>
    <path fill="#455A64" d="M249.803 87.99h-15.792v.773h15.792v-.773Z"/>
    <path fill="#263238" d="M254.216 91.468c0 .072-4.507.13-10.066.13-5.559 0-10.067-.059-10.067-.13 0-.071 4.506-.13 10.067-.13s10.066.059 10.066.13Zm-11.326 1.647c0 .072-1.943.13-4.339.13-2.395 0-4.339-.059-4.339-.13 0-.07 1.943-.13 4.339-.13 2.397 0 4.339.06 4.339.13Z"/>
    <path fill="#455A64" d="M276.558 131.073h-1.161a2.274 2.274 0 0 0-2.276 2.273v.646a2.274 2.274 0 0 0 2.276 2.273h1.161a2.274 2.274 0 0 0 2.276-2.273v-.646a2.274 2.274 0 0 0-2.276-2.273Zm-49.964-1.577a4.196 4.196 0 0 0-4.199 4.193 4.196 4.196 0 0 0 4.199 4.192 4.196 4.196 0 0 0 4.199-4.192 4.196 4.196 0 0 0-4.199-4.193Zm0 5.295a1.103 1.103 0 1 1 0-2.206 1.103 1.103 0 0 1 0 2.206Zm38.327-2.463c-.321-.046-.65.243-.683.602-.033-.359-.362-.648-.683-.602-.321.046-.573.419-.523.775.045.317.282.555.524.733.241.177.511.332.682.592.171-.26.441-.415.683-.592.241-.178.479-.416.524-.733.05-.356-.202-.729-.524-.775Z"/>
    <path fill="#263238" d="M268.657 133.375a.314.314 0 1 1-.628 0 .314.314 0 0 1 .628 0Zm1.015 0a.314.314 0 1 1-.628 0 .314.314 0 0 1 .628 0Zm1.015 0a.315.315 0 0 1-.628 0 .314.314 0 0 1 .628 0Z"/>
    <path fill="#fff" d="M275.498 132.811c-.002.417.003 1.036.007 1.454a.229.229 0 0 0 .366.18l.972-.721a.23.23 0 0 0 0-.368l-.978-.726a.229.229 0 0 0-.366.181h-.001Z"/>
    <path fill="#455A64" d="M249.803 132.047h-15.792v.773h15.792v-.773Z"/>
    <path fill="#263238" d="M254.216 135.525c0 .072-4.507.129-10.066.129-5.559 0-10.067-.058-10.067-.129 0-.071 4.506-.129 10.067-.129s10.066.058 10.066.129Zm-11.326 1.647c0 .072-1.943.13-4.339.13-2.395 0-4.339-.058-4.339-.13 0-.071 1.943-.129 4.339-.129 2.397 0 4.339.058 4.339.129Z"/>
    <path fill="#E0E0E0" d="M276.558 146.281h-1.161a2.274 2.274 0 0 0-2.276 2.273v.646a2.274 2.274 0 0 0 2.276 2.273h1.161a2.274 2.274 0 0 0 2.276-2.273v-.646a2.274 2.274 0 0 0-2.276-2.273Zm-49.964-1.577a4.196 4.196 0 0 0-4.199 4.193 4.196 4.196 0 0 0 4.199 4.192 4.196 4.196 0 0 0 4.199-4.192 4.196 4.196 0 0 0-4.199-4.193Zm0 5.295a1.103 1.103 0 1 1 0-2.206 1.103 1.103 0 0 1 0 2.206Zm38.327-2.463c-.321-.047-.65.244-.683.602-.033-.358-.362-.648-.683-.602-.321.045-.573.419-.523.775.045.317.282.555.524.733.241.177.511.332.682.592.171-.26.441-.415.683-.592.241-.178.479-.416.524-.733.05-.356-.202-.729-.524-.775Zm3.736 1.047a.314.314 0 1 1-.628 0 .314.314 0 0 1 .628 0Zm1.015 0a.314.314 0 1 1-.628 0 .314.314 0 0 1 .628 0Zm1.015 0a.315.315 0 0 1-.628 0 .314.314 0 0 1 .628 0Z"/>
    <path fill="#fff" d="M275.498 148.019c-.002.417.003 1.036.007 1.453a.228.228 0 0 0 .366.18l.972-.721a.23.23 0 0 0 0-.368l-.978-.725a.228.228 0 0 0-.366.181h-.001Z"/>
    <path fill="#E0E0E0" d="M249.803 147.255h-15.792v.773h15.792v-.773Zm4.413 3.478c0 .072-4.507.13-10.066.13-5.559 0-10.067-.058-10.067-.13 0-.072 4.506-.129 10.067-.129 5.56 0 10.066.058 10.066.129Zm-11.326 1.647c0 .072-1.943.13-4.339.13-2.395 0-4.339-.058-4.339-.13 0-.071 1.943-.129 4.339-.129 2.397 0 4.339.058 4.339.129Zm35.285 18.796c0 .072-12.488.13-27.888.13-15.401 0-27.892-.058-27.892-.13 0-.071 12.486-.129 27.892-.129 15.406 0 27.888.058 27.888.129Zm-1.617-9.915h-1.161a2.274 2.274 0 0 0-2.276 2.273v.646a2.274 2.274 0 0 0 2.276 2.273h1.161a2.274 2.274 0 0 0 2.276-2.273v-.646a2.274 2.274 0 0 0-2.276-2.273Zm-49.964-1.576a4.196 4.196 0 0 0-4.199 4.192 4.196 4.196 0 0 0 4.199 4.193 4.196 4.196 0 0 0 4.199-4.193 4.196 4.196 0 0 0-4.199-4.192Zm0 5.294a1.102 1.102 0 1 1-.001-2.205 1.102 1.102 0 0 1 .001 2.205Zm38.327-2.463c-.321-.047-.65.244-.683.602-.033-.358-.362-.648-.683-.602-.321.045-.573.419-.523.775.045.317.282.555.524.733.241.177.511.332.682.592.171-.26.441-.415.683-.592.241-.178.479-.416.524-.733.05-.356-.202-.729-.524-.775Zm3.736 1.047a.314.314 0 1 1-.628 0 .314.314 0 0 1 .628 0Zm1.015 0a.314.314 0 1 1-.628 0 .314.314 0 0 1 .628 0Zm1.015 0a.315.315 0 0 1-.628 0 .314.314 0 0 1 .628 0Z"/>
    <path fill="#fff" d="M275.498 162.999c-.002.417.003 1.036.007 1.453a.229.229 0 0 0 .366.181l.972-.721a.23.23 0 0 0 0-.368l-.978-.726a.228.228 0 0 0-.366.181h-.001Z"/>
    <path fill="#E0E0E0" d="M249.803 162.235h-15.792v.773h15.792v-.773Zm4.413 3.478c0 .072-4.507.13-10.066.13-5.559 0-10.067-.058-10.067-.13 0-.072 4.506-.13 10.067-.13 5.56 0 10.066.059 10.066.13Zm-11.326 1.647c0 .072-1.943.13-4.339.13-2.395 0-4.339-.058-4.339-.13 0-.071 1.943-.129 4.339-.129 2.397 0 4.339.058 4.339.129Z"/>
    <path fill="#455A64" d="M276.558 101.372h-1.161a2.275 2.275 0 0 0-2.276 2.273v.647a2.274 2.274 0 0 0 2.276 2.272h1.161a2.274 2.274 0 0 0 2.276-2.272v-.647a2.275 2.275 0 0 0-2.276-2.273Zm-49.964-1.577a4.196 4.196 0 0 0-4.199 4.193 4.196 4.196 0 0 0 4.199 4.193 4.196 4.196 0 0 0 4.199-4.193 4.196 4.196 0 0 0-4.199-4.193Zm0 5.295a1.103 1.103 0 1 1 0-2.206 1.103 1.103 0 0 1 0 2.206Z"/>
    <path fill="#263238" d="M264.921 102.627s.083-.011.209.061c.122.069.288.23.341.494.063.265-.074.601-.339.836-.255.246-.63.404-.852.736l-.042.064-.042-.064c-.166-.258-.47-.421-.753-.64-.226-.178-.426-.421-.462-.71a.778.778 0 0 1 .312-.717c.216-.167.518-.123.69.018.18.138.277.338.29.521h-.069a.705.705 0 0 1 .448-.582c.172-.059.27-.017.27-.017 0 .011-.099-.014-.256.052a.677.677 0 0 0-.393.553h-.069a.667.667 0 0 0-.271-.46.484.484 0 0 0-.584-.01.688.688 0 0 0-.267.628c.032.251.21.471.426.643.269.209.589.38.772.666h-.084c.251-.364.635-.515.877-.745.256-.221.383-.519.335-.762a.716.716 0 0 0-.296-.476c-.113-.077-.194-.08-.191-.089Zm3.736 1.048a.314.314 0 1 1-.629-.001.314.314 0 0 1 .629.001Zm1.015 0c0 .173-.14.313-.314.313a.313.313 0 1 1 0-.627c.174 0 .314.14.314.314Zm1.015 0a.314.314 0 1 1-.627-.001.314.314 0 0 1 .627.001Z"/>
    <path fill="#fff" d="M275.498 103.11c-.002.417.003 1.036.007 1.453a.229.229 0 0 0 .366.181l.972-.721a.23.23 0 0 0 0-.368l-.978-.726a.228.228 0 0 0-.366.181h-.001Z"/>
    <path fill="#455A64" d="M249.803 102.346h-15.792v.773h15.792v-.773Z"/>
    <path fill="#263238" d="M254.216 105.824c0 .072-4.507.13-10.066.13-5.559 0-10.067-.059-10.067-.13 0-.071 4.506-.129 10.067-.129s10.066.058 10.066.129Zm-11.326 1.648c0 .071-1.943.13-4.339.13-2.395 0-4.339-.059-4.339-.13 0-.072 1.943-.13 4.339-.13 2.397 0 4.339.059 4.339.13Z"/>
    <path fill="#fff" d="M275.845 116.936h-.51v2.476h.51v-2.476Zm1.048 0h-.511v2.476h.511v-2.476Z"/>
    <path fill="url(#f)" fill-opacity=".7" d="M263.468 63.99h-26.471v1.864h26.471v-1.865Z"/>
    <path fill="#263238" d="m246.48 50.865-.005-2.08-1.032 1.722h-.26l-1.032-1.695v2.053h-.557v-3.138h.48l1.248 2.08 1.226-2.08h.48l.005 3.138h-.553Zm3.668-2.394v2.394h-.534v-.305c-.18.22-.463.336-.773.336-.615 0-1.032-.336-1.032-1.057v-1.367h.561v1.29c0 .436.206.642.561.642.391 0 .656-.242.656-.722v-1.21h.561Zm.462 2.156.216-.425c.211.139.534.237.835.237.354 0 .502-.098.502-.264 0-.458-1.481-.027-1.481-.982 0-.452.408-.748 1.055-.748.319 0 .682.076.898.206l-.216.426a1.315 1.315 0 0 0-.687-.18c-.341 0-.502.112-.502.27 0 .483 1.481.053 1.481.99 0 .448-.413.74-1.087.74-.399 0-.799-.117-1.014-.27Zm2.509-2.887c0-.187.153-.335.36-.335.206 0 .359.139.359.323 0 .197-.148.35-.359.35-.207 0-.36-.149-.36-.337Zm.077.731h.56v2.394h-.56v-2.394Zm1.099 1.197c0-.717.539-1.224 1.297-1.224.467 0 .84.193 1.024.556l-.431.25a.68.68 0 0 0-.597-.331c-.413 0-.727.287-.727.748 0 .466.314.748.727.748a.679.679 0 0 0 .597-.331l.431.25c-.184.36-.557.56-1.024.56-.758 0-1.297-.51-1.297-1.227v.001Zm-12.084 3.784v2.25h-.135l-1.535-1.954v1.954h-.164v-2.25h.138l1.532 1.954v-1.954h.164Zm.551 1.411c0-.498.357-.852.84-.852s.84.354.84.852-.357.852-.84.852c-.482 0-.84-.354-.84-.852Zm1.516 0c0-.421-.29-.707-.676-.707-.386 0-.675.286-.675.707s.289.707.675.707c.386 0 .676-.286.676-.707Zm3.016-.839-.636 1.678h-.152l-.566-1.456-.57 1.456h-.148l-.637-1.678h.154l.56 1.498.573-1.498h.138l.569 1.495.567-1.495h.148Zm2.875.839c0 .504-.357.852-.83.852a.752.752 0 0 1-.682-.396v1.006h-.16v-2.3h.154v.395a.75.75 0 0 1 .689-.409c.473 0 .83.35.83.852h-.001Zm-.16 0c0-.421-.293-.707-.679-.707-.387 0-.676.286-.676.707s.29.707.676.707c.386 0 .679-.286.679-.707Zm.661-1.546h.161v2.385h-.161v-2.385Zm2.053 1.321v1.064h-.155v-.3c-.106.194-.312.313-.605.313-.376 0-.605-.193-.605-.48 0-.253.161-.468.628-.468h.576v-.135c0-.312-.171-.48-.499-.48a.87.87 0 0 0-.579.213l-.081-.116c.168-.148.412-.238.673-.238.415 0 .647.212.647.627Zm-.161.569v-.315h-.573c-.347 0-.469.145-.469.337 0 .22.171.354.466.354.283 0 .48-.135.576-.376Zm2.141-1.183-.862 1.906c-.135.309-.302.408-.525.408a.537.537 0 0 1-.389-.15l.081-.123c.086.09.186.132.312.132.154 0 .266-.07.37-.3l.09-.201-.756-1.671h.17l.673 1.5.673-1.5h.164-.001Zm.3-.536c0-.07.058-.132.132-.132a.13.13 0 0 1 .132.128.13.13 0 0 1-.132.132.13.13 0 0 1-.132-.128Zm.051.537h.161v1.677h-.161v-1.677Zm2.344.697v.98h-.161v-.967c0-.38-.203-.579-.544-.579-.396 0-.637.254-.637.652v.894h-.16v-1.678h.154v.363c.112-.234.348-.376.666-.376.409 0 .682.241.682.71Zm2.179-.698v1.498c0 .562-.273.816-.814.816-.306 0-.599-.096-.769-.267l.087-.122a.994.994 0 0 0 .679.244c.447 0 .656-.206.656-.652v-.283c-.138.244-.396.382-.698.382-.477 0-.837-.337-.837-.816 0-.48.36-.813.837-.813.309 0 .57.141.705.392v-.38h.154v.001Zm-.157.8c0-.395-.29-.668-.689-.668-.396 0-.685.273-.685.668 0 .396.289.672.685.672.399 0 .689-.276.689-.672Zm-33.724-3.02c-.045.056-1.261-.85-2.716-2.023 0-.404.001-.113.001-.203h.001l.002-.002.005-.004.008-.007.017-.014.034-.027.068-.055.134-.107.263-.21.499-.392.854-.654c.492-.366.807-.579.83-.55.022.027-.252.29-.714.693l-.82.697-.489.404-.26.213-.134.109-.067.054-.034.028-.017.014-.009.007-.004.003-.002.002h-.001c0-.089-.001.203-.001-.2 1.455 1.173 2.598 2.17 2.552 2.225Zm50.847-4.248c.044-.056 1.26.85 2.714 2.023 0 .403 0 .112-.001.203h-.001l-.002.002-.004.004-.009.007-.016.014-.034.027-.068.054-.134.108-.263.21-.499.392-.855.654c-.491.366-.807.578-.829.55-.022-.027.252-.29.714-.693l.819-.697.49-.405.26-.212.134-.108.067-.055.034-.028.017-.014.008-.006.005-.004.002-.002h.001c0 .09.001-.203.001.2-1.455-1.173-2.597-2.17-2.552-2.225h.001Z"/>
    <path fill="#F5F5F5" d="m201.23 3.965-10.729-.006c-1.439 0-2.606 1.216-2.606 2.718l-.001 1.943c0 1.502-1.167 2.719-2.605 2.718l-20.913-.012c-1.439 0-2.605-1.22-2.605-2.721V6.66c0-1.501-1.166-2.72-2.604-2.72l-3.774-.003-9.39-.005c-4.664-.003-8.446 3.77-8.447 8.428l-.027 135.212c-.001 4.654 3.776 8.429 8.437 8.431l55.227.032c4.663.003 8.445-3.771 8.447-8.428l.026-135.212c.001-4.654-3.776-8.428-8.437-8.431h.001Z"/>
    <path fill="#263238" d="M201.23 3.965s.097 0 .289.008c.191.018.482-.004.856.066a7.95 7.95 0 0 1 3.167 1.091 8.486 8.486 0 0 1 3.536 4.076c.418 1.003.645 2.174.633 3.423l.005 3.974.032 47.562.014 70.541v12.634c-.01.857-.065 1.739-.324 2.574-.243.835-.589 1.65-1.08 2.379a9.135 9.135 0 0 1-1.76 1.95c-1.374 1.102-3.096 1.804-4.881 1.892-1.772.052-3.528.013-5.307.024l-10.752-.005-22.065-.011a1506837.986 1506837.986 0 0 0-16.986-.009c-1.914.098-3.903-.407-5.504-1.518-1.609-1.103-2.797-2.77-3.351-4.621-.297-.922-.353-1.908-.353-2.855l.001-2.842.002-11.273.007-22.039.016-41.663.019-37.7.011-17.085.002-2.045c.004-.34.029-.683.047-1.023.059-.336.086-.678.173-1.006a8.618 8.618 0 0 1 1.777-3.575 8.814 8.814 0 0 1 3.134-2.34c1.189-.535 2.496-.724 3.756-.709a129142.085 129142.085 0 0 1 10.899.014l1.735.002c.58-.029 1.188.13 1.665.465.479.334.847.816 1.036 1.358.216.543.165 1.129.171 1.667.012.544-.028 1.106.025 1.623.067.521.288 1.02.629 1.408.335.395.794.676 1.287.798.491.124 1.023.057 1.537.076a59866.62 59866.62 0 0 1 14.179.022l4.908.008c.387-.006.782.018 1.149-.014a2.49 2.49 0 0 0 1.032-.362 2.667 2.667 0 0 0 1.182-1.696c.077-.336.064-.68.066-1.022l.002-1.009c.005-.328-.016-.66.044-.983.056-.322.166-.629.32-.904a2.662 2.662 0 0 1 1.349-1.191c.556-.241 1.146-.168 1.678-.18l5.476.016 3.368.015c.759.005 1.147.014 1.147.014s-.388.009-1.147.013l-3.368.01-5.476.01c-.538.012-1.114-.056-1.647.179a2.58 2.58 0 0 0-1.302 1.157 2.777 2.777 0 0 0-.306.876c-.058.31-.037.636-.041.968l.001 1.009c-.001.338.014.693-.065 1.044a2.77 2.77 0 0 1-1.224 1.765c-.32.201-.689.335-1.076.38-.391.034-.768.01-1.161.018l-4.908.002-11.132.004-3.047.002h-.778a3.017 3.017 0 0 1-.796-.078 2.635 2.635 0 0 1-1.367-.845 2.811 2.811 0 0 1-.668-1.489c-.057-.558-.017-1.09-.029-1.644-.007-.55.041-1.104-.165-1.612a2.628 2.628 0 0 0-.975-1.277 2.543 2.543 0 0 0-1.572-.434h-12.634c-1.248-.013-2.515.173-3.681.698a8.603 8.603 0 0 0-3.061 2.29 8.428 8.428 0 0 0-1.734 3.496c-.085.32-.109.655-.168.983-.017.333-.041.665-.045 1.003v2.045l.004 17.085.005 37.7-.001 41.663-.002 22.039-.002 11.272v2.843c.001.945.053 1.882.343 2.781a8.386 8.386 0 0 0 3.249 4.482c1.562 1.076 3.461 1.566 5.357 1.472l5.7.003 11.286.007 22.065.015 10.752.008c1.772-.011 3.55.028 5.292-.022 1.733-.084 3.404-.766 4.739-1.835a8.934 8.934 0 0 0 1.711-1.895c.476-.708.812-1.498 1.049-2.309.252-.814.305-1.66.315-2.508l.001-2.557.005-10.077.041-70.54.05-47.563.007-3.974c.015-1.241-.204-2.398-.615-3.394a8.447 8.447 0 0 0-3.491-4.06 8.014 8.014 0 0 0-3.145-1.11c-.372-.075-.662-.056-.852-.079-.192-.012-.289-.021-.289-.021v.001Z"/>
    <path fill="#263238" d="m170.126 20.687-.004-2.08-1.033 1.722h-.26l-1.033-1.694v2.052h-.556V17.55h.48l1.248 2.08 1.226-2.08h.48l.004 3.137h-.552Zm3.668-2.393v2.393h-.534v-.305c-.18.22-.463.337-.773.337-.614 0-1.032-.337-1.032-1.058v-1.367h.561v1.29c0 .436.207.642.562.642.39 0 .655-.242.655-.721v-1.21h.561v-.002Zm.462 2.156.216-.426c.211.139.534.238.835.238.355 0 .503-.099.503-.265 0-.457-1.482-.027-1.482-.982 0-.452.409-.748 1.055-.748.319 0 .682.076.898.206l-.216.426a1.312 1.312 0 0 0-.687-.18c-.341 0-.502.113-.502.27 0 .483 1.481.053 1.481.99 0 .448-.413.74-1.086.74-.4 0-.799-.117-1.015-.27Zm2.509-2.887c0-.188.154-.336.36-.336s.359.139.359.323c0 .197-.148.35-.359.35-.206 0-.36-.149-.36-.337Zm.077.73h.561v2.394h-.561v-2.393Zm1.099 1.197c0-.717.539-1.223 1.298-1.223.466 0 .839.192 1.023.555l-.431.251a.68.68 0 0 0-.597-.332c-.413 0-.727.287-.727.748 0 .466.314.749.727.749a.679.679 0 0 0 .597-.332l.431.251c-.184.358-.557.56-1.023.56-.759 0-1.298-.51-1.298-1.228v.001Zm-12.083 3.785v2.25h-.135l-1.535-1.954v1.953h-.165v-2.25h.139l1.532 1.955v-1.954h.164Zm.551 1.41c0-.498.357-.851.84-.851s.84.354.84.851c0 .498-.358.852-.84.852s-.84-.353-.84-.852Zm1.516 0c0-.42-.29-.707-.676-.707-.386 0-.676.286-.676.707 0 .422.29.707.676.707.386 0 .676-.285.676-.707Zm3.016-.838-.637 1.677h-.151l-.567-1.456-.569 1.456h-.149l-.637-1.677h.154l.56 1.497.573-1.497h.138l.57 1.494.567-1.494h.148Zm2.875.838c0 .505-.357.852-.83.852a.752.752 0 0 1-.682-.395v1.006h-.161v-2.301h.155v.395a.75.75 0 0 1 .689-.408c.473 0 .829.35.829.851Zm-.16 0c0-.42-.293-.707-.679-.707-.387 0-.676.286-.676.707 0 .422.29.707.676.707.385 0 .679-.285.679-.707Zm.661-1.545h.16v2.384h-.16V23.14Zm2.053 1.32v1.064h-.155v-.299c-.106.193-.312.312-.605.312-.377 0-.605-.193-.605-.48 0-.253.16-.468.628-.468h.576v-.135c0-.312-.171-.48-.5-.48a.869.869 0 0 0-.578.213l-.081-.116a1.03 1.03 0 0 1 .673-.237c.415 0 .647.212.647.626Zm-.161.569v-.315h-.573c-.347 0-.47.145-.47.338 0 .218.171.353.467.353.283 0 .48-.135.576-.376Zm2.141-1.182-.862 1.906c-.135.308-.303.407-.525.407a.536.536 0 0 1-.389-.15l.08-.123a.41.41 0 0 0 .312.132c.155 0 .267-.07.37-.299l.091-.202-.757-1.67h.171l.672 1.5.674-1.5h.164l-.001-.001Zm.3-.537c0-.071.058-.132.132-.132a.13.13 0 0 1 .132.128.13.13 0 0 1-.132.132.13.13 0 0 1-.132-.128Zm.051.536h.161v1.678h-.161v-1.678Zm2.344.698v.98h-.161v-.967c0-.38-.203-.579-.544-.579-.396 0-.637.254-.637.653v.893h-.161v-1.677h.155v.363c.113-.235.347-.376.666-.376.408 0 .682.241.682.71Zm2.179-.698v1.498c0 .562-.274.816-.814.816-.306 0-.599-.096-.77-.267l.088-.122a.993.993 0 0 0 .678.244c.448 0 .657-.205.657-.652v-.283c-.139.244-.396.383-.699.383-.476 0-.836-.338-.836-.817 0-.479.36-.813.836-.813.31 0 .57.141.705.392v-.379h.155Zm-.158.8c0-.395-.289-.668-.688-.668-.396 0-.686.273-.686.668 0 .396.29.672.686.672.399 0 .688-.276.688-.672Zm6.383 57.303h-31.701v2.218h31.701V81.95Zm10.794 29.925c0-.009.101-.001.292-.041a1.568 1.568 0 0 0 1.252-1.63c.043-.541-.225-1.223-.88-1.528a1.567 1.567 0 0 0-.518-.143c-.182-.012-.385-.002-.584-.004l-1.265.005-2.87.011-6.997.019-40.515.038a1.46 1.46 0 0 0-1.169.588c-.29.36-.316.843-.271 1.304.057.445.34.849.73 1.066.194.11.414.169.635.18.229.008.479.002.717.004l5.69.002 10.757.008 18.214.028 12.28.041 3.338.024.868.013c.196.005.296.014.296.014s-.1.009-.296.013l-.868.013-3.338.025-12.28.041-18.214.028-10.757.007-5.69.002c-.244-.002-.476.005-.73-.004a1.69 1.69 0 0 1-.749-.213 1.713 1.713 0 0 1-.86-1.256 3.151 3.151 0 0 1 .009-.77 1.718 1.718 0 0 1 1.688-1.417l40.515.038 6.997.019 2.87.011 1.265.005c.203.004.393-.005.594.01.197.021.384.076.552.158.694.329.967 1.068.914 1.619a1.621 1.621 0 0 1-.543 1.28 1.567 1.567 0 0 1-.782.376c-.196.031-.297.015-.297.015v.001Z"/>
    <path fill="url(#g)" fill-opacity=".7" d="M172.68 108.931h-24.315c-.639 0-1.156.517-1.156 1.154v.176c0 .637.517 1.154 1.156 1.154h24.315c.639 0 1.156-.517 1.156-1.154v-.176c0-.637-.517-1.154-1.156-1.154Z"/>
    <path fill="url(#h)" fill-opacity=".7" d="M181.328 128.091c.356-3.624-2.298-6.851-5.928-7.207-3.63-.356-6.862 2.294-7.218 5.919a6.597 6.597 0 0 0 5.928 7.207c3.63.356 6.862-2.294 7.218-5.919Z"/>
    <path fill="#FAFAFA" d="m174.127 129.234 2.523-1.407a.343.343 0 0 0 .02-.589l-2.522-1.64a.355.355 0 0 0-.549.297v3.029c0 .271.291.442.528.31Z"/>
    <path fill="url(#i)" fill-opacity=".7" d="M153.153 129.303c-.143 0-.259-.879-.259-1.963s.116-1.963.259-1.963c.144 0 .26.879.26 1.963s-.116 1.963-.26 1.963Z"/>
    <path fill="url(#j)" fill-opacity=".7" d="m157.551 125.606-2.549 1.359a.344.344 0 0 0-.031.589l2.492 1.687a.355.355 0 0 0 .554-.287l.057-3.028a.356.356 0 0 0-.523-.32Z"/>
    <path fill="url(#k)" fill-opacity=".7" d="M194.676 125.377c.144 0 .26.879.26 1.963 0 1.083-.116 1.962-.26 1.962-.143 0-.26-.879-.26-1.962 0-1.084.117-1.963.26-1.963Z"/>
    <path fill="url(#l)" fill-opacity=".7" d="m190.278 129.074 2.549-1.359a.344.344 0 0 0 .031-.589l-2.492-1.686a.355.355 0 0 0-.554.286l-.057 3.028a.356.356 0 0 0 .523.32Z"/>
    <path fill="url(#m)" fill-opacity=".7" d="M173.598 32.724c-11.326 0-20.507 9.168-20.507 20.477 0 11.31 9.181 20.477 20.507 20.477 11.326 0 20.508-9.167 20.508-20.477 0-11.309-9.182-20.477-20.508-20.477Zm0 25.86a5.386 5.386 0 0 1-5.39-5.383 5.386 5.386 0 0 1 5.39-5.382 5.386 5.386 0 0 1 5.391 5.382 5.386 5.386 0 0 1-5.391 5.383Z"/>
    <path fill="#263238" d="M173.598 58.584c-.002-.035.481-.005 1.304-.217a5.374 5.374 0 0 0 2.908-1.964 5.26 5.26 0 0 0 .977-2.228c.146-.864.117-1.84-.238-2.766a4.985 4.985 0 0 0-.72-1.33 4.94 4.94 0 0 0-1.119-1.11c-.862-.646-1.969-1.01-3.111-1.02-1.141.01-2.248.374-3.111 1.02a4.948 4.948 0 0 0-1.12 1.11 4.93 4.93 0 0 0-.72 1.33c-.355.927-.384 1.902-.239 2.767.151.87.531 1.626.978 2.227a5.374 5.374 0 0 0 2.908 1.964c.823.213 1.306.183 1.304.218 0 0-.482.066-1.328-.12a5.37 5.37 0 0 1-3.03-1.95 5.409 5.409 0 0 1-1.043-2.3c-.161-.898-.139-1.915.226-2.888a5.17 5.17 0 0 1 .745-1.395 5.17 5.17 0 0 1 1.169-1.168c.901-.68 2.065-1.065 3.262-1.075 1.196.01 2.359.396 3.261 1.076.457.33.851.728 1.168 1.167.323.434.577.907.745 1.395.365.973.387 1.99.226 2.888a5.409 5.409 0 0 1-1.043 2.299 5.372 5.372 0 0 1-3.029 1.951c-.847.186-1.329.12-1.329.12l-.001-.001Z"/>
    <path fill="#FAFAFA" d="M165.799 64.982c-.005.008-.115-.057-.321-.187-.2-.14-.522-.307-.88-.602-.748-.546-1.751-1.46-2.754-2.784-.506-.66-.979-1.44-1.43-2.305-.418-.882-.831-1.846-1.104-2.913-.581-2.116-.73-4.6-.159-7.084a14.641 14.641 0 0 1 3.34-6.254c.725-.828 1.53-1.504 2.3-2.103.795-.57 1.569-1.053 2.318-1.414 1.493-.73 2.801-1.096 3.715-1.247.453-.102.816-.106 1.057-.14.242-.024.37-.032.371-.023.003.028-.508.078-1.409.262-.9.18-2.187.569-3.651 1.311-.735.367-1.494.853-2.272 1.423-.754.598-1.541 1.27-2.251 2.09a14.567 14.567 0 0 0-3.265 6.155 14.554 14.554 0 0 0 .137 6.962c.263 1.052.663 2.005 1.066 2.879.437.858.895 1.634 1.385 2.292.972 1.322 1.944 2.248 2.668 2.814.721.57 1.154.844 1.138.868h.001Zm15.584-24.84c-.036.062-.51-.144-1.059-.46-.549-.315-.965-.621-.929-.683.036-.062.509.144 1.058.46.549.315.965.621.929.683h.001Zm6.854 8.528c.008-.002.033.081.073.24.036.16.105.393.153.702.118.612.227 1.514.226 2.633.014 2.22-.57 5.39-2.43 8.291-1.865 2.901-4.506 4.754-6.533 5.668a14.244 14.244 0 0 1-2.49.894c-.301.085-.542.12-.702.155-.162.03-.248.041-.249.033-.005-.022.33-.106.924-.285a16.46 16.46 0 0 0 2.438-.962c1.984-.947 4.561-2.793 6.393-5.643 1.828-2.85 2.433-5.96 2.466-8.154a16.447 16.447 0 0 0-.142-2.615c-.085-.614-.149-.952-.127-.957Z"/>
    <path fill="#263238" d="M199.678 90.65c0 .073-11.677.13-26.078.13s-26.081-.058-26.081-.13c0-.07 11.675-.129 26.081-.129 14.406 0 26.078.059 26.078.13Zm-7.951 3.96c0 .071-8.117.129-18.128.129-10.01 0-18.13-.058-18.13-.13 0-.07 8.116-.129 18.13-.129 10.015 0 18.128.058 18.128.13Zm-42.385-72.984c-.045.056-1.261-.85-2.715-2.023 0-.403 0-.113.001-.203h.001l.002-.002.004-.004.009-.007.017-.014.034-.027.068-.054.134-.108.262-.21.5-.392.854-.654c.491-.366.806-.578.829-.55.023.027-.251.29-.713.693l-.82.697-.489.405-.261.212-.133.108-.068.055-.034.028-.017.013-.008.007-.004.003-.002.003h-.001c0-.09-.001.203-.001-.2 1.454 1.173 2.597 2.17 2.552 2.225h-.001Zm50.847-4.248c.045-.056 1.261.85 2.715 2.023 0 .404 0 .113-.001.203h-.001l-.002.002-.004.004-.008.007-.017.013-.034.028-.068.054-.134.108-.263.21-.499.392-.855.654c-.491.366-.806.578-.829.55-.022-.028.252-.29.714-.693l.819-.697.49-.405c.086-.07.173-.14.26-.213l.134-.108.067-.054.034-.028.017-.014.009-.007.004-.003.002-.002h.001c0 .089.001-.203.001.2-1.455-1.173-2.598-2.17-2.552-2.225Z"/>
    <path fill="url(#n)" fill-opacity=".7" d="M144.165 146.811c5.755-1.699 14.144 1.589 18.297 5.915 4.766 4.962 6.81 11.839 6.81 17.119 8.984 1.741 14.793 4.483 22.108 9.973 7.315 5.491 12.637 13.876 11.506 22.945h-64.845l6.125-55.952h-.001Z"/>
    <path fill="#000" d="M169.361 169.861c-4.127 2.233-7.405 6.429-8.677 10.941-.321 1.138-.524 2.367-.154 3.49.369 1.123 1.422 1.585 2.597 1.445 1.511-.181 2.861-2.443 3.158-3.934.46-2.301.331-3.75.277-5.943-.057-2.346 1.241-4.242 2.798-5.999" opacity=".2"/>
    <path fill="#263238" d="M169.346 170.163c.014.021-.239.168-.618.522-.379.351-.857.944-1.231 1.79-.383.842-.633 1.927-.703 3.153-.086 1.226-.015 2.585-.084 4.021-.073 1.432-.349 2.818-.958 3.932a4.924 4.924 0 0 1-1.107 1.404c-.428.37-.898.62-1.346.785-.903.329-1.719.28-2.222.113a1.957 1.957 0 0 1-.33-.125 1.289 1.289 0 0 1-.229-.12c-.118-.074-.177-.116-.172-.123.013-.026.258.144.758.271.493.132 1.273.149 2.13-.187a4.287 4.287 0 0 0 1.27-.776c.4-.356.755-.819 1.037-1.355.573-1.074.837-2.422.909-3.833.069-1.416.005-2.78.104-4.023.084-1.243.361-2.359.775-3.213.406-.86.922-1.454 1.331-1.789.201-.171.373-.285.494-.353.121-.069.186-.101.191-.093l.001-.001Z"/>
    <path fill="#FAFAFA" d="M173.431 183.663c-.066-.03.312-.992.844-2.149.531-1.158 1.015-2.071 1.08-2.042.066.03-.312.992-.844 2.15-.532 1.157-1.015 2.071-1.081 2.041h.001Zm-2.987 11.731c-.056.045-.876-.859-1.832-2.02-.956-1.161-1.686-2.14-1.631-2.185.056-.045.875.859 1.832 2.02.955 1.161 1.686 2.139 1.631 2.185Zm11.744-6.689c.015-.007.063.064.143.208l.024.043-.054.02c-.49.18-1.79.559-3.325.963a80.4 80.4 0 0 1-2.547.632c-.655.148-1.065.223-1.074.188-.009-.035.384-.172 1.028-.366a81.055 81.055 0 0 1 2.527-.705c1.534-.404 2.852-.715 3.368-.8l-.031.063c-.054-.156-.074-.24-.06-.246h.001Zm3.02-5.075c-.07.013-.262-.716-.428-1.627-.166-.912-.244-1.662-.174-1.675.07-.013.262.716.429 1.628.166.911.244 1.661.173 1.674Zm9.316 7.955c-.07.016-.396-1.147-.729-2.597-.333-1.45-.546-2.639-.476-2.655.07-.016.396 1.147.729 2.598.332 1.45.546 2.639.476 2.655v-.001Zm-7.64 5.857c-.07-.018.179-1.175.554-2.584.376-1.409.736-2.535.806-2.517.069.018-.179 1.175-.555 2.584-.375 1.409-.736 2.536-.805 2.517Zm-6.494 3.304c-.061.036-.68-.912-1.38-2.117-.701-1.205-1.218-2.21-1.157-2.247.062-.036.681.912 1.381 2.117.701 1.205 1.218 2.21 1.156 2.246v.001Zm17.597-2.391c-.001.076-1.192.097-2.64.298-1.45.194-2.604.491-2.625.418-.021-.063 1.116-.477 2.59-.675 1.472-.203 2.679-.107 2.676-.041h-.001Zm-38.267-4.8c-.068-.022.169-.918.53-2 .36-1.081.708-1.94.775-1.918.068.023-.169.918-.529 2-.361 1.082-.708 1.941-.776 1.918Zm-4.716-7.528c-.054.047-.671-.587-1.377-1.415-.707-.829-1.235-1.538-1.18-1.585.055-.046.671.588 1.378 1.416.706.829 1.234 1.538 1.18 1.584h-.001Zm8.405-6.887c-.039.06-1.076-.535-2.316-1.33-1.241-.795-2.215-1.488-2.176-1.548.039-.061 1.075.535 2.316 1.33 1.24.794 2.214 1.488 2.175 1.548h.001Zm-8.537-7.958c.066.029-.381 1.197-.998 2.608-.617 1.412-1.17 2.532-1.236 2.503-.066-.028.381-1.196.998-2.607.617-1.412 1.17-2.533 1.236-2.504Zm9.114-3.003c-.07.018-.37-.941-.671-2.14-.301-1.199-.488-2.185-.419-2.203.069-.017.37.941.671 2.141.3 1.199.488 2.185.419 2.203v-.001Zm-8.672-3.516c-.017.07-1.38-.189-3.047-.579-1.666-.389-3.003-.761-2.987-.83.016-.07 1.38.189 3.046.578 1.666.389 3.004.761 2.987.831h.001Zm-.374-5.732c-.059-.042.654-1.128 1.592-2.425.938-1.297 1.746-2.314 1.803-2.272.058.041-.654 1.127-1.592 2.424-.938 1.297-1.745 2.315-1.803 2.273Zm-2.085-1.401c-.068.025-.696-1.499-1.405-3.404-.709-1.906-1.23-3.47-1.162-3.495.067-.025.696 1.499 1.405 3.405.708 1.905 1.228 3.469 1.161 3.494h.001Z"/>
    <path fill="url(#o)" fill-opacity=".7" d="m40.182 191.945-9.036 10.623s-13.849-5.603-15.71-3.802l19.998 18.233 14.76-15.974-10.012-9.08Z"/>
    <path fill="#000" d="m40.182 191.945-9.036 10.623s-13.849-5.603-15.71-3.802l19.998 18.233 14.76-15.974-10.012-9.08Z" opacity=".3"/>
    <path fill="#E0E0E0" d="M38.12 207.342c.291.458.161 1.137-.285 1.445-.447.309-1.14.183-1.438-.271-.298-.453-.167-1.272.311-1.529.479-.257 1.284-.064 1.464.447M35.434 217l1.425-1.669-19.707-16.858s-1.244-.425-1.717.293l20 18.234Z"/>
    <path fill="#263238" d="M30.914 202.171c-.085.101.362.59.556 1.341.213.747.075 1.395.2 1.438.107.063.494-.653.244-1.558-.242-.908-.94-1.33-1-1.221Zm-2.889-1.046c-.109.075.163.626.117 1.341-.024.716-.348 1.238-.247 1.322.078.1.667-.41.707-1.3.047-.889-.49-1.454-.577-1.363Zm-3.484 1.42c.07.102.651-.261.889-1.024.243-.761-.025-1.391-.141-1.348-.129.03-.094.587-.299 1.21-.19.628-.538 1.064-.45 1.162h.001Zm8.702-2.567c-.04.126.53.401 1.048.941.529.531.79 1.107.917 1.07.121-.019.032-.762-.587-1.391-.614-.633-1.356-.74-1.378-.62Zm1.862-2.109c-.038.039.293.452 1.006.908.356.227.81.456 1.342.634.266.089.553.164.854.22.146.024.31.064.517.04.201-.003.5-.205.52-.478a.721.721 0 0 0-.224-.612c-.144-.14-.29-.219-.423-.291a4.805 4.805 0 0 0-2.295-.592c-.856.006-1.348.226-1.332.276.015.072.52-.027 1.316.049.396.038.864.13 1.353.312.244.092.492.206.737.347.263.137.444.3.412.444-.013.053-.023.07-.124.092-.098.015-.235-.007-.38-.031a7.163 7.163 0 0 1-2.112-.693c-.719-.363-1.12-.679-1.167-.625Z"/>
    <path fill="#263238" d="M35.105 198.125c.02.046.534-.127 1.147-.725a4.4 4.4 0 0 0 1.165-2.06c.063-.304.162-.698-.177-1.087-.191-.188-.497-.183-.673-.103-.19.075-.309.179-.439.273a3.119 3.119 0 0 0-1.134 2.096c-.082.874.219 1.362.257 1.337.078-.02-.09-.518.065-1.288.077-.38.241-.822.543-1.229.15-.203.331-.396.547-.561.225-.184.461-.283.521-.188.1.089.124.403.051.647-.06.273-.147.53-.247.768-.205.475-.467.87-.719 1.175-.508.611-.947.881-.907.945Z"/>
    <path fill="#FFBE9D" d="m96.903 152.106-11.092-9.44-6.067 1.463S86 157.244 90.941 162.438c4.94 5.195 7.606 5.933 9.47 6.015 2.564.112 3.735-3.005 3.735-3.005l.292-10.249-7.535-3.093Z"/>
    <path fill="#455A64" d="M84.74 124.255h-8.35c-1.263 0-2.391 1.463-1.937 2.658l8.397 16.33a1.9 1.9 0 0 0 1.691 1.031l10.18-.021c1.166-.158 1.593-1.451 1.108-2.152l-8.101-15.989a3.328 3.328 0 0 0-2.989-1.857Z"/>
    <path fill="#263238" d="M84.175 125.239h-8.35a1.395 1.395 0 0 0-1.246 2.029l8.197 15.976a1.9 1.9 0 0 0 1.691 1.031H94.53a.82.82 0 0 0 .736-1.19l-8.102-15.989a3.328 3.328 0 0 0-2.989-1.857Z"/>
    <path fill="#FFBE9D" d="m83.467 131.927-5.081 2.027-1.09 4.088 2.448 6.086 8.98 1.305-2.63-2.684.338-2.336s2.505-.785 2.567-1.167c.061-.383-.311-1.667-.695-1.729-.385-.061-3.012.916-3.012.916s3.11-2.459 3.023-2.854c-.087-.395-.42-1.404-1.042-1.516-.62-.112-5.638 2.249-5.638 2.249l-.815 1.855-.711-2.967s4.46-1.248 3.357-3.273Z"/>
    <path fill="#EB996E" d="M84.106 141.512c-.03.009-.125-.176-.172-.505a2.706 2.706 0 0 1 .152-1.281c.18-.479.47-.854.72-1.071.25-.219.443-.299.46-.272.05.061-.612.536-.934 1.434-.341.891-.149 1.682-.226 1.695Zm-2.415-.885c-.03-.015.151-.495.202-1.33.04-.413.063-.926.256-1.472.097-.271.24-.552.467-.786.227-.238.527-.4.83-.521a92.446 92.446 0 0 1 3.11-1.055c.8-.254 1.301-.395 1.313-.361.012.035-.466.237-1.25.536-.781.301-1.882.691-3.074 1.123-.289.115-.55.257-.744.457-.197.198-.33.444-.426.69-.19.499-.236.995-.298 1.41-.099.843-.351 1.33-.386 1.309Zm-1.165-.917c-.072-.012-.057-.46.032-1 .09-.541.22-.97.291-.958.072.012.057.459-.032 1-.09.541-.22.969-.291.958Z"/>
    <path fill="#FAFAFA" d="M80.389 128.32a1.063 1.063 0 1 0 2.127 0 1.063 1.063 0 0 0-2.127 0Z"/>
    <path fill="url(#p)" fill-opacity=".7" d="m90.105 145.742-8.264 2.734s11.224 20.444 16.729 20.345c5.505-.1 7.002-1.411 7.002-1.411l.014-15.016-13.655-6.536a2.448 2.448 0 0 0-1.826-.116Z"/>
    <path fill="url(#q)" fill-opacity=".7" d="M114.239 118.568c.6-.12-5.679 32.375-5.418 35.706.261 3.332 8.193 48.345 8.193 48.345H76.822c.509-1.863 12.518-11.99 12.518-11.99l11.688-21.951.983-16.154-6.736-4.048s6.48-19.576 9.23-23.017c4.621-5.783 8.037-6.553 9.734-6.891Z"/>
    <path fill="#000" d="M108.821 154.274c-.261-3.331 6.018-35.826 5.418-35.706-1.697.338-5.113 1.108-9.734 6.891-2.399 3.004-7.642 18.301-8.935 22.14l-3.64-1.741a2.443 2.443 0 0 0-1.826-.116l-8.263 2.734S93.066 168.92 98.57 168.82c.933-.017 1.743-.07 2.459-.144v.002l-11.688 21.951s-12.009 10.127-12.518 11.99h40.192s-7.932-45.013-8.193-48.345h-.001Z" opacity=".3"/>
    <path fill="#263238" d="m89.022 186.082 7.86 8.375c3.611 4.422 7.294 8.075 12.879 8.305 6.583.271 17.736 0 17.736 0l-10.831-28.924-26.153-21.643a16.223 16.223 0 0 0-9.777-3.299c-4.776 0-9.32 2.131-12.473 5.849l-32.137 40.124 12.616 10.857 32.708-29.422 7.573 9.778Zm40.799-105.358c-1.439-2.356-.309-5.753 2.089-7.124 2.398-1.371 5.611-.834 7.732.935 2.121 1.769 2.593 4.683 2.108 7.135-.363 1.829-3.428 5.426-6.094 3.643"/>
    <path fill="#263238" d="M112.497 95.486c-5.511-12.102 7.596-18.181 14.748-16.164 6.721 1.895 9.588 5.236 10.694 9.724 1.107 4.49 1.054 9.354-.709 13.631-.869 2.109-2.434 4.252-4.703 4.515"/>
    <path fill="#FFBE9D" d="M131.532 86.05a2.282 2.282 0 0 1 2.043 2.314l-1.294 30.803c-.049 3.638-5.37 5.694-9.27 5.612-3.939-.083-4.07-2.012-4.127-5.472-.095-5.782-.093-7.952-.095-7.92 0 0-4.978-.825-6.009-7.309-.513-3.225-.35-8.512-.078-12.834.246-3.89 2.827-8.663 6.709-8.252l12.121 3.058Z"/>
    <path fill="#263238" d="M114.213 95.265c-.015.439.344.814.804.839.458.024.842-.311.858-.75.016-.44-.344-.815-.802-.84-.459-.024-.844.312-.86.75Zm-.363-1.271c.104.109.735-.358 1.631-.355.895-.01 1.552.45 1.65.34.048-.048-.057-.244-.344-.452a2.292 2.292 0 0 0-1.321-.407c-.558.003-1.027.208-1.298.418-.275.211-.369.408-.318.456Zm8.797 1.271c-.016.44.344.815.803.84.458.024.842-.312.858-.75.016-.44-.344-.816-.802-.84-.459-.025-.844.311-.859.75Zm.013-1.104c.104.109.735-.358 1.631-.355.895-.01 1.553.45 1.651.34.047-.049-.057-.244-.345-.453a2.28 2.28 0 0 0-1.32-.406c-.558.003-1.028.208-1.298.418-.275.211-.369.407-.318.456h-.001Zm-3.253 6.637c.004-.051-.553-.147-1.455-.262-.229-.024-.445-.07-.484-.225-.054-.166.042-.412.152-.678l.677-1.74c.94-2.478 1.62-4.515 1.52-4.551-.101-.037-.944 1.941-1.884 4.418-.225.611-.442 1.194-.648 1.751-.087.26-.235.554-.118.897.061.17.229.294.376.334.147.045.275.047.388.054.909.048 1.472.052 1.476.002Z"/>
    <path fill="#EB996E" d="M118.788 111.387s4.369.282 8.697-2.316c0 0-2.11 4.454-8.61 3.847l-.087-1.531Zm.998-8.432c.322-.426.887-.66 1.448-.599.389.041.782.229 1.018.545.236.316.286.765.071 1.066-.242.34-.748.418-1.175.297-.428-.122-.796-.403-1.145-.683a.962.962 0 0 1-.256-.265c-.06-.106-.073-.244.001-.333"/>
    <path fill="#263238" d="M122.044 101.417c-.145-.008-.147.963-.98 1.653-.831.691-1.868.582-1.876.718-.013.061.231.189.669.201a2.424 2.424 0 0 0 1.566-.545c.508-.423.726-.987.759-1.386.037-.406-.071-.646-.138-.641Zm.212-8.822c.089.243.984.128 2.035.254 1.054.106 1.901.413 2.041.195.062-.105-.085-.333-.428-.569-.34-.235-.882-.458-1.514-.529-.631-.068-1.209.032-1.592.187-.386.155-.58.346-.542.462Zm-8.076-1.19c.157.203.775-.008 1.517-.018.742-.036 1.371.137 1.516-.076.063-.103-.035-.307-.31-.5-.271-.191-.724-.348-1.234-.332-.51.016-.952.2-1.21.408-.262.21-.349.419-.279.518Z"/>
    <path fill="url(#r)" fill-opacity=".7" d="m118.988 116.901-6.262 1.943c-2.898 2.279-3.97 6.869-3.871 10.545l-2.197 30.528-.188 10.549s16.882 9.155 35.747-2.7l-3.139-8.319 5.713-19.85c.41-2.894.66-8.894-.096-11.742-1.941-7.305-6.399-10.014-12.277-11.326 0 0-5.512 4.839-10.713 3.898 0 0-2.392-.456-2.717-3.526Z"/>
    <path fill="#fff" d="m118.988 116.901-6.262 1.943c-2.898 2.279-3.97 6.869-3.871 10.545l-2.197 30.528-.188 10.549s16.882 9.155 35.747-2.7l-3.139-8.319 5.713-19.85c.41-2.894.66-8.894-.096-11.742-1.941-7.305-6.399-10.014-12.277-11.326 0 0-5.512 4.839-10.713 3.898 0 0-2.392-.456-2.717-3.526Z" opacity=".3"/>
    <path fill="url(#s)" fill-opacity=".7" d="m50.42 191.945-9.036 10.623s-13.849-5.603-15.71-3.802l19.998 18.233 14.76-15.974-10.012-9.08Z"/>
    <path fill="#E0E0E0" d="M48.359 207.342c.29.458.16 1.137-.286 1.445-.447.309-1.14.183-1.438-.271-.298-.453-.167-1.272.311-1.529.479-.257 1.284-.064 1.464.447M45.672 217l1.425-1.669-19.707-16.858s-1.244-.425-1.716.293L45.672 217Z"/>
    <path fill="#263238" d="M41.152 202.171c-.085.101.362.59.556 1.341.213.747.075 1.395.2 1.438.107.063.494-.653.244-1.558-.242-.908-.94-1.33-1-1.221Zm-2.889-1.046c-.109.075.162.626.117 1.341-.024.716-.349 1.238-.247 1.322.078.1.667-.41.707-1.3.047-.889-.49-1.454-.577-1.363Zm-3.483 1.42c.069.102.65-.261.888-1.024.243-.761-.025-1.391-.141-1.348-.129.03-.094.587-.299 1.21-.19.628-.538 1.064-.45 1.162h.001Zm8.7-2.567c-.04.126.531.401 1.05.941.528.531.788 1.107.916 1.07.121-.019.032-.762-.587-1.391-.614-.633-1.356-.74-1.378-.62Zm1.863-2.109c-.038.039.293.452 1.006.908.356.227.81.456 1.342.634.266.089.553.164.854.22.146.024.31.064.517.04.201-.003.5-.205.52-.478a.721.721 0 0 0-.224-.612c-.144-.14-.29-.219-.423-.291a4.805 4.805 0 0 0-2.295-.592c-.856.006-1.348.226-1.332.276.015.072.52-.027 1.316.049.396.038.864.13 1.353.312.244.092.492.206.737.347.263.137.444.3.412.444-.013.053-.023.07-.124.092-.098.015-.235-.007-.38-.031a7.166 7.166 0 0 1-2.112-.693c-.72-.363-1.12-.679-1.167-.625Z"/>
    <path fill="#263238" d="M45.343 198.125c.02.046.534-.127 1.147-.725a4.403 4.403 0 0 0 1.165-2.06c.063-.304.162-.698-.177-1.087-.191-.188-.497-.183-.674-.103-.19.075-.309.179-.438.273a3.119 3.119 0 0 0-1.133 2.096c-.083.874.218 1.362.256 1.337.078-.02-.09-.518.065-1.288.077-.38.241-.822.543-1.229.15-.203.331-.396.547-.561.225-.184.461-.283.521-.188.1.089.124.403.051.647a4.37 4.37 0 0 1-.248.768 4.9 4.9 0 0 1-.718 1.175c-.509.611-.947.881-.908.945Zm51.624-21.82a.562.562 0 0 1 .06-.15l.202-.418.8-1.57 2.898-5.543-.014.049c.093-2.231.228-4.823.398-7.573.276-4.472.606-8.516.899-11.438.146-1.461.276-2.642.383-3.456l.126-.937c.031-.214.052-.326.061-.325.009.001.006.115-.009.331l-.078.942-.3 3.462a528.805 528.805 0 0 0-.823 11.437c-.17 2.749-.316 5.339-.427 7.568l-.002.026-.012.022-2.98 5.498-.857 1.54-.233.403c-.055.09-.086.135-.092.132Z"/>
    <path fill="#263238" d="m96.967 186.082 7.86 8.375c3.611 4.422 6.989 8.062 12.575 8.292.139.228 16.064.192 16.064.192l-8.855-29.103-26.153-21.643a16.223 16.223 0 0 0-9.777-3.299c-4.776 0-9.32 2.131-12.473 5.849l-34.53 39.595 14.857 12.882 32.185-30.538 8.247 9.398Z"/>
    <path fill="#455A64" d="M126.388 202.62c0 .004-.05.009-.145.012l-.427.013-1.639.018c-1.424-.002-3.487.01-6.032-.161-1.271-.093-2.666-.22-4.141-.526-.735-.16-1.492-.365-2.232-.697-.74-.348-1.412-.821-2.096-1.323-2.723-2.043-5.036-4.979-7.614-7.865l-13.41-15.348.13.004-4.063 3.955-1.105 1.059-.291.269a.522.522 0 0 1-.105.086.534.534 0 0 1 .086-.104l.274-.287c.257-.263.615-.628 1.072-1.092l4.006-4.013.067-.066.063.071 13.47 15.296c2.581 2.889 4.885 5.821 7.564 7.844.667.496 1.345.974 2.047 1.308.713.324 1.457.531 2.182.693 1.455.312 2.844.449 4.109.553 2.534.193 4.596.209 6.018.243l1.639.03.426.014a.627.627 0 0 1 .145.013l.002.001Zm-39.33-53.414a.85.85 0 0 1-.178.019c-.117.011-.292.01-.52.035a11.44 11.44 0 0 0-1.965.347c-1.673.433-4.017 1.505-6.338 3.574-2.355 2.034-4.589 5.011-7.211 8.179a517.809 517.809 0 0 1-8.65 10.22c-8.832 10.162-16.742 18.722-20.476 22.799l-.003-.082 2.034 1.92.516.498c.115.113.171.172.168.176a1.423 1.423 0 0 1-.189-.153l-.537-.477-2.072-1.879-.041-.038.038-.043c3.67-4.134 11.537-12.732 20.365-22.891a588.03 588.03 0 0 0 8.662-10.202c2.629-3.154 4.885-6.13 7.275-8.164 2.357-2.069 4.74-3.129 6.434-3.534a10.61 10.61 0 0 1 1.987-.302c.23-.017.405-.007.522-.01a.97.97 0 0 1 .178.008Z"/>
    <path fill="#455A64" d="M89.29 168.651c.03-.009.203.423.372 1.157.168.731.31 1.773.242 2.926a9.515 9.515 0 0 1-.628 2.869c-.28.701-.53 1.095-.556 1.082-.087-.03.801-1.7.925-3.967.135-2.26-.448-4.05-.354-4.067Zm4.555 1.34c.028.005-.021.493-.26 1.245a9.468 9.468 0 0 1-3.634 4.857c-.655.442-1.109.626-1.121.602-.055-.072 1.718-.972 3.13-2.888 1.44-1.895 1.802-3.848 1.886-3.816h-.001Z"/>
    <path fill="#263238" d="M98.258 152.489c-.076.031-.558-1.128-1.276-2.484-.72-1.356-1.474-2.357-1.412-2.405.048-.043.906.901 1.641 2.282.73 1.38 1.105 2.586 1.047 2.607Zm16.691-69.306c-.469 2.26.476 4.751 2.327 6.133 1.065.795 2.354 1.22 3.617 1.633l2.436.795c1.798.587 3.625 1.18 5.515 1.244-.202 2.11-.517 3.52.532 5.364.941 1.653 2.37 2.853 4.319 2.482 1.018-5.052 1.173-7.455 1.351-12.605.037-1.088.06-2.242-.484-3.186-.9-1.562-2.941-1.952-4.73-2.183l-7.539-.972c-1.231-.16-2.476-.318-3.708-.172-1.232.145-2.47.628-3.284 1.563"/>
    <path fill="#455A64" d="M138.886 93.525c0 .004-.024.009-.072.014-.048.007-.12.008-.214.005a2.07 2.07 0 0 1-.792-.223 3.404 3.404 0 0 1-1.021-.806c-.341-.379-.652-.865-1.016-1.374a6.254 6.254 0 0 0-1.413-1.447 8.223 8.223 0 0 0-2.064-1.078c-1.557-.566-3.385-.768-5.304-.85-1.919-.092-3.78-.18-5.409-.643-1.642-.427-2.955-1.325-3.803-2.274a5.901 5.901 0 0 1-.959-1.427c-.204-.465-.331-.887-.376-1.242-.097-.71.001-1.099.001-1.099.033 0-.027.395.098 1.082.059.344.197.75.407 1.196.221.442.54.911.964 1.367.845.908 2.125 1.762 3.731 2.166 1.598.441 3.435.523 5.358.615 1.922.081 3.786.293 5.373.885a8.34 8.34 0 0 1 2.111 1.13 6.34 6.34 0 0 1 1.434 1.513c.359.523.655 1.008.976 1.385.316.379.655.645.958.811.617.336 1.038.261 1.031.293h.001Z"/>
    <path fill="#455A64" d="M138.047 89.503c-.04.001.129-.352-.083-.924-.21-.57-.888-1.198-1.859-1.694-.97-.5-2.22-.93-3.646-1.177-1.425-.23-3.039-.195-4.722-.21-1.686-.006-3.311-.073-4.753-.404-1.438-.335-2.666-.914-3.558-1.587-.898-.67-1.462-1.404-1.755-1.952a4.528 4.528 0 0 1-.292-.653c-.055-.154-.079-.236-.071-.24.029-.01.135.317.45.842.315.522.885 1.22 1.775 1.854.884.64 2.093 1.187 3.503 1.503 1.414.31 3.02.372 4.702.378 1.683.015 3.299-.016 4.761.233 1.45.264 2.711.718 3.692 1.251.979.526 1.673 1.202 1.867 1.82.1.304.092.558.062.72-.033.161-.067.242-.074.24h.001Zm3.46-12.259c.012-.002.068.148.081.437a2.7 2.7 0 0 1-.27 1.184c-.427.958-1.493 1.967-2.848 2.736-.691.371-1.417.6-2.092.689a6.224 6.224 0 0 1-1.795-.031 7.77 7.77 0 0 1-1.172-.276c-.269-.092-.414-.15-.409-.167.012-.048.611.148 1.603.261a6.607 6.607 0 0 0 1.739-.024 6.3 6.3 0 0 0 2.002-.68c1.312-.744 2.368-1.706 2.806-2.588.467-.885.302-1.545.355-1.54Zm-2.2-2.969c.016.002.014.157-.025.434a6.55 6.55 0 0 1-.278 1.15 7.82 7.82 0 0 1-2.121 3.258 7.835 7.835 0 0 1-3.442 1.816 6.567 6.567 0 0 1-1.172.173c-.279.013-.433.002-.434-.014-.004-.046.614-.07 1.56-.337a8.352 8.352 0 0 0 3.313-1.83 8.33 8.33 0 0 0 2.123-3.129c.352-.916.43-1.529.477-1.52h-.001Zm-2.043 28.008c-.009-.001-.006-.119.004-.344.01-.224.025-.555.03-.98-.002-.844-.015-2.099-.486-3.538a6.923 6.923 0 0 0-1.157-2.156 5.703 5.703 0 0 0-2.232-1.662c-1.843-.804-4.105-.802-6.423-1.015-2.327-.22-4.543-.7-6.398-1.556-1.864-.834-3.297-2.077-4.219-3.306-.933-1.234-1.357-2.442-1.523-3.28a5.474 5.474 0 0 1-.123-.978c-.007-.226-.007-.344.002-.344.031-.002.027.475.22 1.301.194.82.636 1.994 1.57 3.19.926 1.194 2.335 2.392 4.174 3.2 1.827.83 4.013 1.298 6.323 1.516 2.298.213 4.591.212 6.493 1.054a5.903 5.903 0 0 1 2.305 1.747c.567.718.93 1.5 1.163 2.233.46 1.482.441 2.749.412 3.598-.02.428-.051.758-.079.982-.027.223-.047.34-.055.339l-.001-.001Z"/>
    <path fill="url(#t)" fill-opacity=".7" d="M136.622 85.537c-.036.024-.335-.403-.877-1.037a15.855 15.855 0 0 0-2.357-2.24 15.915 15.915 0 0 0-2.775-1.697c-.755-.36-1.243-.538-1.23-.578.008-.028.521.09 1.305.411.783.32 1.829.87 2.858 1.658 1.028.79 1.83 1.657 2.341 2.33.513.674.759 1.137.734 1.153h.001Z"/>
    <path fill="#FAFAFA" d="M106.491 123.517c.026.011-.204.421-.39 1.234-.202.811-.269 2.02-.361 3.516l-.809 11.68-.884 11.677-.298 3.536-.094.961c-.025.219-.042.334-.051.333-.009 0-.009-.117-.001-.337l.045-.964.216-3.543.808-11.682.885-11.675c.115-1.49.211-2.711.446-3.526.108-.409.23-.714.325-.915.094-.201.156-.299.162-.296l.001.001Zm-5.682 18.439c.064.032-.752 1.764-1.823 3.868-1.07 2.104-1.99 3.782-2.055 3.75-.063-.033.753-1.764 1.824-3.868 1.07-2.103 1.99-3.782 2.054-3.75Zm-17.037 61.018c-.01-.007.098-.203.346-.521.245-.32.634-.757 1.163-1.246.526-.492 1.195-1.029 1.926-1.626.731-.599 1.522-1.268 2.237-2.083a16.016 16.016 0 0 0 2.913-4.695c.524-1.324.701-2.196.747-2.185.017.004-.015.223-.096.618-.09.391-.233.956-.48 1.633a14.94 14.94 0 0 1-2.89 4.802c-.728.829-1.54 1.506-2.28 2.096-.743.589-1.418 1.107-1.954 1.577-.538.466-.943.877-1.21 1.174-.267.294-.404.469-.422.456Z"/>
    <path fill="#FFBE9D" d="M132.461 96.86c.096-.045 3.476-1.538 3.516 2.344.04 3.882-3.872 3.121-3.88 3.01-.008-.112.364-5.354.364-5.354Z"/>
    <path fill="#EB996E" d="M133.27 100.73c.017-.012.068.047.183.099a.68.68 0 0 0 .506.005c.41-.155.749-.81.76-1.509a2.224 2.224 0 0 0-.199-.966c-.122-.283-.308-.48-.515-.514a.346.346 0 0 0-.398.19c-.051.109-.025.186-.046.193-.011.01-.084-.065-.054-.225a.43.43 0 0 1 .151-.245.511.511 0 0 1 .373-.102c.3.017.572.29.714.594.157.306.252.683.245 1.08-.017.783-.41 1.518-.97 1.687a.729.729 0 0 1-.621-.097c-.121-.094-.142-.181-.129-.188v-.002Z"/>
    <path fill="url(#u)" fill-opacity=".7" d="M133.432 99.144c.371-.145.814-.005 1.094.279.279.284.412.686.442 1.083.031.397-.031.794-.094 1.187-.037.233-.11.51-.336.577-.226.067-.453-.141-.514-.368-.061-.226-.011-.466-.001-.701.01-.234-.035-.498-.226-.636-.084-.061-.185-.089-.278-.136a.79.79 0 0 1-.42-.724c.014-.294.167-.557.505-.607"/>
    <path fill="url(#v)" fill-opacity=".7" d="M123.136 130.99c.005 0 .007.061.006.18l-.008.526-.057 2.021-.277 7.43a963.284 963.284 0 0 1-.503 11.017c-.116 2.074-.214 4.247-.426 6.504-.11 1.129-.35 2.285-.86 3.362a5.812 5.812 0 0 1-1.022 1.479 4.608 4.608 0 0 1-1.531.996c-.571.243-1.188.315-1.787.356-.301-.004-.603.015-.9-.025l-.445-.041a3.521 3.521 0 0 1-.453-.12c-1.101-.49-2.022-1.191-2.935-1.861-1.809-1.367-3.478-2.776-5.052-4.132a310.049 310.049 0 0 1-8.204-7.389 405.77 405.77 0 0 1-5.405-5.115l-1.448-1.412-.371-.374a.842.842 0 0 1-.12-.134.98.98 0 0 1 .138.115l.389.354 1.48 1.378 5.461 5.053c2.318 2.12 5.087 4.636 8.236 7.342 1.576 1.35 3.246 2.752 5.048 4.109.903.664 1.839 1.365 2.876 1.824 1.062.264 2.32.244 3.397-.17a4.349 4.349 0 0 0 1.443-.938c.401-.413.718-.897.972-1.408.493-1.036.73-2.164.841-3.278.213-2.239.317-4.419.439-6.489l.559-11.012.358-7.427.107-2.019.034-.524c.009-.118.016-.179.02-.179v.001Z"/>
    <path fill="#FFBE9D" d="m128.077 148.639-.874 3.36-17.408-12.67-4.714-6.69c-.713-1.012-2.232-2.051-3.451-2.288-1.292-.251-2.405.309-3.789 1.069l-3.991 2.466c-.481.298-.767.853-.67 1.409.065.361.272.623.815.383 1.205-.533 3.748-1.284 3.748-1.284l.67 6.401 2.945 2.134 2.946 2.268 19.656 19.483c4.235 4.198 11.353 3.039 14.025-2.284l2.913-8.257-12.821-5.5Z"/>
    <path fill="#EB996E" d="M126.765 151.52c.01-.026.336.08.731.45.396.362.811 1.008 1.018 1.8.205.79.206 1.528.189 2.048-.022.523-.066.844-.101.843-.038 0-.059-.324-.085-.841-.029-.517-.061-1.232-.256-1.983-.196-.75-.559-1.365-.898-1.739-.336-.379-.62-.54-.598-.578Zm-29.053-16.794c-.028-.018.057-.224.261-.519.204-.287.552-.695 1.105-.891.572-.192 1.131.006 1.404.269.285.274.275.543.248.539-.043.015-.101-.207-.367-.397a1.38 1.38 0 0 0-1.2-.164c-.471.165-.813.511-1.045.76-.234.255-.373.424-.406.403Zm3.117 1.708c-.029.027-.161-.093-.4-.225a2.083 2.083 0 0 0-1.002-.269 2.074 2.074 0 0 0-.999.277c-.238.134-.369.255-.399.229-.025-.02.06-.191.294-.382a1.8 1.8 0 0 1 1.104-.386c.473-.001.874.189 1.105.377.237.189.322.36.297.379Z"/>
    <path fill="url(#w)" fill-opacity=".7" d="M135.224 117.321c.871-.508 12.506 7.251 12.708 11.077.202 3.827-5.448 45.987-5.448 45.987s6.658 2.354 6.658 3.562c0 1.208-1.412 5.237-1.412 5.237s3.026 11.884 4.841 12.286c1.816.403 16.975 4.934 14.353 7.149l-33.458.321c-3.025-1.208-.863-3.284-3.571-10.85-2.337-6.532-8.186-27.84-8.186-33.076 0-5.237 8.674-38.874 13.515-41.693Z"/>
    <path fill="url(#x)" fill-opacity=".7" d="M115.81 144.928s.234-1.497 1.028-1.36c.794.138 11.006 5.512 11.006 5.512s4.692-17.248 6.762-19.166c2.071-1.917 7.801-3.759 10.489-3.433 2.688.326 2.422 7.943 2.315 9.935-.083 1.541-4.396 19.162-6.346 27.062a9.239 9.239 0 0 1-4.31 5.764 9.271 9.271 0 0 1-9.973-.395l-10.97-7.64-.001-16.279Z"/>
    <path fill="#000" d="M152.571 195.471c-1.816-.403-4.841-12.287-4.841-12.287s1.412-4.028 1.412-5.236c0-1.209-6.659-3.563-6.659-3.563s2.97-22.161 4.526-35.808c.239-1.119.386-1.891.401-2.161.024-.445.055-1.171.061-2.034.318-3.046.5-5.24.461-5.983-.202-3.827-11.837-11.586-12.708-11.078-3.281 1.911-8.32 17.968-11.228 29.755-2.986-1.543-6.692-3.426-7.158-3.507-.794-.138-1.028 1.36-1.028 1.36v16.279l6.973 4.856c1.8 8.517 5.398 21.239 7.112 26.027 2.707 7.567.545 9.643 3.571 10.851h33.375c2.622-2.216-12.455-7.067-14.27-7.47v-.001Z" opacity=".3"/>
    <path fill="#263238" d="M145.183 145.37c.008.001-.007.145-.045.416-.036.272-.1.671-.185 1.184a116.311 116.311 0 0 1-.829 4.331 169.18 169.18 0 0 1-1.461 6.374 101.023 101.023 0 0 1-1.003 3.732c-.382 1.285-.846 2.614-1.568 3.858-1.468 2.471-3.749 4.284-6.143 5.01-1.197.353-2.416.442-3.512.215-1.088-.239-2.033-.674-2.855-1.116-1.64-.907-2.84-1.832-3.68-2.445l-.96-.72c-.218-.165-.331-.255-.326-.262.005-.008.128.069.357.22l.988.68c.858.588 2.073 1.489 3.707 2.365.819.428 1.754.844 2.812 1.067 1.057.21 2.237.117 3.399-.232 2.323-.716 4.556-2.498 5.988-4.912.706-1.216 1.166-2.524 1.549-3.8.378-1.28.709-2.529 1.015-3.718a203.883 203.883 0 0 0 1.514-6.355c.403-1.815.706-3.289.909-4.31l.233-1.175c.054-.268.087-.408.096-.407Zm-13.336 8.299c-.037.022-.356-.479-.944-1.231a18.067 18.067 0 0 0-2.584-2.674 18.089 18.089 0 0 0-3.088-2.073c-.845-.447-1.395-.673-1.38-.713.007-.017.15.023.406.111.256.085.618.233 1.056.438a15.024 15.024 0 0 1 5.737 4.8c.279.394.488.724.617.962.131.235.196.369.18.379v.001Z"/>
    <path fill="#263238" d="M134.36 151.514c-.035.028-.316-.304-.846-.754a8.32 8.32 0 0 0-2.313-1.378 8.35 8.35 0 0 0-2.636-.551c-.694-.028-1.128.027-1.134-.017-.005-.026.422-.147 1.136-.166.71-.022 1.709.097 2.729.492 1.018.4 1.833.987 2.341 1.484.511.497.745.874.723.89Z"/>
    <path fill="#263238" d="M132.418 129.914c.018.003-.01.277-.077.77-.07.493-.185 1.205-.353 2.078-.329 1.75-.868 4.149-1.552 6.777-.69 2.627-1.393 4.985-1.968 6.67a41.233 41.233 0 0 1-.72 1.981c-.188.462-.3.713-.317.707-.017-.007.063-.271.222-.741l.641-2.004a160.727 160.727 0 0 0 1.891-6.678 172.952 172.952 0 0 0 1.624-6.748l.433-2.059c.097-.487.159-.755.177-.753h-.001Zm10.007 44.76c.003.017-.124.056-.358.112a7.405 7.405 0 0 1-1.008.158 10.91 10.91 0 0 1-6.489-1.434 7.459 7.459 0 0 1-.846-.568c-.189-.149-.288-.238-.277-.252.025-.036.46.267 1.212.66.751.394 1.837.85 3.1 1.131 1.263.277 2.44.322 3.287.281.848-.04 1.37-.131 1.379-.088Zm3.858 7.577c.004.008-.053.044-.166.103-.115.056-.277.157-.506.241-.446.195-1.128.404-1.995.518-1.729.245-4.228-.096-6.589-1.357-2.357-1.264-4.111-2.953-5.33-4.17a47.54 47.54 0 0 1-1.412-1.486c-.326-.358-.499-.563-.486-.575.013-.013.21.168.558.504l1.468 1.426c1.249 1.181 3.008 2.831 5.323 4.072 2.315 1.235 4.75 1.596 6.447 1.403 1.715-.173 2.667-.743 2.688-.679Zm-25.278-34.595c.017-.004.07.194.15.557.087.361.168.894.229 1.556.066.662.079 1.457.03 2.336-.063.879-.195 1.84-.432 2.83a17.374 17.374 0 0 1-.924 2.711c-.363.802-.74 1.502-1.104 2.059-.359.559-.678.995-.921 1.275-.239.285-.377.437-.391.425-.039-.03.483-.665 1.156-1.796.34-.563.696-1.262 1.041-2.058a19.08 19.08 0 0 0 .891-2.677c.233-.975.37-1.921.445-2.786.061-.865.068-1.65.026-2.306-.075-1.313-.246-2.117-.197-2.126h.001Zm22.367-22.962c-.002.04-.689.013-1.794.01-1.099.006-2.643.034-4.242.526-1.596.496-2.832 1.464-3.482 2.333-.667.87-.813 1.563-.865 1.542-.014-.003.011-.175.108-.473a4.54 4.54 0 0 1 .609-1.178c.634-.928 1.902-1.959 3.552-2.471 1.647-.507 3.219-.503 4.323-.463.556.024 1.004.062 1.312.095.309.033.479.062.478.079h.001Z"/>
    <path fill="#FAFAFA" d="M119.782 157.283c-.074.037-.517-1.143-1.646-2.135-1.113-1.011-2.337-1.321-2.307-1.398.007-.03.32.004.796.179a5.382 5.382 0 0 1 1.684 1.026 5.394 5.394 0 0 1 1.207 1.557c.226.453.295.761.266.771Zm1.43-6.959c-.039.024-.229-.284-.615-.7a4.425 4.425 0 0 0-1.831-1.179c-.819-.272-1.62-.291-2.19-.284-.574.015-.931.054-.938.013-.005-.03.343-.133.927-.196.579-.055 1.415-.067 2.283.221a4.07 4.07 0 0 1 1.888 1.304c.365.467.499.809.476.821Zm23.256-24.639a.581.581 0 0 1 .047.133c.03.089.07.224.088.405.061.361.076.899.071 1.59-.022 1.381-.185 3.374-.478 5.822-.599 4.896-1.644 11.633-3.19 19a81.576 81.576 0 0 1-.623 2.72c-.232.883-.433 1.78-.822 2.594-.154.423-.397.802-.606 1.19-.113.19-.255.361-.381.541a3.268 3.268 0 0 1-.425.499c-.595.635-1.356 1.108-2.174 1.305a4.593 4.593 0 0 1-2.416-.066c-.392-.104-.721-.324-1.051-.488l-.978-.518-3.567-1.891-5.156-2.754-1.396-.76-.36-.204a.574.574 0 0 1-.118-.077.547.547 0 0 1 .13.054l.372.18c.341.173.816.412 1.418.718l5.193 2.68 3.58 1.862.981.512c.34.166.654.376 1.017.468a4.385 4.385 0 0 0 2.293.053c.771-.189 1.485-.635 2.052-1.244.147-.148.291-.301.406-.479.121-.174.257-.338.366-.522.201-.379.437-.744.586-1.159.379-.792.574-1.672.806-2.556a87.24 87.24 0 0 0 .619-2.711c1.545-7.356 2.618-14.085 3.262-18.968.316-2.443.507-4.428.56-5.803.02-.687.021-1.222-.022-1.58-.027-.361-.104-.539-.084-.545v-.001Z"/>
    <path fill="#FAFAFA" d="M129.546 150.891c-.012.035-.478-.092-1.227-.298a82.347 82.347 0 0 0-2.938-.759 84.5 84.5 0 0 0-2.968-.639c-.762-.151-1.236-.246-1.23-.283.004-.034.487-.003 1.26.103.774.105 1.837.292 2.997.567 1.16.275 2.194.584 2.933.836.739.253 1.184.441 1.173.474v-.001Zm3.38-.444c0 .066-.591.129-1.22.471-.316.163-.56.368-.72.534-.158.167-.238.294-.276.278-.029-.011-.007-.172.131-.391.138-.215.398-.472.742-.65.69-.373 1.354-.319 1.343-.242Zm2.802-24.394c.009.002 0 .083-.025.236l-.12.666-.492 2.442a788.812 788.812 0 0 1-1.72 8.035 754.901 754.901 0 0 1-1.795 8.021l-.572 2.424-.169.655c-.041.15-.067.227-.076.225-.008-.002 0-.084.025-.237l.121-.667.492-2.442c.427-2.059 1.034-4.9 1.72-8.035a772.63 772.63 0 0 1 1.794-8.018c.234-.993.427-1.812.573-2.424l.168-.657c.041-.15.067-.227.076-.226v.002Zm-1.829 43.809c-.005.017-.249-.052-.687-.192a9.836 9.836 0 0 1-.789-.279c-.306-.116-.654-.247-1.029-.416-1.514-.643-3.526-1.71-5.635-3.061a86.845 86.845 0 0 1-5.25-3.677 85.101 85.101 0 0 1-1.54-1.181c-.36-.283-.554-.448-.543-.462.01-.015.224.122.602.381l1.589 1.113c1.338.946 3.18 2.26 5.282 3.608 2.101 1.345 4.085 2.43 5.571 3.111.368.18.709.321 1.007.449.297.133.556.239.77.319.426.169.659.27.653.287h-.001Zm-.169-50.311c-.009.011-.068-.018-.185-.091l-.219-.138.258.07c.464.125 1.877.696 3.168 1.898a9.244 9.244 0 0 1 1.742 2.151c.355.615.499 1.031.471 1.043-.075.047-.803-1.571-2.389-3.002-1.257-1.171-2.597-1.794-3.022-2.016l.039-.069c.101.094.145.143.137.154Zm4.239 54.478c-.034-.001-.05-.439-.015-1.147a24.35 24.35 0 0 1 .304-2.748 24.2 24.2 0 0 1 .605-2.699c.197-.681.354-1.09.387-1.08.036.01-.059.437-.209 1.124-.151.688-.35 1.639-.527 2.697a54.204 54.204 0 0 0-.377 2.722c-.082.699-.131 1.133-.168 1.131Zm4.665 9.02c-.041-.017.149-.464.291-1.223a7.07 7.07 0 0 0-.077-2.974 7.106 7.106 0 0 0-1.324-2.666c-.481-.604-.858-.911-.83-.945.015-.022.439.236.97.827a6.475 6.475 0 0 1 1.436 2.721 6.47 6.47 0 0 1 .005 3.076c-.194.77-.447 1.197-.471 1.184Zm11.918 19.471c-.001.009-.107.007-.311-.004a17 17 0 0 1-.888-.072 24.86 24.86 0 0 1-3.233-.548c-1.344-.331-2.937-.84-4.537-1.758a12.906 12.906 0 0 1-4.355-4.04c-1.2-1.76-1.958-3.66-2.457-5.421-.495-1.767-.747-3.4-.918-4.771a64.97 64.97 0 0 1-.308-3.256l-.054-.887c-.009-.203-.01-.31-.001-.311.009 0 .027.105.053.306l.103.883c.087.766.198 1.877.389 3.241.193 1.362.464 2.984.966 4.729.507 1.739 1.263 3.611 2.441 5.34a12.87 12.87 0 0 0 4.261 3.98c1.567.914 3.135 1.436 4.462 1.788a29.87 29.87 0 0 0 3.201.625l.88.12c.202.027.307.046.306.055v.001Zm-16.651.705s-.523-.111-1.306-.648c-.776-.539-1.718-1.585-2.475-3.092-.385-.749-.744-1.6-1.08-2.526a78.143 78.143 0 0 1-1.044-2.968 94.49 94.49 0 0 1-1.966-6.932c-1.214-4.97-1.983-9.536-2.527-12.838-.266-1.652-.47-2.991-.605-3.917l-.149-1.067c-.031-.245-.043-.374-.034-.375.009-.002.038.125.086.366l.196 1.06.687 3.903c.59 3.292 1.386 7.848 2.598 12.806a101.726 101.726 0 0 0 1.941 6.92c.342 1.05.681 2.044 1.018 2.967.327.926.672 1.772 1.042 2.517.727 1.5 1.627 2.539 2.371 3.093.75.553 1.262.698 1.247.73v.001Z"/>
    <path fill="url(#y)" fill-opacity=".7" d="M116.189 110.078c.004 0 .009.052.014.154l.013.45c.002.397-.008.982-.062 1.732a51.122 51.122 0 0 1-.284 2.727c-.129 1.06-.298 2.265-.401 3.601-.098 1.334-.123 2.81.119 4.361.237 1.544.784 3.18 1.862 4.57 1.082 1.376 2.684 2.459 4.53 2.956a8.212 8.212 0 0 0 2.877.275 7.368 7.368 0 0 0 2.799-.978c1.74-1.035 3.076-2.631 3.772-4.405.344-.886.544-1.82.741-2.724a64.73 64.73 0 0 0 .498-2.678c.573-3.504.961-6.682 1.213-9.355.238-2.675.319-4.849.423-6.35l.119-1.727.039-.448a.72.72 0 0 1 .022-.153.65.65 0 0 1 .005.154l-.013.45-.071 1.73c-.073 1.501-.126 3.676-.341 6.36a130.422 130.422 0 0 1-1.159 9.378 65.962 65.962 0 0 1-.492 2.69c-.197.912-.392 1.846-.747 2.767-.714 1.828-2.085 3.469-3.878 4.536a7.6 7.6 0 0 1-2.902 1.01 8.45 8.45 0 0 1-2.972-.286c-1.897-.515-3.541-1.631-4.651-3.054-1.107-1.437-1.655-3.116-1.887-4.684-.236-1.577-.2-3.067-.089-4.409.115-1.343.296-2.547.439-3.604.147-1.058.26-1.969.328-2.717a30.86 30.86 0 0 0 .11-1.724l.013-.45a.756.756 0 0 1 .012-.153l.001-.002Z"/>
    <path fill="url(#z)" fill-opacity=".7" d="m90.875 144.274.831.918c.245.272.594.427.96.427a.309.309 0 0 0 .23-.517l-.757-.828h-1.264Z"/>
    <path fill="#263238" d="M308.456 182.793a1.615 1.615 0 0 0-.099-.259 528.9 528.9 0 0 0-.32-.743 18.447 18.447 0 0 1-.918-2.962c-.586-2.626-.693-6.615.445-11.313.534-2.353 1.354-4.87 2.343-7.534.975-2.669 2.099-5.499 3.041-8.566.932-3.06 1.697-6.39 1.681-9.906-.017-3.523-.948-7.069-1.986-10.602-1.034-3.538-2.11-6.999-2.355-10.454-.293-3.45.551-6.801 2.207-9.516 1.607-2.746 3.594-5.075 5.103-7.506 1.53-2.421 2.519-4.93 3.154-7.27a27.383 27.383 0 0 0 .546-11.403c-.479-2.673-1.064-4.066-1.064-4.066-.006.002.015.094.062.27l.217.78c.189.685.429 1.707.645 3.039a27.736 27.736 0 0 1-.655 11.313c-.645 2.315-1.636 4.79-3.161 7.177-1.504 2.401-3.499 4.72-5.137 7.499-1.69 2.744-2.57 6.204-2.273 9.708.246 3.513 1.33 6.997 2.362 10.531 1.037 3.53 1.957 7.038 1.978 10.502.021 3.463-.727 6.761-1.646 9.807-.927 3.052-2.039 5.883-3.003 8.56-.978 2.672-1.789 5.209-2.31 7.58-1.113 4.734-.966 8.763-.332 11.4.32 1.32.693 2.311.988 2.96l.354.73c.082.164.127.246.132.243l.001.001Z"/>
    <path fill="url(#A)" fill-opacity=".7" d="M315.578 105.813s3.197-9.181-1.84-14.775a.322.322 0 0 0-.557.142c-.326 1.523-.822 6.176 2.397 14.633Z"/>
    <path fill="#263238" d="M314.206 94.146c-.05.008.013.663.141 1.717l.533 4.11.521 4.11c.125 1.052.2 1.705.254 1.702.047-.002.063-.662.002-1.725a59.683 59.683 0 0 0-.416-4.134 81.44 81.44 0 0 0-.639-4.103c-.194-1.045-.346-1.685-.396-1.677Z"/>
    <path fill="url(#B)" fill-opacity=".7" d="M311.474 127.574s-1.474-9.608-8.546-12.2c-.248-.091-.498.131-.426.385.425 1.498 2.166 5.843 8.972 11.815Z"/>
    <path fill="#263238" d="M304.797 117.903c-.04.03.321.58.929 1.451l2.396 3.385 2.385 3.39c.604.871.976 1.413 1.022 1.386.04-.024-.255-.615-.806-1.526a60.62 60.62 0 0 0-2.304-3.461 82.146 82.146 0 0 0-2.487-3.327c-.661-.833-1.095-1.328-1.135-1.298Z"/>
    <path fill="url(#C)" fill-opacity=".7" d="M312.646 151.599s1.385-9.622-4.629-14.153a.322.322 0 0 0-.519.246c-.03 1.556.373 6.218 5.148 13.907Z"/>
    <path fill="#263238" d="M309.07 140.408c-.047.017.139.648.467 1.658l1.308 3.934 1.296 3.935c.325 1.009.523 1.635.575 1.623.046-.011-.065-.663-.327-1.694a60.517 60.517 0 0 0-1.198-3.979 81.993 81.993 0 0 0-1.412-3.906c-.39-.989-.662-1.589-.709-1.571Z"/>
    <path fill="url(#D)" fill-opacity=".7" d="M306.498 175.532s1.039-9.665-5.133-13.978c-.217-.151-.515 0-.511.264.026 1.557.596 6.201 5.644 13.714Z"/>
    <path fill="#263238" d="M302.524 164.476c-.047.019.162.643.526 1.641l1.449 3.884 1.436 3.886c.361.997.581 1.616.632 1.602.046-.013-.088-.66-.388-1.682a59.999 59.999 0 0 0-1.34-3.933 81.533 81.533 0 0 0-1.55-3.853c-.426-.974-.719-1.564-.765-1.545Z"/>
    <path fill="url(#E)" fill-opacity=".7" d="M320.009 97.798s8.766-4.225 9.174-11.737a.322.322 0 0 0-.494-.293c-1.31.844-4.958 3.781-8.68 12.03Z"/>
    <path fill="#263238" d="M327.311 88.587c-.041-.03-.462.478-1.118 1.313l-2.537 3.28-2.546 3.271c-.657.833-1.067 1.346-1.027 1.382.035.032.514-.423 1.224-1.217a60.416 60.416 0 0 0 2.637-3.214 81.66 81.66 0 0 0 2.457-3.35c.603-.875.95-1.436.91-1.465Z"/>
    <path fill="url(#F)" fill-opacity=".7" d="M310.117 117.419s9.007-3.685 9.871-11.158c.03-.263-.245-.453-.475-.323-1.359.763-5.179 3.474-9.396 11.481Z"/>
    <path fill="#263238" d="M317.966 108.668c-.039-.032-.49.449-1.195 1.243l-2.732 3.12a2921.285 2921.285 0 0 0-2.74 3.111c-.707.791-1.147 1.278-1.11 1.317.033.033.539-.392 1.297-1.141a60.56 60.56 0 0 0 2.827-3.049c1.067-1.222 2-2.357 2.656-3.195.656-.836 1.036-1.375.997-1.407v.001Z"/>
    <path fill="url(#G)" fill-opacity=".7" d="M314.524 139.793s6.339-7.378 3.698-14.423a.322.322 0 0 0-.57-.071c-.862 1.297-3.027 5.448-3.128 14.494Z"/>
    <path fill="#263238" d="M317.52 128.433c-.049-.011-.231.622-.497 1.649l-1.009 4.021-1.021 4.015c-.268 1.026-.438 1.66-.387 1.677.044.016.301-.593.634-1.604a60.219 60.219 0 0 0 1.127-4c.391-1.574.705-3.008.907-4.052.201-1.044.295-1.696.245-1.706h.001Z"/>
    <path fill="url(#H)" fill-opacity=".7" d="M307.655 165.741s8.945-3.836 9.682-11.322a.322.322 0 0 0-.48-.315c-1.346.786-5.121 3.56-9.202 11.637Z"/>
    <path fill="#263238" d="M315.355 156.86c-.04-.031-.481.456-1.173 1.262l-2.68 3.166-2.687 3.156c-.694.803-1.125 1.298-1.087 1.336.033.033.532-.4 1.277-1.162a60.517 60.517 0 0 0 2.775-3.095 81.1 81.1 0 0 0 2.602-3.239c.642-.848 1.013-1.392.974-1.424h-.001Zm-24.046-29.87c-.008 0-.014.073-.018.214l-.004.621.03 2.359.195 8.427v.009l.002.012c.518 3.535 2.187 7.488 4.476 11.347 1.678 2.843 3.45 5.435 4.972 7.842 1.534 2.401 2.822 4.62 3.707 6.578a27.358 27.358 0 0 1 1.679 4.794c.137.585.239 1.042.296 1.353.062.311.101.474.114.472.012-.002-.002-.167-.042-.483-.034-.317-.114-.78-.23-1.373-.246-1.183-.714-2.882-1.583-4.868-.862-1.988-2.136-4.237-3.657-6.652-1.511-2.423-3.273-5.019-4.942-7.847-2.277-3.84-3.939-7.734-4.482-11.213l.002.02-.325-8.423-.116-2.357-.043-.62c-.012-.14-.023-.212-.031-.212Z"/>
    <path fill="url(#I)" fill-opacity=".7" d="M295.858 149.251s-3.449-9.09 1.433-14.819a.323.323 0 0 1 .561.126c.368 1.513.991 6.151-1.994 14.693Z"/>
    <path fill="#263238" d="M296.909 137.551c-.05-.007-.185.638-.35 1.688a82.008 82.008 0 0 0-.526 4.118 59.562 59.562 0 0 0-.302 4.144c-.032 1.065.003 1.724.049 1.725.054 0 .111-.654.207-1.709l.408-4.123c.157-1.541.298-2.936.42-4.124.099-1.057.144-1.713.094-1.72v.001Z"/>
    <path fill="#000" d="M295.858 149.251s-3.449-9.09 1.433-14.819a.323.323 0 0 1 .561.126c.368 1.513.991 6.151-1.994 14.693Z" opacity=".3"/>
    <path fill="url(#J)" fill-opacity=".7" d="M306.734 171.237s-2.699-9.339 2.632-14.655a.323.323 0 0 1 .549.172c.244 1.537.489 6.21-3.181 14.483Z"/>
    <path fill="#263238" d="M308.732 159.66c-.049-.011-.236.621-.486 1.654a81.162 81.162 0 0 0-.859 4.062 60.447 60.447 0 0 0-.638 4.106c-.117 1.059-.137 1.719-.09 1.723.053.006.163-.642.345-1.686l.741-4.076.753-4.076c.185-1.046.283-1.696.234-1.707Z"/>
    <path fill="#000" d="M306.734 171.237s-2.699-9.339 2.632-14.655a.323.323 0 0 1 .549.172c.244 1.537.489 6.21-3.181 14.483Z" opacity=".3"/>
    <path fill="url(#K)" fill-opacity=".7" d="M291.451 138.137s-7.794-5.824-6.753-13.274a.322.322 0 0 1 .541-.194c1.124 1.08 4.142 4.66 6.212 13.468Z"/>
    <path fill="#000" d="M291.451 138.137s-7.794-5.824-6.753-13.274a.322.322 0 0 1 .541-.194c1.124 1.08 4.142 4.66 6.212 13.468Z" opacity=".3"/>
    <path fill="#263238" d="M286.052 127.7c-.046.021.187.637.611 1.611a81.788 81.788 0 0 0 1.769 3.758 60.366 60.366 0 0 0 1.971 3.659c.546.915.929 1.453.969 1.429.046-.028-.258-.611-.743-1.553l-1.871-3.698-1.862-3.705c-.483-.945-.799-1.523-.844-1.502v.001Z"/>
    <path fill="url(#L)" fill-opacity=".7" d="M303.811 161.97s-9.566-1.8-11.918-8.947a.321.321 0 0 1 .401-.411c1.484.475 5.773 2.361 11.517 9.358Z"/>
    <path fill="#000" d="M303.811 161.97s-9.566-1.8-11.918-8.947a.321.321 0 0 1 .401-.411c1.484.475 5.773 2.361 11.517 9.358Z" opacity=".3"/>
    <path fill="#263238" d="M294.36 154.975c-.032.039.449.49 1.26 1.178a82 82 0 0 0 3.245 2.596 60.027 60.027 0 0 0 3.384 2.418c.893.582 1.475.896 1.5.856.029-.044-.5-.434-1.352-1.067l-3.311-2.496-3.305-2.508c-.851-.636-1.389-1.016-1.421-.977Z"/>
    <path fill="#455A64" d="m312.422 179.925 1.501 12.88h-15.931l2.024-13.272 12.406.392Z"/>
    <path fill="#263238" d="M299.133 185.351c-.003.101 3.149.282 7.04.405 3.893.123 7.05.141 7.054.04.003-.1-3.149-.281-7.042-.404-3.891-.123-7.049-.141-7.052-.041Zm-.395 1.489c-.003.101 3.253.285 7.272.412 4.021.127 7.282.148 7.285.048.003-.1-3.253-.284-7.273-.411-4.019-.127-7.28-.149-7.284-.049Z"/>
  </g>
  <defs>
    <linearGradient id="b" x1="273.121" x2="278.834" y1="118.188" y2="118.188" gradientUnits="userSpaceOnUse">
      <stop stop-color="#FC1B7C"/>
      <stop offset=".5" stop-color="#714CF4"/>
      <stop offset="1" stop-color="#0084F3"/>
    </linearGradient>
    <linearGradient id="c" x1="263.025" x2="265.451" y1="117.874" y2="117.874" gradientUnits="userSpaceOnUse">
      <stop stop-color="#FC1B7C"/>
      <stop offset=".5" stop-color="#714CF4"/>
      <stop offset="1" stop-color="#0084F3"/>
    </linearGradient>
    <linearGradient id="d" x1="222.395" x2="230.793" y1="118.389" y2="118.389" gradientUnits="userSpaceOnUse">
      <stop stop-color="#FC1B7C"/>
      <stop offset=".5" stop-color="#714CF4"/>
      <stop offset="1" stop-color="#0084F3"/>
    </linearGradient>
    <linearGradient id="e" x1="234.01" x2="249.802" y1="117.698" y2="117.699" gradientUnits="userSpaceOnUse">
      <stop stop-color="#FC1B7C"/>
      <stop offset=".5" stop-color="#714CF4"/>
      <stop offset="1" stop-color="#0084F3"/>
    </linearGradient>
    <linearGradient id="f" x1="236.997" x2="263.468" y1="64.934" y2="64.934" gradientUnits="userSpaceOnUse">
      <stop stop-color="#FC1B7C"/>
      <stop offset=".5" stop-color="#714CF4"/>
      <stop offset="1" stop-color="#0084F3"/>
    </linearGradient>
    <linearGradient id="g" x1="147.209" x2="173.836" y1="110.189" y2="110.189" gradientUnits="userSpaceOnUse">
      <stop stop-color="#FC1B7C"/>
      <stop offset=".5" stop-color="#714CF4"/>
      <stop offset="1" stop-color="#0084F3"/>
    </linearGradient>
    <linearGradient id="h" x1="174.195" x2="175.482" y1="134.019" y2="120.892" gradientUnits="userSpaceOnUse">
      <stop stop-color="#FC1B7C"/>
      <stop offset=".5" stop-color="#714CF4"/>
      <stop offset="1" stop-color="#0084F3"/>
    </linearGradient>
    <linearGradient id="i" x1="152.894" x2="153.413" y1="127.366" y2="127.366" gradientUnits="userSpaceOnUse">
      <stop stop-color="#FC1B7C"/>
      <stop offset=".5" stop-color="#714CF4"/>
      <stop offset="1" stop-color="#0084F3"/>
    </linearGradient>
    <linearGradient id="j" x1="154.82" x2="158.074" y1="127.457" y2="127.457" gradientUnits="userSpaceOnUse">
      <stop stop-color="#FC1B7C"/>
      <stop offset=".5" stop-color="#714CF4"/>
      <stop offset="1" stop-color="#0084F3"/>
    </linearGradient>
    <linearGradient id="k" x1="194.416" x2="194.936" y1="127.365" y2="127.365" gradientUnits="userSpaceOnUse">
      <stop stop-color="#FC1B7C"/>
      <stop offset=".5" stop-color="#714CF4"/>
      <stop offset="1" stop-color="#0084F3"/>
    </linearGradient>
    <linearGradient id="l" x1="189.755" x2="193.009" y1="127.271" y2="127.271" gradientUnits="userSpaceOnUse">
      <stop stop-color="#FC1B7C"/>
      <stop offset=".5" stop-color="#714CF4"/>
      <stop offset="1" stop-color="#0084F3"/>
    </linearGradient>
    <linearGradient id="m" x1="153.091" x2="194.106" y1="53.467" y2="53.467" gradientUnits="userSpaceOnUse">
      <stop stop-color="#FC1B7C"/>
      <stop offset=".5" stop-color="#714CF4"/>
      <stop offset="1" stop-color="#0084F3"/>
    </linearGradient>
    <linearGradient id="n" x1="138.041" x2="203.038" y1="174.925" y2="174.925" gradientUnits="userSpaceOnUse">
      <stop stop-color="#FC1B7C"/>
      <stop offset=".5" stop-color="#714CF4"/>
      <stop offset="1" stop-color="#0084F3"/>
    </linearGradient>
    <linearGradient id="o" x1="15.436" x2="50.194" y1="204.635" y2="204.635" gradientUnits="userSpaceOnUse">
      <stop stop-color="#FC1B7C"/>
      <stop offset=".5" stop-color="#714CF4"/>
      <stop offset="1" stop-color="#0084F3"/>
    </linearGradient>
    <linearGradient id="p" x1="81.841" x2="105.586" y1="157.37" y2="157.37" gradientUnits="userSpaceOnUse">
      <stop stop-color="#FC1B7C"/>
      <stop offset=".5" stop-color="#714CF4"/>
      <stop offset="1" stop-color="#0084F3"/>
    </linearGradient>
    <linearGradient id="q" x1="76.822" x2="117.014" y1="161.139" y2="161.139" gradientUnits="userSpaceOnUse">
      <stop stop-color="#FC1B7C"/>
      <stop offset=".5" stop-color="#714CF4"/>
      <stop offset="1" stop-color="#0084F3"/>
    </linearGradient>
    <linearGradient id="r" x1="106.47" x2="145.182" y1="145.556" y2="145.556" gradientUnits="userSpaceOnUse">
      <stop stop-color="#FC1B7C"/>
      <stop offset=".5" stop-color="#714CF4"/>
      <stop offset="1" stop-color="#0084F3"/>
    </linearGradient>
    <linearGradient id="s" x1="25.674" x2="60.432" y1="204.635" y2="204.635" gradientUnits="userSpaceOnUse">
      <stop stop-color="#FC1B7C"/>
      <stop offset=".5" stop-color="#714CF4"/>
      <stop offset="1" stop-color="#0084F3"/>
    </linearGradient>
    <linearGradient id="t" x1="129.383" x2="136.623" y1="82.796" y2="82.796" gradientUnits="userSpaceOnUse">
      <stop stop-color="#FC1B7C"/>
      <stop offset=".5" stop-color="#714CF4"/>
      <stop offset="1" stop-color="#0084F3"/>
    </linearGradient>
    <linearGradient id="u" x1="133.098" x2="134.976" y1="100.705" y2="100.705" gradientUnits="userSpaceOnUse">
      <stop stop-color="#FC1B7C"/>
      <stop offset=".5" stop-color="#714CF4"/>
      <stop offset="1" stop-color="#0084F3"/>
    </linearGradient>
    <linearGradient id="v" x1="91.337" x2="123.142" y1="148.145" y2="148.145" gradientUnits="userSpaceOnUse">
      <stop stop-color="#FC1B7C"/>
      <stop offset=".5" stop-color="#714CF4"/>
      <stop offset="1" stop-color="#0084F3"/>
    </linearGradient>
    <linearGradient id="w" x1="121.709" x2="167.228" y1="160.675" y2="160.675" gradientUnits="userSpaceOnUse">
      <stop stop-color="#FC1B7C"/>
      <stop offset=".5" stop-color="#714CF4"/>
      <stop offset="1" stop-color="#0084F3"/>
    </linearGradient>
    <linearGradient id="x" x1="115.81" x2="147.472" y1="148.762" y2="148.762" gradientUnits="userSpaceOnUse">
      <stop stop-color="#FC1B7C"/>
      <stop offset=".5" stop-color="#714CF4"/>
      <stop offset="1" stop-color="#0084F3"/>
    </linearGradient>
    <linearGradient id="y" x1="115.199" x2="134.488" y1="116.828" y2="116.828" gradientUnits="userSpaceOnUse">
      <stop stop-color="#FC1B7C"/>
      <stop offset=".5" stop-color="#714CF4"/>
      <stop offset="1" stop-color="#0084F3"/>
    </linearGradient>
    <linearGradient id="z" x1="90.875" x2="92.976" y1="144.955" y2="144.955" gradientUnits="userSpaceOnUse">
      <stop stop-color="#FC1B7C"/>
      <stop offset=".5" stop-color="#714CF4"/>
      <stop offset="1" stop-color="#0084F3"/>
    </linearGradient>
    <linearGradient id="A" x1="312.942" x2="316.578" y1="98.467" y2="98.467" gradientUnits="userSpaceOnUse">
      <stop stop-color="#FC1B7C"/>
      <stop offset=".5" stop-color="#714CF4"/>
      <stop offset="1" stop-color="#0084F3"/>
    </linearGradient>
    <linearGradient id="B" x1="302.49" x2="311.474" y1="121.543" y2="121.543" gradientUnits="userSpaceOnUse">
      <stop stop-color="#FC1B7C"/>
      <stop offset=".5" stop-color="#714CF4"/>
      <stop offset="1" stop-color="#0084F3"/>
    </linearGradient>
    <linearGradient id="C" x1="307.496" x2="312.784" y1="144.581" y2="144.581" gradientUnits="userSpaceOnUse">
      <stop stop-color="#FC1B7C"/>
      <stop offset=".5" stop-color="#714CF4"/>
      <stop offset="1" stop-color="#0084F3"/>
    </linearGradient>
    <linearGradient id="D" x1="300.854" x2="306.564" y1="168.604" y2="168.604" gradientUnits="userSpaceOnUse">
      <stop stop-color="#FC1B7C"/>
      <stop offset=".5" stop-color="#714CF4"/>
      <stop offset="1" stop-color="#0084F3"/>
    </linearGradient>
    <linearGradient id="E" x1="320.009" x2="329.183" y1="91.835" y2="91.835" gradientUnits="userSpaceOnUse">
      <stop stop-color="#FC1B7C"/>
      <stop offset=".5" stop-color="#714CF4"/>
      <stop offset="1" stop-color="#0084F3"/>
    </linearGradient>
    <linearGradient id="F" x1="310.117" x2="319.99" y1="111.732" y2="111.732" gradientUnits="userSpaceOnUse">
      <stop stop-color="#FC1B7C"/>
      <stop offset=".5" stop-color="#714CF4"/>
      <stop offset="1" stop-color="#0084F3"/>
    </linearGradient>
    <linearGradient id="G" x1="314.524" x2="318.866" y1="132.57" y2="132.57" gradientUnits="userSpaceOnUse">
      <stop stop-color="#FC1B7C"/>
      <stop offset=".5" stop-color="#714CF4"/>
      <stop offset="1" stop-color="#0084F3"/>
    </linearGradient>
    <linearGradient id="H" x1="307.655" x2="317.339" y1="159.976" y2="159.976" gradientUnits="userSpaceOnUse">
      <stop stop-color="#FC1B7C"/>
      <stop offset=".5" stop-color="#714CF4"/>
      <stop offset="1" stop-color="#0084F3"/>
    </linearGradient>
    <linearGradient id="I" x1="294.675" x2="298.17" y1="141.88" y2="141.88" gradientUnits="userSpaceOnUse">
      <stop stop-color="#FC1B7C"/>
      <stop offset=".5" stop-color="#714CF4"/>
      <stop offset="1" stop-color="#0084F3"/>
    </linearGradient>
    <linearGradient id="J" x1="306.051" x2="310.037" y1="163.957" y2="163.957" gradientUnits="userSpaceOnUse">
      <stop stop-color="#FC1B7C"/>
      <stop offset=".5" stop-color="#714CF4"/>
      <stop offset="1" stop-color="#0084F3"/>
    </linearGradient>
    <linearGradient id="K" x1="284.602" x2="291.451" y1="131.446" y2="131.446" gradientUnits="userSpaceOnUse">
      <stop stop-color="#FC1B7C"/>
      <stop offset=".5" stop-color="#714CF4"/>
      <stop offset="1" stop-color="#0084F3"/>
    </linearGradient>
    <linearGradient id="L" x1="291.876" x2="303.811" y1="157.344" y2="157.344" gradientUnits="userSpaceOnUse">
      <stop stop-color="#FC1B7C"/>
      <stop offset=".5" stop-color="#714CF4"/>
      <stop offset="1" stop-color="#0084F3"/>
    </linearGradient>
    <clipPath id="a">
      <path fill="#fff" d="M0 0h332v217H0z"/>
    </clipPath>
  </defs>
</svg>
