<svg width="25" height="24" viewBox="0 0 25 24" fill="none" xmlns="http://www.w3.org/2000/svg">
<g id="Frame" clip-path="url(#clip0_1_2010)">
<path id="Vector" d="M24.0078 12.2244C24.0078 11.2412 23.9295 10.5236 23.7598 9.77954H12.7295V14.2175H19.2041C19.0736 15.3204 18.3687 16.9814 16.8022 18.0975L16.7802 18.246L20.2678 20.9962L20.5095 21.0208C22.7285 18.9346 24.0078 15.8652 24.0078 12.2244Z" fill="#4285F4"/>
<path id="Vector_2" d="M12.7294 23.9176C15.9014 23.9176 18.5643 22.8545 20.5094 21.0209L16.8021 18.0976C15.8101 18.8018 14.4786 19.2934 12.7294 19.2934C9.62268 19.2934 6.98586 17.2074 6.0459 14.324L5.90813 14.3359L2.28168 17.1927L2.23425 17.3269C4.16618 21.2334 8.1345 23.9176 12.7294 23.9176Z" fill="#34A853"/>
<path id="Vector_3" d="M6.04609 14.324C5.79808 13.58 5.65454 12.7826 5.65454 11.9589C5.65454 11.135 5.79808 10.3378 6.03304 9.59366L6.02647 9.43519L2.35458 6.53247L2.23444 6.59064C1.43821 8.21174 0.981323 10.0322 0.981323 11.9589C0.981323 13.8855 1.43821 15.7059 2.23444 17.327L6.04609 14.324Z" fill="#FBBC05"/>
<path id="Vector_4" d="M12.7294 4.62403C14.9355 4.62403 16.4235 5.59401 17.2721 6.40461L20.5877 3.10928C18.5514 1.1826 15.9014 0 12.7294 0C8.13449 0 4.16617 2.68406 2.23425 6.59056L6.03285 9.59359C6.98585 6.7102 9.62267 4.62403 12.7294 4.62403Z" fill="#EB4335"/>
</g>
<defs>
<clipPath id="clip0_1_2010">
<rect width="23.04" height="24" fill="white" transform="translate(0.97998)"/>
</clipPath>
</defs>
</svg>
