<svg width="28" height="28" viewBox="0 0 28 28" fill="none" xmlns="http://www.w3.org/2000/svg">
<g id="Group">
<path id="Exclude" fill-rule="evenodd" clip-rule="evenodd" d="M0.666748 14.0201C0.666748 6.99624 6.28008 0.666748 14.0267 0.666748C21.6001 0.666748 27.3334 6.87606 27.3334 13.9801C27.3334 22.2191 20.6134 27.3334 14.0001 27.3334C11.8134 27.3334 9.38675 26.7459 7.44008 25.5975C6.76008 25.1835 6.18675 24.8764 5.45341 25.1168L2.76008 25.918C2.08008 26.1316 1.46675 25.5975 1.66675 24.8764L2.56008 21.8852C2.70675 21.4713 2.68008 21.0306 2.46675 20.6834C1.32008 18.5736 0.666748 16.2635 0.666748 14.0201ZM12.2667 14.0201C12.2667 14.9682 13.0267 15.7293 13.9734 15.7427C14.9201 15.7427 15.6801 14.9682 15.6801 14.0335C15.6801 13.0854 14.9201 12.3242 13.9734 12.3242C13.0401 12.3109 12.2667 13.0854 12.2667 14.0201ZM18.4134 14.0335C18.4134 14.9682 19.1734 15.7427 20.1201 15.7427C21.0667 15.7427 21.8267 14.9682 21.8267 14.0335C21.8267 13.0854 21.0667 12.3242 20.1201 12.3242C19.1734 12.3242 18.4134 13.0854 18.4134 14.0335ZM7.82675 15.7427C6.89341 15.7427 6.12008 14.9682 6.12008 14.0335C6.12008 13.0854 6.88008 12.3242 7.82675 12.3242C8.77341 12.3242 9.53341 13.0854 9.53341 14.0335C9.53341 14.9682 8.77341 15.7293 7.82675 15.7427Z" fill="url(#paint0_linear_111_1213)"/>
</g>
<defs>
<linearGradient id="paint0_linear_111_1213" x1="0.666748" y1="14.1732" x2="27.3334" y2="14.1732" gradientUnits="userSpaceOnUse">
<stop stop-color="#FC1B7C"/>
<stop offset="0.5" stop-color="#714CF4"/>
<stop offset="1" stop-color="#0084F3"/>
</linearGradient>
</defs>
</svg>
