<svg width="32" height="32" viewBox="0 0 32 32" fill="none" xmlns="http://www.w3.org/2000/svg">
<g id="Search results for Back music - Flaticon-12 2">
<g id="Group">
<path id="Vector" d="M25.9602 29.9971C26.2282 30.001 26.4942 29.951 26.7426 29.8501C26.9909 29.7492 27.2164 29.5996 27.4059 29.41C27.5953 29.2203 27.7448 28.9946 27.8454 28.7462C27.946 28.4978 27.9958 28.2317 27.9917 27.9637L27.9917 3.95757C27.9917 1.28539 23.9853 1.28539 23.9853 3.95757L23.9853 15.9389C23.9759 15.3493 23.7094 14.7634 23.1859 14.3704L7.16044 2.35124C6.86257 2.12783 6.50833 1.99187 6.13748 1.95861C5.76663 1.92534 5.39385 1.9961 5.06098 2.16293C4.72811 2.32975 4.44832 2.58605 4.25302 2.90306C4.05772 3.22007 3.95463 3.58523 3.95534 3.95757L3.95534 27.9939C3.95498 28.3661 4.05832 28.731 4.25377 29.0478C4.44921 29.3645 4.72902 29.6205 5.06182 29.7871C5.39463 29.9537 5.76727 30.0243 6.13795 29.991C6.50863 29.9576 6.8627 29.8217 7.16044 29.5984L23.1859 17.5755C23.4306 17.3929 23.6299 17.1564 23.7685 16.8844C23.9071 16.6124 23.9813 16.3122 23.9853 16.0069V27.9637C23.9813 28.2269 24.0293 28.4884 24.1264 28.7331C24.2235 28.9778 24.3679 29.2009 24.5513 29.3898C24.7347 29.5786 24.9535 29.7295 25.1953 29.8337C25.437 29.9379 25.6969 29.9934 25.9602 29.9971Z" fill="url(#paint0_linear_1_2677)"/>
</g>
</g>
<defs>
<linearGradient id="paint0_linear_1_2677" x1="27.9919" y1="15.7927" x2="3.95533" y2="15.7927" gradientUnits="userSpaceOnUse">
<stop stop-color="#FC1B7C"/>
<stop offset="0.5" stop-color="#714CF4"/>
<stop offset="1" stop-color="#0084F3"/>
</linearGradient>
</defs>
</svg>
