<svg width="28" height="28" viewBox="0 0 28 28" fill="none" xmlns="http://www.w3.org/2000/svg">
<g id="Search results for Repeat - Flaticon-12 1">
<g id="Group">
<g id="Group_2">
<g id="Group_3">
<path id="Vector" d="M26 14V17C26 19.2 24.2 21 22 21H5.4L7.7 23.3C8.1 23.7 8.1 24.3 7.7 24.7C7.3 25.1 6.7 25.1 6.3 24.7L2.3 20.7C1.9 20.3 1.9 19.7 2.3 19.3L6.3 15.3C6.7 14.9 7.3 14.9 7.7 15.3C8.1 15.7 8.1 16.3 7.7 16.7L5.4 19H22C23.1 19 24 18.1 24 17V14C24 13.4 24.4 13 25 13C25.6 13 26 13.4 26 14ZM25.7 7.3L21.7 3.3C21.3 2.9 20.7 2.9 20.3 3.3C19.9 3.7 19.9 4.3 20.3 4.7L22.6 7H6C3.8 7 2 8.8 2 11V14C2 14.6 2.4 15 3 15C3.6 15 4 14.6 4 14V11C4 9.9 4.9 9 6 9H22.6L20.3 11.3C19.9 11.7 19.9 12.3 20.3 12.7C20.7 13.1 21.3 13.1 21.7 12.7L25.7 8.7C26.1 8.3 26.1 7.7 25.7 7.3Z" fill="#9E9E9E"/>
</g>
</g>
</g>
</g>
</svg>
