<svg width="12" height="12" viewBox="0 0 12 12" fill="none" xmlns="http://www.w3.org/2000/svg">
<g id="Search results for Play - Flaticon-12 (1) 1">
<g id="Group">
<path id="Vector" d="M9.331 5.0065L3.831 1.9035C3.65139 1.80085 3.44779 1.74761 3.24091 1.74919C3.03404 1.75078 2.83128 1.80712 2.65325 1.9125C2.47981 2.0117 2.33571 2.15503 2.2356 2.32795C2.13549 2.50086 2.08293 2.6972 2.08325 2.897V9.103C2.08293 9.30281 2.13549 9.49914 2.2356 9.67205C2.33571 9.84497 2.47981 9.9883 2.65325 10.0875C2.8313 10.1928 3.03405 10.2491 3.24092 10.2507C3.44778 10.2523 3.65137 10.1991 3.831 10.0965L9.331 6.9935C9.50839 6.89524 9.65623 6.75128 9.75917 6.57657C9.86211 6.40186 9.9164 6.20278 9.9164 6C9.9164 5.79722 9.86211 5.59814 9.75917 5.42343C9.65623 5.24872 9.50839 5.10476 9.331 5.0065Z" fill="url(#paint0_linear_1_4663)"/>
</g>
</g>
<defs>
<linearGradient id="paint0_linear_1_4663" x1="2.08325" y1="6.05517" x2="9.9164" y2="6.05517" gradientUnits="userSpaceOnUse">
<stop stop-color="#FC1B7C"/>
<stop offset="0.5" stop-color="#714CF4"/>
<stop offset="1" stop-color="#0084F3"/>
</linearGradient>
</defs>
</svg>
