<svg width="28" height="28" viewBox="0 0 28 28" fill="none" xmlns="http://www.w3.org/2000/svg">
<g id="Search results for Playlist - Flaticon-12 (1) 1" clip-path="url(#clip0_1_2747)">
<g id="Group">
<path id="Vector" fill-rule="evenodd" clip-rule="evenodd" d="M11.5313 10.1205C12.0234 10.629 12.4827 11.1867 12.9256 11.7608C12.5399 12.3439 12.1572 12.929 11.7774 13.5159C11.3462 12.9102 10.8807 12.3297 10.3831 11.7772C9.82573 11.1534 9.19196 10.6023 8.49676 10.1369C7.58451 9.51986 6.51403 9.17822 5.41299 9.15274C4.0194 9.17808 2.65233 9.53813 1.42705 10.2025C1.31112 10.2684 1.18302 10.31 1.05052 10.3249C0.918024 10.3397 0.783887 10.3275 0.656253 10.289C0.528618 10.2504 0.410149 10.1863 0.308034 10.1006C0.205919 10.0149 0.122288 9.90928 0.0622165 9.79025C0.00214481 9.67122 -0.0331148 9.54123 -0.0414225 9.40816C-0.0497302 9.27508 -0.0309128 9.14171 0.0138878 9.01613C0.0586883 8.89056 0.128538 8.77539 0.219197 8.67763C0.309856 8.57986 0.419435 8.50154 0.541283 8.44741C2.09255 7.60699 3.82912 7.16721 5.59342 7.16797C7.01252 7.22971 8.38667 7.68397 9.56296 8.48021C10.2785 8.9515 10.9387 9.50172 11.5313 10.1205Z" fill="#9E9E9E"/>
<path id="Vector_2" fill-rule="evenodd" clip-rule="evenodd" d="M23.3251 7.24968V5.60938L28 8.29947L23.3251 10.9896V9.23445C22.2607 9.08035 21.1772 9.11925 20.1265 9.34927C19.0857 9.57628 18.1022 10.0134 17.2363 10.634C16.3704 11.2545 15.6403 12.0453 15.0908 12.9579L14.4511 13.9421C14.0738 14.549 13.6965 15.1395 13.2536 15.6972C13.024 16.0089 12.7944 16.3042 12.5647 16.583C11.7138 17.6815 10.6953 18.6391 9.54655 19.4207C8.37064 20.2178 6.99627 20.6721 5.57701 20.733C3.81263 20.7344 2.07589 20.2946 0.524876 19.4535C0.353844 19.365 0.212544 19.2283 0.118481 19.0602C0.0244181 18.8922 -0.0182732 18.7002 -0.00430395 18.5081C0.00966534 18.316 0.0796813 18.1323 0.197069 17.9796C0.314458 17.8269 0.474059 17.7121 0.6561 17.6492C0.778903 17.6073 0.90879 17.59 1.03828 17.5985C1.16778 17.6069 1.29433 17.6409 1.41064 17.6984C2.63592 18.3628 4.00299 18.7229 5.39658 18.7482C6.49763 18.7227 7.56811 18.3811 8.48035 17.764C9.48367 17.0666 10.3696 16.2139 11.1048 15.238C11.4493 14.8279 11.761 14.385 12.0726 13.9585C12.4692 13.3717 12.8683 12.7703 13.27 12.187L13.4341 11.8917C14.2425 10.5696 15.3518 9.45708 16.6715 8.64473C17.9912 7.83237 19.4841 7.34314 21.0287 7.21687C21.7929 7.13919 22.5635 7.1502 23.3251 7.24968Z" fill="#9E9E9E"/>
<path id="Vector_3" fill-rule="evenodd" clip-rule="evenodd" d="M23.3251 18.6662V17.0095L28 19.6996L23.3251 22.4061V20.651C21.8774 20.8157 20.4114 20.6931 19.0111 20.2901C16.7452 19.6292 14.7976 18.1656 13.5325 16.173C13.5715 16.1188 13.6098 16.0641 13.6473 16.0089C14.041 15.5004 14.4019 14.9591 14.7627 14.4014L14.7955 14.4506L15.1236 14.9427C15.8496 16.1591 16.8922 17.1555 18.1402 17.8257C19.3882 18.496 20.7947 18.8148 22.2097 18.7482C22.5882 18.7421 22.9497 18.7147 23.3251 18.6662Z" fill="#9E9E9E"/>
</g>
</g>
<defs>
<clipPath id="clip0_1_2747">
<rect width="28" height="28" fill="white"/>
</clipPath>
</defs>
</svg>
